<ttFont>
    <TTGlyph name=".notdef" xMin="68" yMin="0" xMax="612" yMax="1365">
      <contour>
        <pt x="68" y="0" on="1"/>
        <pt x="68" y="1365" on="1"/>
        <pt x="612" y="1365" on="1"/>
        <pt x="612" y="0" on="1"/>
      </contour>
      <contour>
        <pt x="136" y="68" on="1"/>
        <pt x="544" y="68" on="1"/>
        <pt x="544" y="1297" on="1"/>
        <pt x="136" y="1297" on="1"/>
      </contour>
    </TTGlyph>
    <TTGlyph name="A" xMin="47" yMin="0" xMax="925" yMax="1721">
      <contour>
        <pt x="306" y="549" on="1"/>
        <pt x="666" y="549" on="1"/>
        <pt x="485" y="1563" on="1"/>
      </contour>
      <contour>
        <pt x="200" y="0" on="1"/>
        <pt x="47" y="0" on="1"/>
        <pt x="387" y="1721" on="1"/>
        <pt x="585" y="1721" on="1"/>
        <pt x="925" y="0" on="1"/>
        <pt x="771" y="0" on="1"/>
        <pt x="685" y="448" on="1"/>
        <pt x="288" y="448" on="1"/>
      </contour>
    </TTGlyph>
    <TTGlyph name="AE" xMin="12" yMin="0" xMax="1320" yMax="1721">
      <contour>
        <pt x="365" y="549" on="1"/>
        <pt x="719" y="549" on="1"/>
        <pt x="719" y="1563" on="1"/>
      </contour>
      <contour>
        <pt x="12" y="0" on="1"/>
        <pt x="648" y="1721" on="1"/>
        <pt x="1320" y="1721" on="1"/>
        <pt x="1320" y="1599" on="1"/>
        <pt x="872" y="1599" on="1"/>
        <pt x="872" y="947" on="1"/>
        <pt x="1192" y="947" on="1"/>
        <pt x="1192" y="832" on="1"/>
        <pt x="872" y="832" on="1"/>
        <pt x="872" y="122" on="1"/>
        <pt x="1320" y="122" on="1"/>
        <pt x="1320" y="0" on="1"/>
        <pt x="720" y="0" on="1"/>
        <pt x="720" y="448" on="1"/>
        <pt x="329" y="448" on="1"/>
        <pt x="164" y="0" on="1"/>
      </contour>
    </TTGlyph>
    <TTGlyph name="Aacute" xMin="47" yMin="0" xMax="925" yMax="2306">
      <component glyphName="acute" x="362" y="584" flags="0x1004"/>
      <component glyphName="A" x="0" y="0" flags="0x1204"/>
    </TTGlyph>
    <TTGlyph name="Abreve" xMin="47" yMin="0" xMax="925" yMax="2176">
      <component glyphName="breve" x="118" y="595" flags="0x1004"/>
      <component glyphName="A" x="0" y="0" flags="0x1204"/>
    </TTGlyph>
    <TTGlyph name="Acircumflex" xMin="47" yMin="0" xMax="925" yMax="2215">
      <component glyphName="circumflex" x="131" y="500" flags="0x1004"/>
      <component glyphName="A" x="0" y="0" flags="0x1204"/>
    </TTGlyph>
    <TTGlyph name="Adieresis" xMin="47" yMin="0" xMax="925" yMax="2087">
      <component glyphName="dieresis" x="89" y="522" flags="0x1004"/>
      <component glyphName="A" x="0" y="0" flags="0x1204"/>
    </TTGlyph>
    <TTGlyph name="Agrave" xMin="47" yMin="0" xMax="925" yMax="2306">
      <component glyphName="grave" x="159" y="584" flags="0x1004"/>
      <component glyphName="A" x="0" y="0" flags="0x1204"/>
    </TTGlyph>
    <TTGlyph name="Amacron" xMin="47" yMin="0" xMax="925" yMax="2023">
      <component glyphName="macron" x="134" y="525" flags="0x1004"/>
      <component glyphName="A" x="0" y="0" flags="0x1204"/>
    </TTGlyph>
    <TTGlyph name="Aogonek" xMin="47" yMin="-346" xMax="925" yMax="1721">
      <component glyphName="ogonek" x="542" y="12" flags="0x1004"/>
      <component glyphName="A" x="0" y="0" flags="0x1004"/>
    </TTGlyph>
    <TTGlyph name="Aring" xMin="47" yMin="0" xMax="925" yMax="2166">
      <component glyphName="ring" x="169" y="444" flags="0x1004"/>
      <component glyphName="A" x="0" y="0" flags="0x1204"/>
    </TTGlyph>
    <TTGlyph name="Atilde" xMin="47" yMin="0" xMax="925" yMax="2107">
      <component glyphName="tilde" x="107" y="544" flags="0x1004"/>
      <component glyphName="A" x="0" y="0" flags="0x1204"/>
    </TTGlyph>
    <TTGlyph name="B" xMin="146" yMin="0" xMax="940" yMax="1721">
      <contour>
        <pt x="298" y="982" on="1"/>
        <pt x="542" y="982" on="1"/>
        <pt x="598" y="982" on="0"/>
        <pt x="678" y="1031" on="0"/>
        <pt x="722" y="1118" on="0"/>
        <pt x="742" y="1220" on="0"/>
        <pt x="742" y="1281" on="1"/>
        <pt x="742" y="1605" on="0"/>
        <pt x="496" y="1605" on="1"/>
        <pt x="298" y="1605" on="1"/>
      </contour>
      <contour>
        <pt x="298" y="116" on="1"/>
        <pt x="570" y="116" on="1"/>
        <pt x="622" y="116" on="0"/>
        <pt x="700" y="159" on="0"/>
        <pt x="748" y="229" on="0"/>
        <pt x="777" y="335" on="0"/>
        <pt x="788" y="445" on="0"/>
        <pt x="788" y="513" on="1"/>
        <pt x="788" y="574" on="0"/>
        <pt x="778" y="670" on="0"/>
        <pt x="749" y="764" on="0"/>
        <pt x="702" y="827" on="0"/>
        <pt x="623" y="865" on="0"/>
        <pt x="570" y="865" on="1"/>
        <pt x="298" y="865" on="1"/>
      </contour>
      <contour>
        <pt x="146" y="0" on="1"/>
        <pt x="146" y="1721" on="1"/>
        <pt x="516" y="1721" on="1"/>
        <pt x="605" y="1721" on="0"/>
        <pt x="743" y="1671" on="0"/>
        <pt x="829" y="1589" on="0"/>
        <pt x="884" y="1473" on="0"/>
        <pt x="905" y="1353" on="0"/>
        <pt x="905" y="1284" on="1"/>
        <pt x="905" y="1177" on="0"/>
        <pt x="806" y="973" on="0"/>
        <pt x="719" y="933" on="1"/>
        <pt x="780" y="908" on="0"/>
        <pt x="870" y="811" on="0"/>
        <pt x="918" y="691" on="0"/>
        <pt x="940" y="572" on="0"/>
        <pt x="940" y="513" on="1"/>
        <pt x="940" y="423" on="0"/>
        <pt x="923" y="285" on="0"/>
        <pt x="872" y="146" on="0"/>
        <pt x="788" y="56" on="0"/>
        <pt x="644" y="0" on="0"/>
        <pt x="546" y="0" on="1"/>
      </contour>
    </TTGlyph>
    <TTGlyph name="C" xMin="114" yMin="-27" xMax="946" yMax="1745">
      <contour>
        <pt x="114" y="499" on="1"/>
        <pt x="114" y="1220" on="1"/>
        <pt x="114" y="1312" on="0"/>
        <pt x="138" y="1462" on="0"/>
        <pt x="199" y="1598" on="0"/>
        <pt x="295" y="1691" on="0"/>
        <pt x="444" y="1745" on="0"/>
        <pt x="542" y="1745" on="1"/>
        <pt x="946" y="1745" on="0"/>
        <pt x="946" y="1220" on="1"/>
        <pt x="946" y="1150" on="1"/>
        <pt x="801" y="1150" on="1"/>
        <pt x="801" y="1254" on="1"/>
        <pt x="801" y="1337" on="0"/>
        <pt x="776" y="1465" on="0"/>
        <pt x="718" y="1568" on="0"/>
        <pt x="615" y="1623" on="0"/>
        <pt x="542" y="1623" on="1"/>
        <pt x="476" y="1623" on="0"/>
        <pt x="378" y="1586" on="0"/>
        <pt x="317" y="1522" on="0"/>
        <pt x="280" y="1426" on="0"/>
        <pt x="266" y="1321" on="0"/>
        <pt x="266" y="1254" on="1"/>
        <pt x="266" y="465" on="1"/>
        <pt x="266" y="380" on="0"/>
        <pt x="290" y="255" on="0"/>
        <pt x="349" y="150" on="0"/>
        <pt x="461" y="95" on="0"/>
        <pt x="542" y="95" on="1"/>
        <pt x="615" y="95" on="0"/>
        <pt x="718" y="150" on="0"/>
        <pt x="776" y="254" on="0"/>
        <pt x="801" y="382" on="0"/>
        <pt x="801" y="465" on="1"/>
        <pt x="801" y="583" on="1"/>
        <pt x="946" y="583" on="1"/>
        <pt x="946" y="499" on="1"/>
        <pt x="946" y="408" on="0"/>
        <pt x="924" y="258" on="0"/>
        <pt x="867" y="121" on="0"/>
        <pt x="777" y="28" on="0"/>
        <pt x="635" y="-27" on="0"/>
        <pt x="542" y="-27" on="1"/>
        <pt x="442" y="-27" on="0"/>
        <pt x="291" y="28" on="0"/>
        <pt x="196" y="121" on="0"/>
        <pt x="137" y="258" on="0"/>
        <pt x="114" y="407" on="0"/>
      </contour>
    </TTGlyph>
    <TTGlyph name="Cacute" xMin="114" yMin="-27" xMax="946" yMax="2306">
      <component glyphName="acute" x="406" y="584" flags="0x1004"/>
      <component glyphName="C" x="0" y="0" flags="0x1204"/>
    </TTGlyph>
    <TTGlyph name="Ccaron" xMin="114" yMin="-27" xMax="946" yMax="2255">
      <component glyphName="caron" x="219" y="584" flags="0x1004"/>
      <component glyphName="C" x="0" y="0" flags="0x1204"/>
    </TTGlyph>
    <TTGlyph name="Ccedilla" xMin="114" yMin="-408" xMax="946" yMax="1745">
      <component glyphName="cedilla" x="343" y="-14" flags="0x1004"/>
      <component glyphName="C" x="0" y="0" flags="0x1204"/>
    </TTGlyph>
    <TTGlyph name="Ccircumflex" xMin="114" yMin="-27" xMax="946" yMax="2215">
      <component glyphName="circumflex" x="175" y="500" flags="0x1004"/>
      <component glyphName="C" x="0" y="0" flags="0x1204"/>
    </TTGlyph>
    <TTGlyph name="Cdotaccent" xMin="114" yMin="-27" xMax="946" yMax="2087">
      <component glyphName="dotaccent" x="325" y="528" flags="0x1004"/>
      <component glyphName="C" x="0" y="0" flags="0x1204"/>
    </TTGlyph>
    <TTGlyph name="D" xMin="146" yMin="0" xMax="972" yMax="1721">
      <contour>
        <pt x="146" y="0" on="1"/>
        <pt x="146" y="1721" on="1"/>
        <pt x="533" y="1721" on="1"/>
        <pt x="631" y="1721" on="0"/>
        <pt x="783" y="1668" on="0"/>
        <pt x="882" y="1577" on="0"/>
        <pt x="945" y="1445" on="0"/>
        <pt x="972" y="1297" on="0"/>
        <pt x="972" y="1208" on="1"/>
        <pt x="972" y="508" on="1"/>
        <pt x="972" y="0" on="0"/>
        <pt x="533" y="0" on="1"/>
      </contour>
      <contour>
        <pt x="298" y="122" on="1"/>
        <pt x="533" y="122" on="1"/>
        <pt x="820" y="122" on="0"/>
        <pt x="820" y="474" on="1"/>
        <pt x="820" y="1242" on="1"/>
        <pt x="820" y="1599" on="0"/>
        <pt x="533" y="1599" on="1"/>
        <pt x="298" y="1599" on="1"/>
      </contour>
    </TTGlyph>
    <TTGlyph name="Dcaron" xMin="146" yMin="0" xMax="972" yMax="2255">
      <component glyphName="caron" x="248" y="584" flags="0x1004"/>
      <component glyphName="D" x="0" y="0" flags="0x1204"/>
    </TTGlyph>
    <TTGlyph name="Dcroat" xMin="43" yMin="0" xMax="1009" yMax="1721">
      <contour>
        <pt x="335" y="122" on="1"/>
        <pt x="570" y="122" on="1"/>
        <pt x="857" y="122" on="0"/>
        <pt x="857" y="474" on="1"/>
        <pt x="857" y="1242" on="1"/>
        <pt x="857" y="1599" on="0"/>
        <pt x="570" y="1599" on="1"/>
        <pt x="335" y="1599" on="1"/>
        <pt x="335" y="924" on="1"/>
        <pt x="535" y="924" on="1"/>
        <pt x="535" y="830" on="1"/>
        <pt x="335" y="830" on="1"/>
      </contour>
      <contour>
        <pt x="183" y="0" on="1"/>
        <pt x="183" y="830" on="1"/>
        <pt x="43" y="830" on="1"/>
        <pt x="43" y="924" on="1"/>
        <pt x="183" y="924" on="1"/>
        <pt x="183" y="1721" on="1"/>
        <pt x="570" y="1721" on="1"/>
        <pt x="668" y="1721" on="0"/>
        <pt x="820" y="1668" on="0"/>
        <pt x="919" y="1577" on="0"/>
        <pt x="982" y="1445" on="0"/>
        <pt x="1009" y="1297" on="0"/>
        <pt x="1009" y="1208" on="1"/>
        <pt x="1009" y="508" on="1"/>
        <pt x="1009" y="0" on="0"/>
        <pt x="570" y="0" on="1"/>
      </contour>
    </TTGlyph>
    <TTGlyph name="E" xMin="146" yMin="0" xMax="746" yMax="1721">
      <contour>
        <pt x="146" y="0" on="1"/>
        <pt x="146" y="1721" on="1"/>
        <pt x="746" y="1721" on="1"/>
        <pt x="746" y="1599" on="1"/>
        <pt x="298" y="1599" on="1"/>
        <pt x="298" y="947" on="1"/>
        <pt x="618" y="947" on="1"/>
        <pt x="618" y="832" on="1"/>
        <pt x="298" y="832" on="1"/>
        <pt x="298" y="122" on="1"/>
        <pt x="746" y="122" on="1"/>
        <pt x="746" y="0" on="1"/>
      </contour>
    </TTGlyph>
    <TTGlyph name="Eacute" xMin="146" yMin="0" xMax="746" yMax="2306">
      <component glyphName="acute" x="322" y="584" flags="0x1004"/>
      <component glyphName="E" x="0" y="0" flags="0x1204"/>
    </TTGlyph>
    <TTGlyph name="Ecaron" xMin="146" yMin="0" xMax="746" yMax="2255">
      <component glyphName="caron" x="135" y="584" flags="0x1004"/>
      <component glyphName="E" x="0" y="0" flags="0x1204"/>
    </TTGlyph>
    <TTGlyph name="Ecircumflex" xMin="146" yMin="0" xMax="746" yMax="2215">
      <component glyphName="circumflex" x="91" y="500" flags="0x1004"/>
      <component glyphName="E" x="0" y="0" flags="0x1204"/>
    </TTGlyph>
    <TTGlyph name="Edieresis" xMin="146" yMin="0" xMax="746" yMax="2087">
      <component glyphName="dieresis" x="49" y="522" flags="0x1004"/>
      <component glyphName="E" x="0" y="0" flags="0x1204"/>
    </TTGlyph>
    <TTGlyph name="Edotaccent" xMin="146" yMin="0" xMax="746" yMax="2046">
      <component glyphName="dotaccent" x="241" y="487" flags="0x1004"/>
      <component glyphName="E" x="0" y="0" flags="0x1204"/>
    </TTGlyph>
    <TTGlyph name="Egrave" xMin="146" yMin="0" xMax="746" yMax="2306">
      <component glyphName="grave" x="119" y="584" flags="0x1004"/>
      <component glyphName="E" x="0" y="0" flags="0x1204"/>
    </TTGlyph>
    <TTGlyph name="Emacron" xMin="146" yMin="0" xMax="746" yMax="2023">
      <component glyphName="macron" x="94" y="525" flags="0x1004"/>
      <component glyphName="E" x="0" y="0" flags="0x1204"/>
    </TTGlyph>
    <TTGlyph name="Eogonek" xMin="146" yMin="-346" xMax="746" yMax="1721">
      <component glyphName="ogonek" x="193" y="12" flags="0x1004"/>
      <component glyphName="E" x="0" y="0" flags="0x1004"/>
    </TTGlyph>
    <TTGlyph name="Eth" xMin="43" yMin="0" xMax="1009" yMax="1721">
      <contour>
        <pt x="335" y="122" on="1"/>
        <pt x="570" y="122" on="1"/>
        <pt x="857" y="122" on="0"/>
        <pt x="857" y="474" on="1"/>
        <pt x="857" y="1242" on="1"/>
        <pt x="857" y="1599" on="0"/>
        <pt x="570" y="1599" on="1"/>
        <pt x="335" y="1599" on="1"/>
        <pt x="335" y="924" on="1"/>
        <pt x="535" y="924" on="1"/>
        <pt x="535" y="830" on="1"/>
        <pt x="335" y="830" on="1"/>
      </contour>
      <contour>
        <pt x="183" y="0" on="1"/>
        <pt x="183" y="830" on="1"/>
        <pt x="43" y="830" on="1"/>
        <pt x="43" y="924" on="1"/>
        <pt x="183" y="924" on="1"/>
        <pt x="183" y="1721" on="1"/>
        <pt x="570" y="1721" on="1"/>
        <pt x="668" y="1721" on="0"/>
        <pt x="820" y="1668" on="0"/>
        <pt x="919" y="1577" on="0"/>
        <pt x="982" y="1445" on="0"/>
        <pt x="1009" y="1297" on="0"/>
        <pt x="1009" y="1208" on="1"/>
        <pt x="1009" y="508" on="1"/>
        <pt x="1009" y="0" on="0"/>
        <pt x="570" y="0" on="1"/>
      </contour>
    </TTGlyph>
    <TTGlyph name="Euro" xMin="41" yMin="-27" xMax="1004" yMax="1745">
      <contour>
        <pt x="163" y="499" on="1"/>
        <pt x="163" y="695" on="1"/>
        <pt x="41" y="695" on="1"/>
        <pt x="41" y="784" on="1"/>
        <pt x="163" y="784" on="1"/>
        <pt x="163" y="916" on="1"/>
        <pt x="41" y="916" on="1"/>
        <pt x="41" y="1005" on="1"/>
        <pt x="163" y="1005" on="1"/>
        <pt x="163" y="1220" on="1"/>
        <pt x="163" y="1745" on="0"/>
        <pt x="600" y="1745" on="1"/>
        <pt x="1004" y="1745" on="0"/>
        <pt x="1004" y="1220" on="1"/>
        <pt x="1004" y="1150" on="1"/>
        <pt x="859" y="1150" on="1"/>
        <pt x="859" y="1254" on="1"/>
        <pt x="859" y="1337" on="0"/>
        <pt x="834" y="1465" on="0"/>
        <pt x="776" y="1568" on="0"/>
        <pt x="673" y="1623" on="0"/>
        <pt x="600" y="1623" on="1"/>
        <pt x="519" y="1623" on="0"/>
        <pt x="404" y="1568" on="0"/>
        <pt x="342" y="1465" on="0"/>
        <pt x="315" y="1337" on="0"/>
        <pt x="315" y="1254" on="1"/>
        <pt x="315" y="1005" on="1"/>
        <pt x="583" y="1005" on="1"/>
        <pt x="583" y="916" on="1"/>
        <pt x="315" y="916" on="1"/>
        <pt x="315" y="784" on="1"/>
        <pt x="583" y="784" on="1"/>
        <pt x="583" y="695" on="1"/>
        <pt x="315" y="695" on="1"/>
        <pt x="315" y="465" on="1"/>
        <pt x="315" y="382" on="0"/>
        <pt x="342" y="254" on="0"/>
        <pt x="404" y="150" on="0"/>
        <pt x="519" y="95" on="0"/>
        <pt x="600" y="95" on="1"/>
        <pt x="673" y="95" on="0"/>
        <pt x="776" y="150" on="0"/>
        <pt x="834" y="254" on="0"/>
        <pt x="859" y="382" on="0"/>
        <pt x="859" y="465" on="1"/>
        <pt x="859" y="583" on="1"/>
        <pt x="1004" y="583" on="1"/>
        <pt x="1004" y="499" on="1"/>
        <pt x="1004" y="408" on="0"/>
        <pt x="982" y="258" on="0"/>
        <pt x="925" y="121" on="0"/>
        <pt x="835" y="28" on="0"/>
        <pt x="693" y="-27" on="0"/>
        <pt x="600" y="-27" on="1"/>
        <pt x="500" y="-27" on="0"/>
        <pt x="347" y="28" on="0"/>
        <pt x="249" y="121" on="0"/>
        <pt x="188" y="258" on="0"/>
        <pt x="163" y="408" on="0"/>
      </contour>
    </TTGlyph>
    <TTGlyph name="F" xMin="146" yMin="0" xMax="751" yMax="1721">
      <contour>
        <pt x="146" y="0" on="1"/>
        <pt x="146" y="1721" on="1"/>
        <pt x="751" y="1721" on="1"/>
        <pt x="751" y="1599" on="1"/>
        <pt x="298" y="1599" on="1"/>
        <pt x="298" y="947" on="1"/>
        <pt x="654" y="947" on="1"/>
        <pt x="654" y="832" on="1"/>
        <pt x="298" y="832" on="1"/>
        <pt x="298" y="0" on="1"/>
      </contour>
    </TTGlyph>
    <TTGlyph name="G" xMin="114" yMin="-27" xMax="975" yMax="1745">
      <contour>
        <pt x="114" y="481" on="1"/>
        <pt x="114" y="1211" on="1"/>
        <pt x="114" y="1745" on="0"/>
        <pt x="567" y="1745" on="1"/>
        <pt x="639" y="1745" on="0"/>
        <pt x="756" y="1713" on="0"/>
        <pt x="837" y="1658" on="0"/>
        <pt x="898" y="1572" on="0"/>
        <pt x="934" y="1480" on="0"/>
        <pt x="956" y="1357" on="0"/>
        <pt x="964" y="1242" on="0"/>
        <pt x="964" y="1171" on="1"/>
        <pt x="964" y="1159" on="1"/>
        <pt x="812" y="1159" on="1"/>
        <pt x="812" y="1172" on="1"/>
        <pt x="812" y="1176" on="0"/>
        <pt x="812" y="1185" on="1"/>
        <pt x="812" y="1258" on="0"/>
        <pt x="809" y="1333" on="0"/>
        <pt x="797" y="1456" on="0"/>
        <pt x="765" y="1521" on="0"/>
        <pt x="713" y="1592" on="0"/>
        <pt x="625" y="1623" on="0"/>
        <pt x="565" y="1623" on="1"/>
        <pt x="481" y="1623" on="0"/>
        <pt x="361" y="1566" on="0"/>
        <pt x="295" y="1464" on="0"/>
        <pt x="266" y="1346" on="0"/>
        <pt x="266" y="1275" on="1"/>
        <pt x="266" y="415" on="1"/>
        <pt x="266" y="349" on="0"/>
        <pt x="290" y="244" on="0"/>
        <pt x="349" y="148" on="0"/>
        <pt x="467" y="95" on="0"/>
        <pt x="553" y="95" on="1"/>
        <pt x="632" y="95" on="0"/>
        <pt x="744" y="151" on="0"/>
        <pt x="800" y="248" on="0"/>
        <pt x="823" y="352" on="0"/>
        <pt x="823" y="415" on="1"/>
        <pt x="823" y="706" on="1"/>
        <pt x="612" y="706" on="1"/>
        <pt x="612" y="821" on="1"/>
        <pt x="975" y="821" on="1"/>
        <pt x="975" y="0" on="1"/>
        <pt x="908" y="0" on="1"/>
        <pt x="863" y="168" on="1"/>
        <pt x="829" y="79" on="0"/>
        <pt x="656" y="-27" on="0"/>
        <pt x="551" y="-27" on="1"/>
        <pt x="482" y="-27" on="0"/>
        <pt x="367" y="-2" on="0"/>
        <pt x="283" y="38" on="0"/>
        <pt x="216" y="101" on="0"/>
        <pt x="173" y="163" on="0"/>
        <pt x="141" y="245" on="0"/>
        <pt x="125" y="311" on="0"/>
        <pt x="116" y="395" on="0"/>
        <pt x="114" y="447" on="0"/>
      </contour>
    </TTGlyph>
    <TTGlyph name="Gbreve" xMin="114" yMin="-27" xMax="975" yMax="2176">
      <component glyphName="breve" x="176" y="595" flags="0x1004"/>
      <component glyphName="G" x="0" y="0" flags="0x1204"/>
    </TTGlyph>
    <TTGlyph name="Gcircumflex" xMin="114" yMin="-27" xMax="975" yMax="2215">
      <component glyphName="circumflex" x="190" y="500" flags="0x1004"/>
      <component glyphName="G" x="0" y="0" flags="0x1204"/>
    </TTGlyph>
    <TTGlyph name="Gcommaaccent" xMin="114" yMin="-625" xMax="975" yMax="1745">
      <component glyphName="uni0326" x="296" y="-103" flags="0x1004"/>
      <component glyphName="G" x="0" y="0" flags="0x1204"/>
    </TTGlyph>
    <TTGlyph name="Gdotaccent" xMin="114" yMin="-27" xMax="975" yMax="2087">
      <component glyphName="dotaccent" x="340" y="528" flags="0x1004"/>
      <component glyphName="G" x="0" y="0" flags="0x1204"/>
    </TTGlyph>
    <TTGlyph name="H" xMin="146" yMin="0" xMax="980" yMax="1721">
      <contour>
        <pt x="146" y="0" on="1"/>
        <pt x="146" y="1721" on="1"/>
        <pt x="298" y="1721" on="1"/>
        <pt x="298" y="942" on="1"/>
        <pt x="828" y="942" on="1"/>
        <pt x="828" y="1721" on="1"/>
        <pt x="980" y="1721" on="1"/>
        <pt x="980" y="0" on="1"/>
        <pt x="828" y="0" on="1"/>
        <pt x="828" y="836" on="1"/>
        <pt x="298" y="836" on="1"/>
        <pt x="298" y="0" on="1"/>
      </contour>
    </TTGlyph>
    <TTGlyph name="Hbar" xMin="100" yMin="0" xMax="1014" yMax="1721">
      <contour>
        <pt x="292" y="942" on="1"/>
        <pt x="822" y="942" on="1"/>
        <pt x="822" y="1331" on="1"/>
        <pt x="292" y="1331" on="1"/>
      </contour>
      <contour>
        <pt x="140" y="0" on="1"/>
        <pt x="140" y="1331" on="1"/>
        <pt x="100" y="1331" on="1"/>
        <pt x="100" y="1425" on="1"/>
        <pt x="140" y="1425" on="1"/>
        <pt x="140" y="1721" on="1"/>
        <pt x="292" y="1721" on="1"/>
        <pt x="292" y="1425" on="1"/>
        <pt x="822" y="1425" on="1"/>
        <pt x="822" y="1721" on="1"/>
        <pt x="974" y="1721" on="1"/>
        <pt x="974" y="1425" on="1"/>
        <pt x="1014" y="1425" on="1"/>
        <pt x="1014" y="1331" on="1"/>
        <pt x="974" y="1331" on="1"/>
        <pt x="974" y="0" on="1"/>
        <pt x="822" y="0" on="1"/>
        <pt x="822" y="836" on="1"/>
        <pt x="292" y="836" on="1"/>
        <pt x="292" y="0" on="1"/>
      </contour>
    </TTGlyph>
    <TTGlyph name="Hcircumflex" xMin="146" yMin="0" xMax="980" yMax="2215">
      <component glyphName="circumflex" x="208" y="500" flags="0x1004"/>
      <component glyphName="H" x="0" y="0" flags="0x1204"/>
    </TTGlyph>
    <TTGlyph name="I" xMin="145" yMin="0" xMax="297" yMax="1721">
      <contour>
        <pt x="145" y="0" on="1"/>
        <pt x="145" y="1721" on="1"/>
        <pt x="297" y="1721" on="1"/>
        <pt x="297" y="0" on="1"/>
      </contour>
    </TTGlyph>
    <TTGlyph name="IJ" xMin="145" yMin="0" xMax="864" yMax="1721">
      <component glyphName="J" x="444" y="0" flags="0x1004"/>
      <component glyphName="I" x="0" y="0" flags="0x1004"/>
    </TTGlyph>
    <TTGlyph name="Iacute" xMin="145" yMin="0" xMax="478" yMax="2306">
      <component glyphName="acute" x="97" y="584" flags="0x1004"/>
      <component glyphName="I" x="0" y="0" flags="0x1204"/>
    </TTGlyph>
    <TTGlyph name="Ibreve" xMin="-55" yMin="0" xMax="497" yMax="2176">
      <component glyphName="breve" x="-147" y="595" flags="0x1004"/>
      <component glyphName="I" x="0" y="0" flags="0x1204"/>
    </TTGlyph>
    <TTGlyph name="Icircumflex" xMin="-40" yMin="0" xMax="482" yMax="2215">
      <component glyphName="circumflex" x="-134" y="500" flags="0x1004"/>
      <component glyphName="I" x="0" y="0" flags="0x1204"/>
    </TTGlyph>
    <TTGlyph name="Idieresis" xMin="-63" yMin="0" xMax="505" yMax="2087">
      <component glyphName="dieresis" x="-176" y="522" flags="0x1004"/>
      <component glyphName="I" x="0" y="0" flags="0x1204"/>
    </TTGlyph>
    <TTGlyph name="Idotaccent" xMin="129" yMin="0" xMax="313" yMax="2087">
      <component glyphName="dotaccent" x="16" y="528" flags="0x1004"/>
      <component glyphName="I" x="0" y="0" flags="0x1204"/>
    </TTGlyph>
    <TTGlyph name="Igrave" xMin="-36" yMin="0" xMax="297" yMax="2306">
      <component glyphName="grave" x="-106" y="584" flags="0x1004"/>
      <component glyphName="I" x="0" y="0" flags="0x1204"/>
    </TTGlyph>
    <TTGlyph name="Imacron" xMin="1" yMin="0" xMax="442" yMax="2023">
      <component glyphName="macron" x="-130" y="525" flags="0x1004"/>
      <component glyphName="I" x="0" y="0" flags="0x1204"/>
    </TTGlyph>
    <TTGlyph name="Iogonek" xMin="32" yMin="-346" xMax="312" yMax="1721">
      <component glyphName="ogonek" x="-66" y="12" flags="0x1004"/>
      <component glyphName="I" x="0" y="0" flags="0x1204"/>
    </TTGlyph>
    <TTGlyph name="Itilde" xMin="-56" yMin="0" xMax="498" yMax="2107">
      <component glyphName="tilde" x="-158" y="544" flags="0x1004"/>
      <component glyphName="I" x="0" y="0" flags="0x1204"/>
    </TTGlyph>
    <TTGlyph name="J" xMin="12" yMin="0" xMax="420" yMax="1721">
      <contour>
        <pt x="12" y="0" on="1"/>
        <pt x="12" y="115" on="1"/>
        <pt x="63" y="115" on="0"/>
        <pt x="119" y="116" on="0"/>
        <pt x="182" y="126" on="0"/>
        <pt x="211" y="139" on="0"/>
        <pt x="244" y="173" on="0"/>
        <pt x="255" y="210" on="0"/>
        <pt x="266" y="279" on="0"/>
        <pt x="268" y="352" on="0"/>
        <pt x="268" y="410" on="1"/>
        <pt x="268" y="1721" on="1"/>
        <pt x="420" y="1721" on="1"/>
        <pt x="420" y="410" on="1"/>
        <pt x="420" y="332" on="0"/>
        <pt x="413" y="230" on="0"/>
        <pt x="390" y="128" on="0"/>
        <pt x="346" y="69" on="0"/>
        <pt x="273" y="20" on="0"/>
        <pt x="165" y="0" on="0"/>
        <pt x="91" y="0" on="1"/>
      </contour>
    </TTGlyph>
    <TTGlyph name="Jcircumflex" xMin="12" yMin="0" xMax="570" yMax="2215">
      <component glyphName="circumflex" x="-46" y="500" flags="0x1004"/>
      <component glyphName="J" x="0" y="0" flags="0x1204"/>
    </TTGlyph>
    <TTGlyph name="K" xMin="146" yMin="0" xMax="995" yMax="1721">
      <contour>
        <pt x="146" y="0" on="1"/>
        <pt x="146" y="1721" on="1"/>
        <pt x="298" y="1721" on="1"/>
        <pt x="298" y="816" on="1"/>
        <pt x="757" y="1721" on="1"/>
        <pt x="914" y="1721" on="1"/>
        <pt x="558" y="1011" on="1"/>
        <pt x="995" y="0" on="1"/>
        <pt x="834" y="0" on="1"/>
        <pt x="466" y="909" on="1"/>
        <pt x="298" y="607" on="1"/>
        <pt x="298" y="0" on="1"/>
      </contour>
    </TTGlyph>
    <TTGlyph name="Kcommaaccent" xMin="146" yMin="-598" xMax="995" yMax="1721">
      <component glyphName="uni0326" x="322" y="-76" flags="0x1004"/>
      <component glyphName="K" x="0" y="0" flags="0x1204"/>
    </TTGlyph>
    <TTGlyph name="L" xMin="146" yMin="0" xMax="779" yMax="1721">
      <contour>
        <pt x="146" y="0" on="1"/>
        <pt x="146" y="1721" on="1"/>
        <pt x="298" y="1721" on="1"/>
        <pt x="298" y="122" on="1"/>
        <pt x="779" y="122" on="1"/>
        <pt x="779" y="0" on="1"/>
      </contour>
    </TTGlyph>
    <TTGlyph name="Lacute" xMin="146" yMin="0" xMax="779" yMax="2306">
      <component glyphName="acute" x="338" y="584" flags="0x1004"/>
      <component glyphName="L" x="0" y="0" flags="0x1204"/>
    </TTGlyph>
    <TTGlyph name="Lcaron" xMin="146" yMin="0" xMax="1208" yMax="1745">
      <component glyphName="comma" x="912" y="1566" flags="0x1004"/>
      <component glyphName="L" x="0" y="0" flags="0x1004"/>
    </TTGlyph>
    <TTGlyph name="Lcommaaccent" xMin="146" yMin="-598" xMax="779" yMax="1721">
      <component glyphName="uni0326" x="214" y="-76" flags="0x1004"/>
      <component glyphName="L" x="0" y="0" flags="0x1204"/>
    </TTGlyph>
    <TTGlyph name="Ldot" xMin="146" yMin="0" xMax="779" yMax="1721">
      <component glyphName="periodcentered" x="369" y="79" flags="0x1004"/>
      <component glyphName="L" x="0" y="0" flags="0x1204"/>
    </TTGlyph>
    <TTGlyph name="Lslash" xMin="43" yMin="0" xMax="816" yMax="1721">
      <contour>
        <pt x="183" y="0" on="1"/>
        <pt x="183" y="859" on="1"/>
        <pt x="43" y="806" on="1"/>
        <pt x="43" y="921" on="1"/>
        <pt x="183" y="974" on="1"/>
        <pt x="183" y="1721" on="1"/>
        <pt x="335" y="1721" on="1"/>
        <pt x="335" y="1031" on="1"/>
        <pt x="586" y="1127" on="1"/>
        <pt x="586" y="1012" on="1"/>
        <pt x="335" y="916" on="1"/>
        <pt x="335" y="122" on="1"/>
        <pt x="816" y="122" on="1"/>
        <pt x="816" y="0" on="1"/>
      </contour>
    </TTGlyph>
    <TTGlyph name="M" xMin="146" yMin="0" xMax="1184" yMax="1721">
      <contour>
        <pt x="146" y="0" on="1"/>
        <pt x="146" y="1721" on="1"/>
        <pt x="333" y="1721" on="1"/>
        <pt x="665" y="235" on="1"/>
        <pt x="726" y="527" on="0"/>
        <pt x="928" y="1372" on="0"/>
        <pt x="997" y="1721" on="1"/>
        <pt x="1184" y="1721" on="1"/>
        <pt x="1184" y="0" on="1"/>
        <pt x="1049" y="0" on="1"/>
        <pt x="1049" y="1377" on="1"/>
        <pt x="731" y="0" on="1"/>
        <pt x="599" y="0" on="1"/>
        <pt x="281" y="1376" on="1"/>
        <pt x="281" y="0" on="1"/>
      </contour>
    </TTGlyph>
    <TTGlyph name="N" xMin="146" yMin="0" xMax="937" yMax="1721">
      <contour>
        <pt x="146" y="0" on="1"/>
        <pt x="146" y="1721" on="1"/>
        <pt x="263" y="1721" on="1"/>
        <pt x="808" y="358" on="1"/>
        <pt x="808" y="1721" on="1"/>
        <pt x="937" y="1721" on="1"/>
        <pt x="937" y="0" on="1"/>
        <pt x="823" y="0" on="1"/>
        <pt x="277" y="1334" on="1"/>
        <pt x="277" y="0" on="1"/>
      </contour>
    </TTGlyph>
    <TTGlyph name="Nacute" xMin="146" yMin="0" xMax="937" yMax="2306">
      <component glyphName="acute" x="418" y="584" flags="0x1004"/>
      <component glyphName="N" x="0" y="0" flags="0x1204"/>
    </TTGlyph>
    <TTGlyph name="Ncaron" xMin="146" yMin="0" xMax="937" yMax="2255">
      <component glyphName="caron" x="230" y="584" flags="0x1004"/>
      <component glyphName="N" x="0" y="0" flags="0x1204"/>
    </TTGlyph>
    <TTGlyph name="Ncommaaccent" xMin="146" yMin="-598" xMax="937" yMax="1721">
      <component glyphName="uni0326" x="293" y="-76" flags="0x1004"/>
      <component glyphName="N" x="0" y="0" flags="0x1204"/>
    </TTGlyph>
    <TTGlyph name="Ntilde" xMin="146" yMin="0" xMax="937" yMax="2107">
      <component glyphName="tilde" x="162" y="544" flags="0x1004"/>
      <component glyphName="N" x="0" y="0" flags="0x1204"/>
    </TTGlyph>
    <TTGlyph name="O" xMin="114" yMin="-27" xMax="992" yMax="1745">
      <contour>
        <pt x="114" y="499" on="1"/>
        <pt x="114" y="1220" on="1"/>
        <pt x="114" y="1311" on="0"/>
        <pt x="141" y="1463" on="0"/>
        <pt x="205" y="1598" on="0"/>
        <pt x="303" y="1691" on="0"/>
        <pt x="455" y="1745" on="0"/>
        <pt x="651" y="1745" on="0"/>
        <pt x="803" y="1691" on="0"/>
        <pt x="901" y="1598" on="0"/>
        <pt x="965" y="1463" on="0"/>
        <pt x="992" y="1311" on="0"/>
        <pt x="992" y="1220" on="1"/>
        <pt x="992" y="499" on="1"/>
        <pt x="992" y="-27" on="0"/>
        <pt x="114" y="-27" on="0"/>
      </contour>
      <contour>
        <pt x="840" y="465" on="1"/>
        <pt x="840" y="1254" on="1"/>
        <pt x="840" y="1623" on="0"/>
        <pt x="266" y="1623" on="0"/>
        <pt x="266" y="1254" on="1"/>
        <pt x="266" y="465" on="1"/>
        <pt x="266" y="95" on="0"/>
        <pt x="840" y="95" on="0"/>
      </contour>
    </TTGlyph>
    <TTGlyph name="OE" xMin="115" yMin="0" xMax="1441" yMax="1721">
      <contour>
        <pt x="554" y="121" on="1"/>
        <pt x="841" y="121" on="1"/>
        <pt x="841" y="1599" on="1"/>
        <pt x="554" y="1599" on="1"/>
        <pt x="473" y="1599" on="0"/>
        <pt x="358" y="1547" on="0"/>
        <pt x="295" y="1449" on="0"/>
        <pt x="267" y="1330" on="0"/>
        <pt x="267" y="1254" on="1"/>
        <pt x="267" y="465" on="1"/>
        <pt x="267" y="124" on="0"/>
      </contour>
      <contour>
        <pt x="115" y="499" on="1"/>
        <pt x="115" y="1220" on="1"/>
        <pt x="115" y="1721" on="0"/>
        <pt x="554" y="1721" on="1"/>
        <pt x="1441" y="1721" on="1"/>
        <pt x="1441" y="1599" on="1"/>
        <pt x="993" y="1599" on="1"/>
        <pt x="993" y="947" on="1"/>
        <pt x="1313" y="947" on="1"/>
        <pt x="1313" y="832" on="1"/>
        <pt x="993" y="832" on="1"/>
        <pt x="993" y="122" on="1"/>
        <pt x="1441" y="122" on="1"/>
        <pt x="1441" y="0" on="1"/>
        <pt x="554" y="0" on="1"/>
        <pt x="115" y="0" on="0"/>
      </contour>
    </TTGlyph>
    <TTGlyph name="Oacute" xMin="114" yMin="-27" xMax="992" yMax="2306">
      <component glyphName="acute" x="429" y="584" flags="0x1004"/>
      <component glyphName="O" x="0" y="0" flags="0x1204"/>
    </TTGlyph>
    <TTGlyph name="Obreve" xMin="114" yMin="-27" xMax="992" yMax="2176">
      <component glyphName="breve" x="185" y="595" flags="0x1004"/>
      <component glyphName="O" x="0" y="0" flags="0x1204"/>
    </TTGlyph>
    <TTGlyph name="Ocircumflex" xMin="114" yMin="-27" xMax="992" yMax="2215">
      <component glyphName="circumflex" x="198" y="500" flags="0x1004"/>
      <component glyphName="O" x="0" y="0" flags="0x1204"/>
    </TTGlyph>
    <TTGlyph name="Odieresis" xMin="114" yMin="-27" xMax="992" yMax="2087">
      <component glyphName="dieresis" x="156" y="522" flags="0x1004"/>
      <component glyphName="O" x="0" y="0" flags="0x1204"/>
    </TTGlyph>
    <TTGlyph name="Ograve" xMin="114" yMin="-27" xMax="992" yMax="2306">
      <component glyphName="grave" x="226" y="584" flags="0x1004"/>
      <component glyphName="O" x="0" y="0" flags="0x1204"/>
    </TTGlyph>
    <TTGlyph name="Ohungarumlaut" xMin="114" yMin="-27" xMax="992" yMax="2221">
      <component glyphName="hungarumlaut" x="308" y="500" flags="0x1004"/>
      <component glyphName="O" x="0" y="0" flags="0x1204"/>
    </TTGlyph>
    <TTGlyph name="Omacron" xMin="114" yMin="-27" xMax="992" yMax="2023">
      <component glyphName="macron" x="202" y="525" flags="0x1004"/>
      <component glyphName="O" x="0" y="0" flags="0x1204"/>
    </TTGlyph>
    <TTGlyph name="Oslash" xMin="114" yMin="-152" xMax="992" yMax="1870">
      <contour>
        <pt x="992" y="499" on="1"/>
        <pt x="992" y="-27" on="0"/>
        <pt x="553" y="-27" on="1"/>
        <pt x="416" y="-27" on="0"/>
        <pt x="320" y="25" on="1"/>
        <pt x="263" y="-152" on="1"/>
        <pt x="199" y="-132" on="1"/>
        <pt x="262" y="65" on="1"/>
        <pt x="114" y="193" on="0"/>
        <pt x="114" y="499" on="1"/>
        <pt x="114" y="1220" on="1"/>
        <pt x="114" y="1311" on="0"/>
        <pt x="141" y="1463" on="0"/>
        <pt x="205" y="1598" on="0"/>
        <pt x="303" y="1691" on="0"/>
        <pt x="455" y="1745" on="0"/>
        <pt x="553" y="1745" on="1"/>
        <pt x="690" y="1745" on="0"/>
        <pt x="785" y="1692" on="1"/>
        <pt x="842" y="1870" on="1"/>
        <pt x="907" y="1850" on="1"/>
        <pt x="843" y="1652" on="1"/>
        <pt x="992" y="1522" on="0"/>
        <pt x="992" y="1220" on="1"/>
      </contour>
      <contour>
        <pt x="553" y="95" on="1"/>
        <pt x="840" y="95" on="0"/>
        <pt x="840" y="465" on="1"/>
        <pt x="840" y="1254" on="1"/>
        <pt x="840" y="1405" on="0"/>
        <pt x="793" y="1495" on="1"/>
        <pt x="363" y="159" on="1"/>
        <pt x="433" y="95" on="0"/>
      </contour>
      <contour>
        <pt x="266" y="1254" on="1"/>
        <pt x="266" y="465" on="1"/>
        <pt x="266" y="314" on="0"/>
        <pt x="313" y="224" on="1"/>
        <pt x="742" y="1560" on="1"/>
        <pt x="674" y="1623" on="0"/>
        <pt x="553" y="1623" on="1"/>
        <pt x="266" y="1623" on="0"/>
      </contour>
    </TTGlyph>
    <TTGlyph name="Otilde" xMin="114" yMin="-27" xMax="992" yMax="2107">
      <component glyphName="tilde" x="174" y="544" flags="0x1004"/>
      <component glyphName="O" x="0" y="0" flags="0x1204"/>
    </TTGlyph>
    <TTGlyph name="P" xMin="146" yMin="0" xMax="974" yMax="1721">
      <contour>
        <pt x="298" y="887" on="1"/>
        <pt x="584" y="886" on="1"/>
        <pt x="712" y="885" on="0"/>
        <pt x="822" y="1064" on="0"/>
        <pt x="822" y="1255" on="1"/>
        <pt x="822" y="1433" on="0"/>
        <pt x="704" y="1599" on="0"/>
        <pt x="584" y="1599" on="1"/>
        <pt x="298" y="1599" on="1"/>
      </contour>
      <contour>
        <pt x="146" y="0" on="1"/>
        <pt x="146" y="1721" on="1"/>
        <pt x="567" y="1721" on="1"/>
        <pt x="657" y="1721" on="0"/>
        <pt x="797" y="1672" on="0"/>
        <pt x="889" y="1588" on="0"/>
        <pt x="949" y="1468" on="0"/>
        <pt x="974" y="1335" on="0"/>
        <pt x="974" y="1258" on="1"/>
        <pt x="974" y="1179" on="0"/>
        <pt x="953" y="1045" on="0"/>
        <pt x="896" y="913" on="0"/>
        <pt x="807" y="822" on="0"/>
        <pt x="661" y="765" on="0"/>
        <pt x="566" y="765" on="1"/>
        <pt x="298" y="765" on="1"/>
        <pt x="298" y="0" on="1"/>
      </contour>
    </TTGlyph>
    <TTGlyph name="Q" xMin="114" yMin="-212" xMax="999" yMax="1745">
      <contour>
        <pt x="840" y="465" on="1"/>
        <pt x="840" y="1254" on="1"/>
        <pt x="840" y="1623" on="0"/>
        <pt x="266" y="1623" on="0"/>
        <pt x="266" y="1254" on="1"/>
        <pt x="266" y="465" on="1"/>
        <pt x="266" y="95" on="0"/>
        <pt x="840" y="95" on="0"/>
      </contour>
      <contour>
        <pt x="114" y="499" on="1"/>
        <pt x="114" y="1220" on="1"/>
        <pt x="114" y="1311" on="0"/>
        <pt x="141" y="1463" on="0"/>
        <pt x="205" y="1598" on="0"/>
        <pt x="303" y="1691" on="0"/>
        <pt x="455" y="1745" on="0"/>
        <pt x="651" y="1745" on="0"/>
        <pt x="803" y="1691" on="0"/>
        <pt x="901" y="1598" on="0"/>
        <pt x="965" y="1463" on="0"/>
        <pt x="992" y="1311" on="0"/>
        <pt x="992" y="1220" on="1"/>
        <pt x="992" y="499" on="1"/>
        <pt x="992" y="139" on="0"/>
        <pt x="787" y="25" on="1"/>
        <pt x="825" y="-9" on="0"/>
        <pt x="875" y="-49" on="0"/>
        <pt x="958" y="-92" on="0"/>
        <pt x="999" y="-98" on="1"/>
        <pt x="999" y="-212" on="1"/>
        <pt x="916" y="-200" on="0"/>
        <pt x="769" y="-98" on="0"/>
        <pt x="691" y="-11" on="1"/>
        <pt x="625" y="-27" on="0"/>
        <pt x="553" y="-27" on="1"/>
        <pt x="114" y="-27" on="0"/>
      </contour>
    </TTGlyph>
    <TTGlyph name="R" xMin="146" yMin="0" xMax="1000" yMax="1721">
      <contour>
        <pt x="298" y="962" on="1"/>
        <pt x="604" y="962" on="1"/>
        <pt x="669" y="962" on="0"/>
        <pt x="759" y="1014" on="0"/>
        <pt x="804" y="1110" on="0"/>
        <pt x="822" y="1214" on="0"/>
        <pt x="822" y="1281" on="1"/>
        <pt x="822" y="1336" on="0"/>
        <pt x="811" y="1424" on="0"/>
        <pt x="782" y="1508" on="0"/>
        <pt x="734" y="1565" on="0"/>
        <pt x="656" y="1599" on="0"/>
        <pt x="604" y="1599" on="1"/>
        <pt x="298" y="1599" on="1"/>
      </contour>
      <contour>
        <pt x="146" y="0" on="1"/>
        <pt x="146" y="1721" on="1"/>
        <pt x="605" y="1721" on="1"/>
        <pt x="692" y="1721" on="0"/>
        <pt x="824" y="1673" on="0"/>
        <pt x="905" y="1594" on="0"/>
        <pt x="955" y="1477" on="0"/>
        <pt x="974" y="1352" on="0"/>
        <pt x="974" y="1276" on="1"/>
        <pt x="974" y="947" on="0"/>
        <pt x="734" y="859" on="1"/>
        <pt x="1000" y="0" on="1"/>
        <pt x="838" y="0" on="1"/>
        <pt x="587" y="840" on="1"/>
        <pt x="298" y="840" on="1"/>
        <pt x="298" y="0" on="1"/>
      </contour>
    </TTGlyph>
    <TTGlyph name="Racute" xMin="146" yMin="0" xMax="1000" yMax="2306">
      <component glyphName="acute" x="449" y="584" flags="0x1004"/>
      <component glyphName="R" x="0" y="0" flags="0x1204"/>
    </TTGlyph>
    <TTGlyph name="Rcaron" xMin="146" yMin="0" xMax="1000" yMax="2255">
      <component glyphName="caron" x="262" y="584" flags="0x1004"/>
      <component glyphName="R" x="0" y="0" flags="0x1204"/>
    </TTGlyph>
    <TTGlyph name="Rcommaaccent" xMin="146" yMin="-598" xMax="1000" yMax="1721">
      <component glyphName="uni0326" x="324" y="-76" flags="0x1004"/>
      <component glyphName="R" x="0" y="0" flags="0x1204"/>
    </TTGlyph>
    <TTGlyph name="S" xMin="68" yMin="-27" xMax="899" yMax="1745">
      <contour>
        <pt x="68" y="415" on="1"/>
        <pt x="202" y="454" on="1"/>
        <pt x="210" y="382" on="0"/>
        <pt x="251" y="260" on="0"/>
        <pt x="321" y="155" on="0"/>
        <pt x="436" y="95" on="0"/>
        <pt x="509" y="95" on="1"/>
        <pt x="626" y="95" on="0"/>
        <pt x="754" y="225" on="0"/>
        <pt x="754" y="344" on="1"/>
        <pt x="754" y="443" on="0"/>
        <pt x="637" y="627" on="0"/>
        <pt x="523" y="747" on="1"/>
        <pt x="254" y="1030" on="1"/>
        <pt x="166" y="1123" on="0"/>
        <pt x="72" y="1285" on="0"/>
        <pt x="72" y="1374" on="1"/>
        <pt x="72" y="1543" on="0"/>
        <pt x="294" y="1745" on="0"/>
        <pt x="468" y="1745" on="1"/>
        <pt x="637" y="1745" on="0"/>
        <pt x="843" y="1554" on="0"/>
        <pt x="877" y="1372" on="1"/>
        <pt x="880" y="1356" on="1"/>
        <pt x="752" y="1316" on="1"/>
        <pt x="750" y="1330" on="1"/>
        <pt x="730" y="1459" on="0"/>
        <pt x="585" y="1623" on="0"/>
        <pt x="468" y="1623" on="1"/>
        <pt x="354" y="1623" on="0"/>
        <pt x="219" y="1507" on="0"/>
        <pt x="219" y="1394" on="1"/>
        <pt x="219" y="1326" on="0"/>
        <pt x="292" y="1194" on="0"/>
        <pt x="360" y="1120" on="1"/>
        <pt x="613" y="845" on="1"/>
        <pt x="623" y="834" on="0"/>
        <pt x="703" y="747" on="0"/>
        <pt x="728" y="719" on="0"/>
        <pt x="795" y="639" on="0"/>
        <pt x="820" y="598" on="0"/>
        <pt x="866" y="523" on="0"/>
        <pt x="883" y="467" on="0"/>
        <pt x="899" y="393" on="0"/>
        <pt x="899" y="357" on="1"/>
        <pt x="899" y="173" on="0"/>
        <pt x="672" y="-27" on="0"/>
        <pt x="492" y="-27" on="1"/>
        <pt x="400" y="-27" on="0"/>
        <pt x="250" y="44" on="0"/>
        <pt x="147" y="168" on="0"/>
        <pt x="82" y="324" on="0"/>
      </contour>
    </TTGlyph>
    <TTGlyph name="Sacute" xMin="68" yMin="-27" xMax="899" yMax="2306">
      <component glyphName="acute" x="360" y="584" flags="0x1004"/>
      <component glyphName="S" x="0" y="0" flags="0x1204"/>
    </TTGlyph>
    <TTGlyph name="Scaron" xMin="68" yMin="-27" xMax="899" yMax="2255">
      <component glyphName="caron" x="172" y="584" flags="0x1004"/>
      <component glyphName="S" x="0" y="0" flags="0x1204"/>
    </TTGlyph>
    <TTGlyph name="Scedilla" xMin="68" yMin="-408" xMax="899" yMax="1745">
      <component glyphName="cedilla" x="296" y="-14" flags="0x1004"/>
      <component glyphName="S" x="0" y="0" flags="0x1204"/>
    </TTGlyph>
    <TTGlyph name="Scircumflex" xMin="68" yMin="-27" xMax="899" yMax="2215">
      <component glyphName="circumflex" x="128" y="500" flags="0x1004"/>
      <component glyphName="S" x="0" y="0" flags="0x1204"/>
    </TTGlyph>
    <TTGlyph name="Scommaaccent" xMin="68" yMin="-625" xMax="899" yMax="1745">
      <component glyphName="uni0326" x="235" y="-103" flags="0x1004"/>
      <component glyphName="S" x="0" y="0" flags="0x1204"/>
    </TTGlyph>
    <TTGlyph name="T" xMin="-36" yMin="0" xMax="789" yMax="1721">
      <contour>
        <pt x="299" y="0" on="1"/>
        <pt x="299" y="1599" on="1"/>
        <pt x="-36" y="1599" on="1"/>
        <pt x="-36" y="1721" on="1"/>
        <pt x="789" y="1721" on="1"/>
        <pt x="789" y="1599" on="1"/>
        <pt x="451" y="1599" on="1"/>
        <pt x="451" y="0" on="1"/>
      </contour>
    </TTGlyph>
    <TTGlyph name="Tcaron" xMin="-36" yMin="0" xMax="789" yMax="2255">
      <component glyphName="caron" x="66" y="584" flags="0x1004"/>
      <component glyphName="T" x="0" y="0" flags="0x1204"/>
    </TTGlyph>
    <TTGlyph name="Tcommaaccent" xMin="-36" yMin="-381" xMax="789" yMax="1721">
      <component glyphName="cedilla" x="188" y="13" flags="0x1004"/>
      <component glyphName="T" x="0" y="0" flags="0x1204"/>
    </TTGlyph>
    <TTGlyph name="Thorn" xMin="146" yMin="0" xMax="974" yMax="1721">
      <contour>
        <pt x="298" y="628" on="1"/>
        <pt x="584" y="627" on="1"/>
        <pt x="712" y="626" on="0"/>
        <pt x="822" y="804" on="0"/>
        <pt x="822" y="996" on="1"/>
        <pt x="822" y="1174" on="0"/>
        <pt x="704" y="1340" on="0"/>
        <pt x="584" y="1340" on="1"/>
        <pt x="298" y="1340" on="1"/>
      </contour>
      <contour>
        <pt x="146" y="0" on="1"/>
        <pt x="146" y="1721" on="1"/>
        <pt x="298" y="1721" on="1"/>
        <pt x="298" y="1462" on="1"/>
        <pt x="567" y="1462" on="1"/>
        <pt x="657" y="1462" on="0"/>
        <pt x="797" y="1413" on="0"/>
        <pt x="889" y="1329" on="0"/>
        <pt x="949" y="1209" on="0"/>
        <pt x="974" y="1076" on="0"/>
        <pt x="974" y="999" on="1"/>
        <pt x="974" y="920" on="0"/>
        <pt x="953" y="786" on="0"/>
        <pt x="896" y="654" on="0"/>
        <pt x="807" y="563" on="0"/>
        <pt x="661" y="506" on="0"/>
        <pt x="566" y="506" on="1"/>
        <pt x="298" y="506" on="1"/>
        <pt x="298" y="0" on="1"/>
      </contour>
    </TTGlyph>
    <TTGlyph name="U" xMin="120" yMin="-27" xMax="994" yMax="1721">
      <contour>
        <pt x="120" y="423" on="1"/>
        <pt x="120" y="1721" on="1"/>
        <pt x="272" y="1721" on="1"/>
        <pt x="272" y="388" on="1"/>
        <pt x="272" y="240" on="0"/>
        <pt x="406" y="95" on="0"/>
        <pt x="565" y="95" on="1"/>
        <pt x="715" y="95" on="0"/>
        <pt x="843" y="241" on="0"/>
        <pt x="843" y="388" on="1"/>
        <pt x="843" y="1721" on="1"/>
        <pt x="994" y="1721" on="1"/>
        <pt x="994" y="423" on="1"/>
        <pt x="994" y="-27" on="0"/>
        <pt x="565" y="-27" on="1"/>
        <pt x="462" y="-27" on="0"/>
        <pt x="305" y="21" on="0"/>
        <pt x="206" y="102" on="0"/>
        <pt x="144" y="219" on="0"/>
        <pt x="120" y="346" on="0"/>
      </contour>
    </TTGlyph>
    <TTGlyph name="Uacute" xMin="120" yMin="-27" xMax="994" yMax="2306">
      <component glyphName="acute" x="433" y="584" flags="0x1004"/>
      <component glyphName="U" x="0" y="0" flags="0x1204"/>
    </TTGlyph>
    <TTGlyph name="Ubreve" xMin="120" yMin="-27" xMax="994" yMax="2176">
      <component glyphName="breve" x="189" y="595" flags="0x1004"/>
      <component glyphName="U" x="0" y="0" flags="0x1204"/>
    </TTGlyph>
    <TTGlyph name="Ucircumflex" xMin="120" yMin="-27" xMax="994" yMax="2215">
      <component glyphName="circumflex" x="202" y="500" flags="0x1004"/>
      <component glyphName="U" x="0" y="0" flags="0x1204"/>
    </TTGlyph>
    <TTGlyph name="Udieresis" xMin="120" yMin="-27" xMax="994" yMax="2087">
      <component glyphName="dieresis" x="160" y="522" flags="0x1004"/>
      <component glyphName="U" x="0" y="0" flags="0x1204"/>
    </TTGlyph>
    <TTGlyph name="Ugrave" xMin="120" yMin="-27" xMax="994" yMax="2306">
      <component glyphName="grave" x="230" y="584" flags="0x1004"/>
      <component glyphName="U" x="0" y="0" flags="0x1204"/>
    </TTGlyph>
    <TTGlyph name="Uhungarumlaut" xMin="120" yMin="-27" xMax="994" yMax="2221">
      <component glyphName="hungarumlaut" x="312" y="500" flags="0x1004"/>
      <component glyphName="U" x="0" y="0" flags="0x1204"/>
    </TTGlyph>
    <TTGlyph name="Umacron" xMin="120" yMin="-27" xMax="994" yMax="2023">
      <component glyphName="macron" x="206" y="525" flags="0x1004"/>
      <component glyphName="U" x="0" y="0" flags="0x1204"/>
    </TTGlyph>
    <TTGlyph name="Uogonek" xMin="120" yMin="-373" xMax="994" yMax="1721">
      <component glyphName="ogonek" x="270" y="-15" flags="0x1004"/>
      <component glyphName="U" x="0" y="0" flags="0x1204"/>
    </TTGlyph>
    <TTGlyph name="Uring" xMin="120" yMin="-27" xMax="994" yMax="2344">
      <component glyphName="ring" x="240" y="622" flags="0x1004"/>
      <component glyphName="U" x="0" y="0" flags="0x1204"/>
    </TTGlyph>
    <TTGlyph name="Utilde" xMin="120" yMin="-27" xMax="994" yMax="2107">
      <component glyphName="tilde" x="178" y="544" flags="0x1004"/>
      <component glyphName="U" x="0" y="0" flags="0x1204"/>
    </TTGlyph>
    <TTGlyph name="V" xMin="12" yMin="0" xMax="937" yMax="1721">
      <contour>
        <pt x="382" y="0" on="1"/>
        <pt x="12" y="1721" on="1"/>
        <pt x="176" y="1721" on="1"/>
        <pt x="481" y="180" on="1"/>
        <pt x="773" y="1721" on="1"/>
        <pt x="937" y="1721" on="1"/>
        <pt x="581" y="0" on="1"/>
      </contour>
    </TTGlyph>
    <TTGlyph name="W" xMin="23" yMin="0" xMax="1393" yMax="1721">
      <contour>
        <pt x="311" y="0" on="1"/>
        <pt x="23" y="1721" on="1"/>
        <pt x="165" y="1721" on="1"/>
        <pt x="400" y="249" on="1"/>
        <pt x="622" y="1721" on="1"/>
        <pt x="815" y="1721" on="1"/>
        <pt x="1018" y="249" on="1"/>
        <pt x="1252" y="1721" on="1"/>
        <pt x="1393" y="1721" on="1"/>
        <pt x="1107" y="0" on="1"/>
        <pt x="932" y="0" on="1"/>
        <pt x="717" y="1520" on="1"/>
        <pt x="485" y="0" on="1"/>
      </contour>
    </TTGlyph>
    <TTGlyph name="Wacute" xMin="23" yMin="0" xMax="1393" yMax="2306">
      <component glyphName="acute" x="584" y="584" flags="0x1004"/>
      <component glyphName="W" x="0" y="0" flags="0x1204"/>
    </TTGlyph>
    <TTGlyph name="Wcircumflex" xMin="23" yMin="0" xMax="1393" yMax="2215">
      <component glyphName="circumflex" x="353" y="500" flags="0x1004"/>
      <component glyphName="W" x="0" y="0" flags="0x1204"/>
    </TTGlyph>
    <TTGlyph name="Wdieresis" xMin="23" yMin="0" xMax="1393" yMax="2087">
      <component glyphName="dieresis" x="311" y="522" flags="0x1004"/>
      <component glyphName="W" x="0" y="0" flags="0x1204"/>
    </TTGlyph>
    <TTGlyph name="Wgrave" xMin="23" yMin="0" xMax="1393" yMax="2306">
      <component glyphName="grave" x="381" y="584" flags="0x1004"/>
      <component glyphName="W" x="0" y="0" flags="0x1204"/>
    </TTGlyph>
    <TTGlyph name="X" xMin="30" yMin="0" xMax="924" yMax="1722">
      <contour>
        <pt x="30" y="0" on="1"/>
        <pt x="397" y="866" on="1"/>
        <pt x="30" y="1722" on="1"/>
        <pt x="173" y="1722" on="1"/>
        <pt x="475" y="998" on="1"/>
        <pt x="768" y="1722" on="1"/>
        <pt x="924" y="1722" on="1"/>
        <pt x="557" y="850" on="1"/>
        <pt x="924" y="0" on="1"/>
        <pt x="778" y="0" on="1"/>
        <pt x="480" y="717" on="1"/>
        <pt x="187" y="0" on="1"/>
      </contour>
    </TTGlyph>
    <TTGlyph name="Y" xMin="-2" yMin="0" xMax="890" yMax="1721">
      <contour>
        <pt x="374" y="0" on="1"/>
        <pt x="374" y="534" on="1"/>
        <pt x="-2" y="1721" on="1"/>
        <pt x="152" y="1721" on="1"/>
        <pt x="172" y="1649" on="0"/>
        <pt x="248" y="1387" on="0"/>
        <pt x="328" y="1117" on="0"/>
        <pt x="403" y="868" on="0"/>
        <pt x="427" y="788" on="1"/>
        <pt x="451" y="709" on="1"/>
        <pt x="515" y="944" on="0"/>
        <pt x="683" y="1513" on="0"/>
        <pt x="741" y="1721" on="1"/>
        <pt x="890" y="1721" on="1"/>
        <pt x="526" y="534" on="1"/>
        <pt x="526" y="0" on="1"/>
      </contour>
    </TTGlyph>
    <TTGlyph name="Yacute" xMin="-2" yMin="0" xMax="890" yMax="2306">
      <component glyphName="acute" x="320" y="584" flags="0x1004"/>
      <component glyphName="Y" x="0" y="0" flags="0x1204"/>
    </TTGlyph>
    <TTGlyph name="Ycircumflex" xMin="-2" yMin="0" xMax="890" yMax="2215">
      <component glyphName="circumflex" x="89" y="500" flags="0x1004"/>
      <component glyphName="Y" x="0" y="0" flags="0x1204"/>
    </TTGlyph>
    <TTGlyph name="Ydieresis" xMin="-2" yMin="0" xMax="890" yMax="2087">
      <component glyphName="dieresis" x="47" y="522" flags="0x1004"/>
      <component glyphName="Y" x="0" y="0" flags="0x1204"/>
    </TTGlyph>
    <TTGlyph name="Ygrave" xMin="-2" yMin="0" xMax="890" yMax="2306">
      <component glyphName="grave" x="117" y="584" flags="0x1004"/>
      <component glyphName="Y" x="0" y="0" flags="0x1204"/>
    </TTGlyph>
    <TTGlyph name="Z" xMin="60" yMin="0" xMax="821" yMax="1721">
      <contour>
        <pt x="60" y="0" on="1"/>
        <pt x="60" y="141" on="1"/>
        <pt x="665" y="1599" on="1"/>
        <pt x="124" y="1599" on="1"/>
        <pt x="124" y="1721" on="1"/>
        <pt x="821" y="1721" on="1"/>
        <pt x="821" y="1580" on="1"/>
        <pt x="216" y="122" on="1"/>
        <pt x="821" y="122" on="1"/>
        <pt x="821" y="0" on="1"/>
      </contour>
    </TTGlyph>
    <TTGlyph name="Zacute" xMin="60" yMin="0" xMax="821" yMax="2306">
      <component glyphName="acute" x="316" y="584" flags="0x1004"/>
      <component glyphName="Z" x="0" y="0" flags="0x1204"/>
    </TTGlyph>
    <TTGlyph name="Zcaron" xMin="60" yMin="0" xMax="821" yMax="2255">
      <component glyphName="caron" x="130" y="584" flags="0x1004"/>
      <component glyphName="Z" x="0" y="0" flags="0x1204"/>
    </TTGlyph>
    <TTGlyph name="Zdotaccent" xMin="60" yMin="0" xMax="821" yMax="2087">
      <component glyphName="dotaccent" x="236" y="528" flags="0x1004"/>
      <component glyphName="Z" x="0" y="0" flags="0x1204"/>
    </TTGlyph>
    <TTGlyph name="a" xMin="75" yMin="-27" xMax="724" yMax="1225">
      <contour>
        <pt x="554" y="244" on="1"/>
        <pt x="554" y="666" on="1"/>
        <pt x="481" y="615" on="0"/>
        <pt x="397" y="553" on="0"/>
        <pt x="304" y="470" on="0"/>
        <pt x="257" y="402" on="0"/>
        <pt x="226" y="315" on="0"/>
        <pt x="226" y="267" on="1"/>
        <pt x="226" y="181" on="0"/>
        <pt x="298" y="98" on="0"/>
        <pt x="347" y="98" on="1"/>
        <pt x="404" y="98" on="0"/>
        <pt x="521" y="180" on="0"/>
      </contour>
      <contour>
        <pt x="584" y="0" on="1"/>
        <pt x="565" y="145" on="1"/>
        <pt x="517" y="61" on="0"/>
        <pt x="376" y="-27" on="0"/>
        <pt x="312" y="-27" on="1"/>
        <pt x="219" y="-27" on="0"/>
        <pt x="75" y="120" on="0"/>
        <pt x="75" y="239" on="1"/>
        <pt x="75" y="271" on="0"/>
        <pt x="77" y="310" on="0"/>
        <pt x="86" y="372" on="0"/>
        <pt x="103" y="414" on="0"/>
        <pt x="136" y="475" on="0"/>
        <pt x="184" y="522" on="0"/>
        <pt x="256" y="583" on="0"/>
        <pt x="350" y="638" on="0"/>
        <pt x="477" y="701" on="0"/>
        <pt x="554" y="733" on="1"/>
        <pt x="554" y="743" on="1"/>
        <pt x="554" y="845" on="0"/>
        <pt x="536" y="990" on="0"/>
        <pt x="510" y="1069" on="0"/>
        <pt x="469" y="1113" on="0"/>
        <pt x="433" y="1124" on="0"/>
        <pt x="407" y="1124" on="1"/>
        <pt x="380" y="1124" on="0"/>
        <pt x="338" y="1109" on="0"/>
        <pt x="290" y="1066" on="0"/>
        <pt x="258" y="969" on="0"/>
        <pt x="254" y="896" on="1"/>
        <pt x="254" y="889" on="1"/>
        <pt x="98" y="889" on="1"/>
        <pt x="110" y="1046" on="0"/>
        <pt x="271" y="1225" on="0"/>
        <pt x="402" y="1225" on="1"/>
        <pt x="475" y="1225" on="0"/>
        <pt x="587" y="1178" on="0"/>
        <pt x="652" y="1105" on="0"/>
        <pt x="692" y="1003" on="0"/>
        <pt x="706" y="907" on="0"/>
        <pt x="706" y="852" on="1"/>
        <pt x="706" y="276" on="1"/>
        <pt x="706" y="213" on="0"/>
        <pt x="715" y="75" on="0"/>
        <pt x="720" y="38" on="1"/>
        <pt x="724" y="0" on="1"/>
      </contour>
    </TTGlyph>
    <TTGlyph name="aacute" xMin="75" yMin="-27" xMax="724" yMax="1786">
      <component glyphName="acute" x="276" y="64" flags="0x1004"/>
      <component glyphName="a" x="0" y="0" flags="0x1204"/>
    </TTGlyph>
    <TTGlyph name="abreve" xMin="75" yMin="-27" xMax="724" yMax="1656">
      <component glyphName="breve" x="32" y="75" flags="0x1004"/>
      <component glyphName="a" x="0" y="0" flags="0x1204"/>
    </TTGlyph>
    <TTGlyph name="acircumflex" xMin="75" yMin="-27" xMax="724" yMax="1695">
      <component glyphName="circumflex" x="44" y="-20" flags="0x1004"/>
      <component glyphName="a" x="0" y="0" flags="0x1204"/>
    </TTGlyph>
    <TTGlyph name="acute" xMin="96" yMin="1324" xMax="381" yMax="1722">
      <contour>
        <pt x="96" y="1324" on="1"/>
        <pt x="219" y="1722" on="1"/>
        <pt x="381" y="1722" on="1"/>
        <pt x="152" y="1324" on="1"/>
      </contour>
    </TTGlyph>
    <TTGlyph name="adieresis" xMin="75" yMin="-27" xMax="724" yMax="1567">
      <component glyphName="dieresis" x="2" y="2" flags="0x1004"/>
      <component glyphName="a" x="0" y="0" flags="0x1204"/>
    </TTGlyph>
    <TTGlyph name="ae" xMin="74" yMin="-27" xMax="1158" yMax="1225">
      <contour>
        <pt x="707" y="708" on="1"/>
        <pt x="707" y="704" on="1"/>
        <pt x="787" y="720" on="0"/>
        <pt x="902" y="768" on="0"/>
        <pt x="965" y="819" on="0"/>
        <pt x="1001" y="885" on="0"/>
        <pt x="1010" y="937" on="0"/>
        <pt x="1010" y="970" on="1"/>
        <pt x="1010" y="1035" on="0"/>
        <pt x="948" y="1124" on="0"/>
        <pt x="893" y="1124" on="1"/>
        <pt x="863" y="1124" on="0"/>
        <pt x="813" y="1110" on="0"/>
        <pt x="777" y="1090" on="0"/>
        <pt x="749" y="1048" on="0"/>
        <pt x="730" y="1013" on="0"/>
        <pt x="717" y="946" on="0"/>
        <pt x="711" y="900" on="0"/>
        <pt x="708" y="813" on="0"/>
        <pt x="707" y="759" on="0"/>
      </contour>
      <contour>
        <pt x="553" y="489" on="1"/>
        <pt x="553" y="586" on="1"/>
        <pt x="358" y="516" on="0"/>
        <pt x="225" y="389" on="0"/>
        <pt x="225" y="267" on="1"/>
        <pt x="225" y="184" on="0"/>
        <pt x="285" y="97" on="0"/>
        <pt x="328" y="97" on="1"/>
        <pt x="386" y="97" on="0"/>
        <pt x="478" y="188" on="0"/>
        <pt x="528" y="320" on="0"/>
        <pt x="553" y="444" on="0"/>
      </contour>
      <contour>
        <pt x="253" y="889" on="1"/>
        <pt x="97" y="889" on="1"/>
        <pt x="109" y="1046" on="0"/>
        <pt x="270" y="1225" on="0"/>
        <pt x="401" y="1225" on="1"/>
        <pt x="566" y="1225" on="0"/>
        <pt x="633" y="1072" on="1"/>
        <pt x="715" y="1225" on="0"/>
        <pt x="886" y="1225" on="1"/>
        <pt x="996" y="1225" on="0"/>
        <pt x="1144" y="1079" on="0"/>
        <pt x="1144" y="958" on="1"/>
        <pt x="1144" y="900" on="0"/>
        <pt x="1096" y="801" on="0"/>
        <pt x="1018" y="734" on="0"/>
        <pt x="925" y="680" on="0"/>
        <pt x="832" y="648" on="0"/>
        <pt x="754" y="627" on="0"/>
        <pt x="730" y="624" on="1"/>
        <pt x="706" y="620" on="1"/>
        <pt x="706" y="445" on="1"/>
        <pt x="706" y="302" on="0"/>
        <pt x="750" y="133" on="0"/>
        <pt x="817" y="74" on="0"/>
        <pt x="868" y="74" on="1"/>
        <pt x="900" y="74" on="0"/>
        <pt x="949" y="96" on="0"/>
        <pt x="992" y="153" on="0"/>
        <pt x="1016" y="264" on="0"/>
        <pt x="1018" y="346" on="1"/>
        <pt x="1018" y="367" on="1"/>
        <pt x="1158" y="367" on="1"/>
        <pt x="1156" y="345" on="1"/>
        <pt x="1150" y="278" on="0"/>
        <pt x="1130" y="177" on="0"/>
        <pt x="1088" y="77" on="0"/>
        <pt x="1028" y="13" on="0"/>
        <pt x="930" y="-27" on="0"/>
        <pt x="865" y="-27" on="1"/>
        <pt x="759" y="-27" on="0"/>
        <pt x="621" y="97" on="0"/>
        <pt x="598" y="209" on="1"/>
        <pt x="579" y="142" on="0"/>
        <pt x="506" y="43" on="0"/>
        <pt x="420" y="-5" on="0"/>
        <pt x="344" y="-27" on="0"/>
        <pt x="311" y="-27" on="1"/>
        <pt x="218" y="-27" on="0"/>
        <pt x="74" y="120" on="0"/>
        <pt x="74" y="239" on="1"/>
        <pt x="74" y="271" on="0"/>
        <pt x="76" y="309" on="0"/>
        <pt x="85" y="370" on="0"/>
        <pt x="102" y="409" on="0"/>
        <pt x="135" y="465" on="0"/>
        <pt x="183" y="506" on="0"/>
        <pt x="255" y="558" on="0"/>
        <pt x="349" y="602" on="0"/>
        <pt x="476" y="651" on="0"/>
        <pt x="553" y="675" on="1"/>
        <pt x="553" y="751" on="1"/>
        <pt x="552" y="851" on="0"/>
        <pt x="535" y="993" on="0"/>
        <pt x="509" y="1070" on="0"/>
        <pt x="467" y="1113" on="0"/>
        <pt x="432" y="1124" on="0"/>
        <pt x="380" y="1124" on="0"/>
        <pt x="338" y="1110" on="0"/>
        <pt x="291" y="1069" on="0"/>
        <pt x="259" y="977" on="0"/>
        <pt x="254" y="908" on="1"/>
        <pt x="254" y="905" on="0"/>
        <pt x="253" y="892" on="0"/>
      </contour>
    </TTGlyph>
    <TTGlyph name="agrave" xMin="75" yMin="-27" xMax="724" yMax="1786">
      <component glyphName="grave" x="72" y="64" flags="0x1004"/>
      <component glyphName="a" x="0" y="0" flags="0x1204"/>
    </TTGlyph>
    <TTGlyph name="amacron" xMin="75" yMin="-27" xMax="724" yMax="1503">
      <component glyphName="macron" x="48" y="5" flags="0x1004"/>
      <component glyphName="a" x="0" y="0" flags="0x1204"/>
    </TTGlyph>
    <TTGlyph name="ampersand" xMin="68" yMin="-26" xMax="1096" yMax="1745">
      <contour>
        <pt x="442" y="927" on="1"/>
        <pt x="556" y="1036" on="0"/>
        <pt x="692" y="1301" on="0"/>
        <pt x="692" y="1416" on="1"/>
        <pt x="692" y="1511" on="0"/>
        <pt x="596" y="1623" on="0"/>
        <pt x="497" y="1623" on="1"/>
        <pt x="441" y="1623" on="0"/>
        <pt x="357" y="1572" on="0"/>
        <pt x="313" y="1490" on="0"/>
        <pt x="292" y="1406" on="0"/>
        <pt x="292" y="1364" on="1"/>
        <pt x="292" y="1179" on="0"/>
      </contour>
      <contour>
        <pt x="735" y="229" on="1"/>
        <pt x="406" y="734" on="1"/>
        <pt x="321" y="656" on="0"/>
        <pt x="208" y="418" on="0"/>
        <pt x="208" y="313" on="1"/>
        <pt x="208" y="214" on="0"/>
        <pt x="322" y="94" on="0"/>
        <pt x="442" y="94" on="1"/>
        <pt x="590" y="94" on="0"/>
      </contour>
      <contour>
        <pt x="1094" y="122" on="1"/>
        <pt x="1094" y="-14" on="1"/>
        <pt x="1017" y="-9" on="0"/>
        <pt x="859" y="70" on="0"/>
        <pt x="804" y="134" on="1"/>
        <pt x="634" y="-26" on="0"/>
        <pt x="434" y="-26" on="1"/>
        <pt x="251" y="-26" on="0"/>
        <pt x="68" y="154" on="0"/>
        <pt x="68" y="298" on="1"/>
        <pt x="68" y="435" on="0"/>
        <pt x="217" y="740" on="0"/>
        <pt x="346" y="844" on="1"/>
        <pt x="140" y="1185" on="0"/>
        <pt x="140" y="1370" on="1"/>
        <pt x="140" y="1537" on="0"/>
        <pt x="332" y="1745" on="0"/>
        <pt x="654" y="1745" on="0"/>
        <pt x="836" y="1566" on="0"/>
        <pt x="836" y="1420" on="1"/>
        <pt x="836" y="1283" on="0"/>
        <pt x="667" y="968" on="0"/>
        <pt x="498" y="817" on="1"/>
        <pt x="819" y="324" on="1"/>
        <pt x="968" y="522" on="0"/>
        <pt x="968" y="753" on="1"/>
        <pt x="1096" y="753" on="1"/>
        <pt x="1096" y="642" on="0"/>
        <pt x="985" y="350" on="0"/>
        <pt x="890" y="228" on="1"/>
        <pt x="986" y="122" on="0"/>
      </contour>
    </TTGlyph>
    <TTGlyph name="aogonek" xMin="75" yMin="-350" xMax="724" yMax="1225">
      <component glyphName="ogonek" x="346" y="8" flags="0x1004"/>
      <component glyphName="a" x="0" y="0" flags="0x1004"/>
    </TTGlyph>
    <TTGlyph name="aring" xMin="75" yMin="-27" xMax="724" yMax="1824">
      <component glyphName="ring" x="82" y="102" flags="0x1004"/>
      <component glyphName="a" x="0" y="0" flags="0x1204"/>
    </TTGlyph>
    <TTGlyph name="asciicircum" xMin="43" yMin="896" xMax="703" yMax="1459">
      <contour>
        <pt x="220" y="896" on="1"/>
        <pt x="43" y="896" on="1"/>
        <pt x="43" y="896" on="0"/>
        <pt x="270" y="1459" on="1"/>
        <pt x="477" y="1459" on="1"/>
        <pt x="703" y="896" on="1"/>
        <pt x="528" y="896" on="1"/>
        <pt x="373" y="1436" on="1"/>
      </contour>
    </TTGlyph>
    <TTGlyph name="asciitilde" xMin="98" yMin="947" xMax="732" yMax="1146">
      <contour>
        <pt x="213" y="959" on="1"/>
        <pt x="98" y="959" on="1"/>
        <pt x="99" y="978" on="0"/>
        <pt x="104" y="1014" on="0"/>
        <pt x="126" y="1073" on="0"/>
        <pt x="161" y="1114" on="0"/>
        <pt x="229" y="1146" on="0"/>
        <pt x="275" y="1146" on="1"/>
        <pt x="317" y="1146" on="0"/>
        <pt x="512" y="1070" on="0"/>
        <pt x="550" y="1070" on="1"/>
        <pt x="579" y="1070" on="0"/>
        <pt x="611" y="1099" on="0"/>
        <pt x="616" y="1137" on="1"/>
        <pt x="732" y="1137" on="1"/>
        <pt x="732" y="1136" on="0"/>
        <pt x="730" y="1111" on="0"/>
        <pt x="723" y="1079" on="0"/>
        <pt x="711" y="1037" on="0"/>
        <pt x="686" y="1000" on="0"/>
        <pt x="651" y="967" on="0"/>
        <pt x="594" y="947" on="0"/>
        <pt x="558" y="947" on="1"/>
        <pt x="501" y="947" on="0"/>
        <pt x="312" y="1025" on="0"/>
        <pt x="275" y="1025" on="1"/>
        <pt x="247" y="1025" on="0"/>
        <pt x="218" y="997" on="0"/>
      </contour>
    </TTGlyph>
    <TTGlyph name="asterisk" xMin="55" yMin="911" xMax="713" yMax="1583">
      <contour>
        <pt x="147" y="963" on="1"/>
        <pt x="320" y="1210" on="1"/>
        <pt x="55" y="1311" on="1"/>
        <pt x="91" y="1400" on="1"/>
        <pt x="343" y="1281" on="1"/>
        <pt x="325" y="1583" on="1"/>
        <pt x="444" y="1583" on="1"/>
        <pt x="424" y="1282" on="1"/>
        <pt x="678" y="1402" on="1"/>
        <pt x="713" y="1312" on="1"/>
        <pt x="449" y="1210" on="1"/>
        <pt x="623" y="960" on="1"/>
        <pt x="534" y="911" on="1"/>
        <pt x="384" y="1163" on="1"/>
        <pt x="235" y="911" on="1"/>
      </contour>
    </TTGlyph>
    <TTGlyph name="at" xMin="72" yMin="40" xMax="1371" yMax="1667">
      <contour>
        <pt x="834" y="644" on="1"/>
        <pt x="834" y="1121" on="1"/>
        <pt x="758" y="1174" on="0"/>
        <pt x="702" y="1174" on="1"/>
        <pt x="655" y="1174" on="0"/>
        <pt x="595" y="1079" on="0"/>
        <pt x="572" y="936" on="0"/>
        <pt x="572" y="840" on="1"/>
        <pt x="572" y="694" on="0"/>
        <pt x="629" y="561" on="0"/>
        <pt x="687" y="561" on="1"/>
        <pt x="739" y="561" on="0"/>
        <pt x="802" y="603" on="0"/>
      </contour>
      <contour>
        <pt x="1091" y="198" on="1"/>
        <pt x="1116" y="80" on="1"/>
        <pt x="930" y="40" on="0"/>
        <pt x="785" y="40" on="1"/>
        <pt x="656" y="40" on="0"/>
        <pt x="445" y="92" on="0"/>
        <pt x="264" y="214" on="0"/>
        <pt x="141" y="402" on="0"/>
        <pt x="72" y="685" on="0"/>
        <pt x="72" y="868" on="1"/>
        <pt x="72" y="1059" on="0"/>
        <pt x="176" y="1367" on="0"/>
        <pt x="357" y="1563" on="0"/>
        <pt x="592" y="1667" on="0"/>
        <pt x="726" y="1667" on="1"/>
        <pt x="1032" y="1667" on="0"/>
        <pt x="1371" y="1262" on="0"/>
        <pt x="1371" y="888" on="1"/>
        <pt x="1371" y="794" on="0"/>
        <pt x="1339" y="642" on="0"/>
        <pt x="1286" y="542" on="0"/>
        <pt x="1214" y="475" on="0"/>
        <pt x="1136" y="446" on="0"/>
        <pt x="1094" y="446" on="1"/>
        <pt x="1018" y="446" on="0"/>
        <pt x="887" y="534" on="0"/>
        <pt x="864" y="603" on="1"/>
        <pt x="852" y="547" on="0"/>
        <pt x="784" y="475" on="0"/>
        <pt x="701" y="447" on="0"/>
        <pt x="651" y="447" on="1"/>
        <pt x="596" y="447" on="0"/>
        <pt x="510" y="507" on="0"/>
        <pt x="462" y="594" on="0"/>
        <pt x="431" y="708" on="0"/>
        <pt x="421" y="798" on="0"/>
        <pt x="421" y="839" on="1"/>
        <pt x="421" y="1056" on="0"/>
        <pt x="553" y="1280" on="0"/>
        <pt x="653" y="1280" on="1"/>
        <pt x="747" y="1280" on="0"/>
        <pt x="834" y="1204" on="1"/>
        <pt x="834" y="1274" on="1"/>
        <pt x="986" y="1274" on="1"/>
        <pt x="986" y="714" on="1"/>
        <pt x="986" y="561" on="0"/>
        <pt x="1090" y="561" on="1"/>
        <pt x="1219" y="561" on="0"/>
        <pt x="1219" y="881" on="1"/>
        <pt x="1219" y="1037" on="0"/>
        <pt x="1171" y="1272" on="0"/>
        <pt x="1089" y="1420" on="0"/>
        <pt x="962" y="1511" on="0"/>
        <pt x="821" y="1546" on="0"/>
        <pt x="730" y="1546" on="1"/>
        <pt x="695" y="1546" on="0"/>
        <pt x="628" y="1539" on="0"/>
        <pt x="522" y="1507" on="0"/>
        <pt x="432" y="1454" on="0"/>
        <pt x="335" y="1351" on="0"/>
        <pt x="268" y="1212" on="0"/>
        <pt x="224" y="997" on="0"/>
        <pt x="224" y="864" on="1"/>
        <pt x="224" y="693" on="0"/>
        <pt x="291" y="435" on="0"/>
        <pt x="396" y="284" on="0"/>
        <pt x="547" y="191" on="0"/>
        <pt x="693" y="159" on="0"/>
        <pt x="780" y="159" on="1"/>
        <pt x="814" y="159" on="0"/>
        <pt x="882" y="163" on="0"/>
        <pt x="962" y="175" on="0"/>
        <pt x="997" y="180" on="0"/>
        <pt x="1090" y="198" on="0"/>
      </contour>
    </TTGlyph>
    <TTGlyph name="atilde" xMin="75" yMin="-27" xMax="724" yMax="1587">
      <component glyphName="tilde" x="20" y="24" flags="0x1004"/>
      <component glyphName="a" x="0" y="0" flags="0x1204"/>
    </TTGlyph>
    <TTGlyph name="b" xMin="120" yMin="-27" xMax="765" yMax="1721">
      <contour>
        <pt x="615" y="545" on="1"/>
        <pt x="615" y="640" on="1"/>
        <pt x="615" y="750" on="0"/>
        <pt x="605" y="914" on="0"/>
        <pt x="582" y="1015" on="0"/>
        <pt x="559" y="1078" on="0"/>
        <pt x="522" y="1106" on="0"/>
        <pt x="493" y="1114" on="0"/>
        <pt x="471" y="1114" on="1"/>
        <pt x="377" y="1114" on="0"/>
        <pt x="270" y="995" on="1"/>
        <pt x="270" y="205" on="1"/>
        <pt x="315" y="151" on="0"/>
        <pt x="421" y="84" on="0"/>
        <pt x="466" y="84" on="1"/>
        <pt x="486" y="84" on="0"/>
        <pt x="511" y="88" on="0"/>
        <pt x="546" y="106" on="0"/>
        <pt x="568" y="142" on="0"/>
        <pt x="592" y="209" on="0"/>
        <pt x="606" y="305" on="0"/>
        <pt x="615" y="451" on="0"/>
      </contour>
      <contour>
        <pt x="120" y="0" on="1"/>
        <pt x="120" y="1721" on="1"/>
        <pt x="270" y="1721" on="1"/>
        <pt x="270" y="1085" on="1"/>
        <pt x="317" y="1154" on="0"/>
        <pt x="438" y="1225" on="0"/>
        <pt x="501" y="1225" on="1"/>
        <pt x="544" y="1225" on="0"/>
        <pt x="608" y="1208" on="0"/>
        <pt x="684" y="1139" on="0"/>
        <pt x="732" y="1019" on="0"/>
        <pt x="765" y="796" on="0"/>
        <pt x="765" y="641" on="1"/>
        <pt x="765" y="546" on="1"/>
        <pt x="765" y="438" on="0"/>
        <pt x="748" y="264" on="0"/>
        <pt x="721" y="147" on="0"/>
        <pt x="679" y="60" on="0"/>
        <pt x="637" y="11" on="0"/>
        <pt x="583" y="-18" on="0"/>
        <pt x="539" y="-27" on="0"/>
        <pt x="512" y="-27" on="1"/>
        <pt x="360" y="-27" on="0"/>
        <pt x="270" y="113" on="1"/>
        <pt x="270" y="0" on="1"/>
      </contour>
    </TTGlyph>
    <TTGlyph name="backslash" xMin="-12" yMin="0" xMax="685" yMax="1721">
      <contour>
        <pt x="541" y="0" on="1"/>
        <pt x="-12" y="1721" on="1"/>
        <pt x="133" y="1721" on="1"/>
        <pt x="685" y="0" on="1"/>
      </contour>
    </TTGlyph>
    <TTGlyph name="bar" xMin="150" yMin="-128" xMax="268" yMax="1746">
      <contour>
        <pt x="150" y="-128" on="1"/>
        <pt x="150" y="1746" on="1"/>
        <pt x="268" y="1746" on="1"/>
        <pt x="268" y="-128" on="1"/>
      </contour>
    </TTGlyph>
    <TTGlyph name="braceleft" xMin="35" yMin="-57" xMax="511" yMax="1781">
      <contour>
        <pt x="511" y="56" on="1"/>
        <pt x="511" y="-57" on="1"/>
        <pt x="455" y="-57" on="0"/>
        <pt x="363" y="-33" on="0"/>
        <pt x="295" y="2" on="0"/>
        <pt x="243" y="72" on="0"/>
        <pt x="209" y="132" on="0"/>
        <pt x="185" y="239" on="0"/>
        <pt x="173" y="314" on="0"/>
        <pt x="167" y="450" on="0"/>
        <pt x="166" y="532" on="0"/>
        <pt x="166" y="609" on="1"/>
        <pt x="166" y="687" on="0"/>
        <pt x="114" y="768" on="0"/>
        <pt x="35" y="768" on="1"/>
        <pt x="35" y="956" on="1"/>
        <pt x="114" y="956" on="0"/>
        <pt x="166" y="1037" on="0"/>
        <pt x="166" y="1115" on="1"/>
        <pt x="166" y="1192" on="0"/>
        <pt x="167" y="1274" on="0"/>
        <pt x="173" y="1410" on="0"/>
        <pt x="185" y="1485" on="0"/>
        <pt x="209" y="1592" on="0"/>
        <pt x="243" y="1652" on="0"/>
        <pt x="295" y="1722" on="0"/>
        <pt x="363" y="1757" on="0"/>
        <pt x="455" y="1781" on="0"/>
        <pt x="511" y="1781" on="1"/>
        <pt x="511" y="1668" on="1"/>
        <pt x="459" y="1668" on="0"/>
        <pt x="387" y="1644" on="0"/>
        <pt x="341" y="1574" on="0"/>
        <pt x="315" y="1513" on="0"/>
        <pt x="304" y="1371" on="0"/>
        <pt x="302" y="1277" on="0"/>
        <pt x="302" y="1174" on="1"/>
        <pt x="302" y="1117" on="0"/>
        <pt x="291" y="1030" on="0"/>
        <pt x="259" y="940" on="0"/>
        <pt x="190" y="877" on="0"/>
        <pt x="139" y="862" on="1"/>
        <pt x="190" y="847" on="0"/>
        <pt x="259" y="784" on="0"/>
        <pt x="291" y="694" on="0"/>
        <pt x="302" y="607" on="0"/>
        <pt x="302" y="550" on="1"/>
        <pt x="302" y="447" on="0"/>
        <pt x="304" y="353" on="0"/>
        <pt x="315" y="211" on="0"/>
        <pt x="341" y="150" on="0"/>
        <pt x="387" y="80" on="0"/>
        <pt x="459" y="56" on="0"/>
      </contour>
    </TTGlyph>
    <TTGlyph name="braceright" xMin="25" yMin="-57" xMax="501" yMax="1781">
      <contour>
        <pt x="25" y="-57" on="1"/>
        <pt x="25" y="56" on="1"/>
        <pt x="77" y="56" on="0"/>
        <pt x="149" y="80" on="0"/>
        <pt x="195" y="150" on="0"/>
        <pt x="221" y="211" on="0"/>
        <pt x="232" y="353" on="0"/>
        <pt x="234" y="447" on="0"/>
        <pt x="234" y="550" on="1"/>
        <pt x="234" y="607" on="0"/>
        <pt x="245" y="694" on="0"/>
        <pt x="277" y="784" on="0"/>
        <pt x="346" y="847" on="0"/>
        <pt x="397" y="862" on="1"/>
        <pt x="346" y="877" on="0"/>
        <pt x="277" y="940" on="0"/>
        <pt x="245" y="1030" on="0"/>
        <pt x="234" y="1117" on="0"/>
        <pt x="234" y="1174" on="1"/>
        <pt x="234" y="1277" on="0"/>
        <pt x="232" y="1371" on="0"/>
        <pt x="221" y="1513" on="0"/>
        <pt x="195" y="1574" on="0"/>
        <pt x="149" y="1644" on="0"/>
        <pt x="77" y="1668" on="0"/>
        <pt x="25" y="1668" on="1"/>
        <pt x="25" y="1781" on="1"/>
        <pt x="81" y="1781" on="0"/>
        <pt x="173" y="1757" on="0"/>
        <pt x="241" y="1722" on="0"/>
        <pt x="293" y="1652" on="0"/>
        <pt x="327" y="1592" on="0"/>
        <pt x="351" y="1485" on="0"/>
        <pt x="363" y="1410" on="0"/>
        <pt x="369" y="1274" on="0"/>
        <pt x="370" y="1192" on="0"/>
        <pt x="370" y="1115" on="1"/>
        <pt x="370" y="1037" on="0"/>
        <pt x="422" y="956" on="0"/>
        <pt x="501" y="956" on="1"/>
        <pt x="501" y="768" on="1"/>
        <pt x="422" y="768" on="0"/>
        <pt x="370" y="687" on="0"/>
        <pt x="370" y="609" on="1"/>
        <pt x="370" y="532" on="0"/>
        <pt x="369" y="450" on="0"/>
        <pt x="363" y="314" on="0"/>
        <pt x="351" y="239" on="0"/>
        <pt x="327" y="132" on="0"/>
        <pt x="293" y="72" on="0"/>
        <pt x="241" y="2" on="0"/>
        <pt x="173" y="-33" on="0"/>
        <pt x="81" y="-57" on="0"/>
      </contour>
    </TTGlyph>
    <TTGlyph name="bracketleft" xMin="150" yMin="-64" xMax="481" yMax="1779">
      <contour>
        <pt x="150" y="-64" on="1"/>
        <pt x="150" y="1779" on="1"/>
        <pt x="481" y="1779" on="1"/>
        <pt x="481" y="1698" on="1"/>
        <pt x="302" y="1698" on="1"/>
        <pt x="302" y="17" on="1"/>
        <pt x="481" y="17" on="1"/>
        <pt x="481" y="-64" on="1"/>
      </contour>
    </TTGlyph>
    <TTGlyph name="bracketright" xMin="25" yMin="-64" xMax="356" yMax="1779">
      <contour>
        <pt x="25" y="-64" on="1"/>
        <pt x="25" y="17" on="1"/>
        <pt x="204" y="17" on="1"/>
        <pt x="204" y="1698" on="1"/>
        <pt x="25" y="1698" on="1"/>
        <pt x="25" y="1779" on="1"/>
        <pt x="356" y="1779" on="1"/>
        <pt x="356" y="-64" on="1"/>
      </contour>
    </TTGlyph>
    <TTGlyph name="breve" xMin="92" yMin="1313" xMax="644" yMax="1581">
      <contour>
        <pt x="92" y="1581" on="1"/>
        <pt x="203" y="1581" on="1"/>
        <pt x="217" y="1487" on="0"/>
        <pt x="302" y="1422" on="0"/>
        <pt x="434" y="1422" on="0"/>
        <pt x="519" y="1487" on="0"/>
        <pt x="533" y="1581" on="1"/>
        <pt x="644" y="1581" on="1"/>
        <pt x="641" y="1504" on="0"/>
        <pt x="586" y="1393" on="0"/>
        <pt x="500" y="1337" on="0"/>
        <pt x="414" y="1313" on="0"/>
        <pt x="322" y="1313" on="0"/>
        <pt x="236" y="1337" on="0"/>
        <pt x="150" y="1393" on="0"/>
        <pt x="95" y="1504" on="0"/>
      </contour>
    </TTGlyph>
    <TTGlyph name="brokenbar" xMin="137" yMin="-14" xMax="269" yMax="1441">
      <contour>
        <pt x="137" y="889" on="1"/>
        <pt x="137" y="1441" on="1"/>
        <pt x="269" y="1441" on="1"/>
        <pt x="269" y="889" on="1"/>
      </contour>
      <contour>
        <pt x="137" y="-14" on="1"/>
        <pt x="137" y="537" on="1"/>
        <pt x="269" y="537" on="1"/>
        <pt x="269" y="-14" on="1"/>
      </contour>
    </TTGlyph>
    <TTGlyph name="bullet" xMin="104" yMin="588" xMax="469" yMax="949">
      <contour>
        <pt x="104" y="767" on="1"/>
        <pt x="104" y="848" on="0"/>
        <pt x="204" y="949" on="0"/>
        <pt x="286" y="949" on="1"/>
        <pt x="371" y="949" on="0"/>
        <pt x="469" y="853" on="0"/>
        <pt x="469" y="767" on="1"/>
        <pt x="469" y="683" on="0"/>
        <pt x="371" y="588" on="0"/>
        <pt x="286" y="588" on="1"/>
        <pt x="203" y="588" on="0"/>
        <pt x="104" y="683" on="0"/>
      </contour>
    </TTGlyph>
    <TTGlyph name="c" xMin="106" yMin="-27" xMax="738" yMax="1225">
      <contour>
        <pt x="106" y="568" on="1"/>
        <pt x="106" y="630" on="1"/>
        <pt x="106" y="710" on="0"/>
        <pt x="108" y="795" on="0"/>
        <pt x="120" y="942" on="0"/>
        <pt x="143" y="1024" on="0"/>
        <pt x="191" y="1130" on="0"/>
        <pt x="259" y="1185" on="0"/>
        <pt x="365" y="1225" on="0"/>
        <pt x="433" y="1225" on="1"/>
        <pt x="502" y="1225" on="0"/>
        <pt x="607" y="1180" on="0"/>
        <pt x="672" y="1108" on="0"/>
        <pt x="714" y="998" on="0"/>
        <pt x="732" y="888" on="0"/>
        <pt x="736" y="817" on="1"/>
        <pt x="736" y="815" on="0"/>
        <pt x="737" y="808" on="0"/>
        <pt x="737" y="806" on="1"/>
        <pt x="587" y="806" on="1"/>
        <pt x="587" y="815" on="1"/>
        <pt x="581" y="984" on="0"/>
        <pt x="514" y="1124" on="0"/>
        <pt x="433" y="1124" on="1"/>
        <pt x="394" y="1124" on="0"/>
        <pt x="337" y="1102" on="0"/>
        <pt x="298" y="1046" on="0"/>
        <pt x="274" y="975" on="0"/>
        <pt x="260" y="854" on="0"/>
        <pt x="256" y="726" on="0"/>
        <pt x="256" y="630" on="1"/>
        <pt x="256" y="568" on="1"/>
        <pt x="256" y="287" on="0"/>
        <pt x="326" y="74" on="0"/>
        <pt x="433" y="74" on="1"/>
        <pt x="512" y="74" on="0"/>
        <pt x="579" y="218" on="0"/>
        <pt x="587" y="393" on="1"/>
        <pt x="587" y="403" on="1"/>
        <pt x="738" y="403" on="1"/>
        <pt x="738" y="396" on="1"/>
        <pt x="735" y="320" on="0"/>
        <pt x="718" y="205" on="0"/>
        <pt x="677" y="91" on="0"/>
        <pt x="612" y="18" on="0"/>
        <pt x="505" y="-27" on="0"/>
        <pt x="433" y="-27" on="1"/>
        <pt x="373" y="-27" on="0"/>
        <pt x="277" y="-3" on="0"/>
        <pt x="210" y="53" on="0"/>
        <pt x="161" y="108" on="0"/>
        <pt x="132" y="210" on="0"/>
        <pt x="115" y="282" on="0"/>
        <pt x="107" y="416" on="0"/>
        <pt x="106" y="493" on="0"/>
      </contour>
    </TTGlyph>
    <TTGlyph name="cacute" xMin="106" yMin="-27" xMax="738" yMax="1786">
      <component glyphName="acute" x="298" y="64" flags="0x1004"/>
      <component glyphName="c" x="0" y="0" flags="0x1204"/>
    </TTGlyph>
    <TTGlyph name="caron" xMin="74" yMin="1324" xMax="548" yMax="1671">
      <contour>
        <pt x="283" y="1324" on="1"/>
        <pt x="74" y="1671" on="1"/>
        <pt x="216" y="1671" on="1"/>
        <pt x="311" y="1434" on="1"/>
        <pt x="406" y="1671" on="1"/>
        <pt x="548" y="1671" on="1"/>
        <pt x="339" y="1324" on="1"/>
      </contour>
    </TTGlyph>
    <TTGlyph name="ccaron" xMin="106" yMin="-27" xMax="738" yMax="1735">
      <component glyphName="caron" x="111" y="64" flags="0x1004"/>
      <component glyphName="c" x="0" y="0" flags="0x1204"/>
    </TTGlyph>
    <TTGlyph name="ccedilla" xMin="106" yMin="-408" xMax="738" yMax="1225">
      <component glyphName="cedilla" x="235" y="-14" flags="0x1004"/>
      <component glyphName="c" x="0" y="0" flags="0x1204"/>
    </TTGlyph>
    <TTGlyph name="ccircumflex" xMin="106" yMin="-27" xMax="738" yMax="1695">
      <component glyphName="circumflex" x="67" y="-20" flags="0x1004"/>
      <component glyphName="c" x="0" y="0" flags="0x1204"/>
    </TTGlyph>
    <TTGlyph name="cdotaccent" xMin="106" yMin="-27" xMax="738" yMax="1567">
      <component glyphName="dotaccent" x="217" y="8" flags="0x1004"/>
      <component glyphName="c" x="0" y="0" flags="0x1204"/>
    </TTGlyph>
    <TTGlyph name="cedilla" xMin="111" yMin="-394" xMax="361" yMax="0">
      <contour>
        <pt x="111" y="-394" on="1"/>
        <pt x="111" y="-335" on="1"/>
        <pt x="258" y="-335" on="0"/>
        <pt x="258" y="-268" on="1"/>
        <pt x="258" y="-237" on="0"/>
        <pt x="200" y="-164" on="0"/>
        <pt x="155" y="-134" on="1"/>
        <pt x="155" y="0" on="1"/>
        <pt x="219" y="0" on="1"/>
        <pt x="219" y="-115" on="1"/>
        <pt x="361" y="-198" on="0"/>
        <pt x="361" y="-277" on="1"/>
        <pt x="361" y="-329" on="0"/>
        <pt x="228" y="-394" on="0"/>
      </contour>
    </TTGlyph>
    <TTGlyph name="cent" xMin="76" yMin="87" xMax="708" yMax="1543">
      <contour>
        <pt x="370" y="87" on="1"/>
        <pt x="370" y="240" on="1"/>
        <pt x="309" y="244" on="0"/>
        <pt x="214" y="284" on="0"/>
        <pt x="152" y="334" on="0"/>
        <pt x="110" y="430" on="0"/>
        <pt x="88" y="503" on="0"/>
        <pt x="78" y="638" on="0"/>
        <pt x="76" y="717" on="0"/>
        <pt x="76" y="794" on="1"/>
        <pt x="76" y="856" on="1"/>
        <pt x="76" y="928" on="0"/>
        <pt x="77" y="1003" on="0"/>
        <pt x="88" y="1136" on="0"/>
        <pt x="109" y="1211" on="0"/>
        <pt x="152" y="1310" on="0"/>
        <pt x="213" y="1363" on="0"/>
        <pt x="308" y="1406" on="0"/>
        <pt x="369" y="1410" on="1"/>
        <pt x="369" y="1543" on="1"/>
        <pt x="434" y="1543" on="1"/>
        <pt x="434" y="1409" on="1"/>
        <pt x="510" y="1403" on="0"/>
        <pt x="616" y="1336" on="0"/>
        <pt x="674" y="1218" on="0"/>
        <pt x="701" y="1091" on="0"/>
        <pt x="706" y="1006" on="1"/>
        <pt x="706" y="1004" on="0"/>
        <pt x="707" y="994" on="0"/>
        <pt x="707" y="992" on="1"/>
        <pt x="557" y="992" on="1"/>
        <pt x="557" y="1006" on="1"/>
        <pt x="556" y="1038" on="0"/>
        <pt x="554" y="1064" on="0"/>
        <pt x="549" y="1133" on="0"/>
        <pt x="540" y="1169" on="0"/>
        <pt x="526" y="1227" on="0"/>
        <pt x="503" y="1259" on="0"/>
        <pt x="472" y="1294" on="0"/>
        <pt x="428" y="1309" on="0"/>
        <pt x="401" y="1309" on="1"/>
        <pt x="366" y="1309" on="0"/>
        <pt x="314" y="1290" on="0"/>
        <pt x="277" y="1261" on="0"/>
        <pt x="252" y="1197" on="0"/>
        <pt x="238" y="1139" on="0"/>
        <pt x="230" y="1027" on="0"/>
        <pt x="227" y="937" on="0"/>
        <pt x="226" y="856" on="1"/>
        <pt x="226" y="794" on="1"/>
        <pt x="226" y="708" on="0"/>
        <pt x="231" y="590" on="0"/>
        <pt x="244" y="480" on="0"/>
        <pt x="268" y="413" on="0"/>
        <pt x="307" y="361" on="0"/>
        <pt x="362" y="339" on="0"/>
        <pt x="400" y="339" on="1"/>
        <pt x="421" y="339" on="0"/>
        <pt x="457" y="349" on="0"/>
        <pt x="485" y="372" on="0"/>
        <pt x="507" y="393" on="0"/>
        <pt x="524" y="435" on="0"/>
        <pt x="536" y="461" on="0"/>
        <pt x="544" y="516" on="0"/>
        <pt x="549" y="542" on="0"/>
        <pt x="553" y="603" on="0"/>
        <pt x="555" y="622" on="0"/>
        <pt x="556" y="652" on="1"/>
        <pt x="556" y="655" on="0"/>
        <pt x="557" y="667" on="0"/>
        <pt x="557" y="669" on="1"/>
        <pt x="708" y="669" on="1"/>
        <pt x="708" y="667" on="0"/>
        <pt x="707" y="659" on="0"/>
        <pt x="707" y="657" on="1"/>
        <pt x="704" y="585" on="0"/>
        <pt x="688" y="475" on="0"/>
        <pt x="651" y="366" on="0"/>
        <pt x="593" y="294" on="0"/>
        <pt x="499" y="245" on="0"/>
        <pt x="435" y="240" on="1"/>
        <pt x="435" y="87" on="1"/>
      </contour>
    </TTGlyph>
    <TTGlyph name="circumflex" xMin="94" yMin="1408" xMax="616" yMax="1715">
      <contour>
        <pt x="94" y="1408" on="1"/>
        <pt x="250" y="1715" on="1"/>
        <pt x="463" y="1715" on="1"/>
        <pt x="616" y="1408" on="1"/>
        <pt x="506" y="1408" on="1"/>
        <pt x="356" y="1707" on="1"/>
        <pt x="207" y="1408" on="1"/>
      </contour>
    </TTGlyph>
    <TTGlyph name="colon" xMin="125" yMin="275" xMax="310" yMax="992">
      <contour>
        <pt x="125" y="275" on="1"/>
        <pt x="125" y="454" on="1"/>
        <pt x="310" y="454" on="1"/>
        <pt x="310" y="275" on="1"/>
      </contour>
      <contour>
        <pt x="125" y="813" on="1"/>
        <pt x="125" y="992" on="1"/>
        <pt x="310" y="992" on="1"/>
        <pt x="310" y="813" on="1"/>
      </contour>
    </TTGlyph>
    <TTGlyph name="comma" xMin="111" yMin="-256" xMax="296" yMax="179">
      <contour>
        <pt x="160" y="-256" on="1"/>
        <pt x="133" y="-201" on="1"/>
        <pt x="165" y="-189" on="0"/>
        <pt x="211" y="-137" on="0"/>
        <pt x="231" y="-73" on="0"/>
        <pt x="239" y="-22" on="0"/>
        <pt x="239" y="0" on="1"/>
        <pt x="111" y="0" on="1"/>
        <pt x="111" y="179" on="1"/>
        <pt x="296" y="179" on="1"/>
        <pt x="296" y="171" on="0"/>
        <pt x="296" y="156" on="1"/>
        <pt x="296" y="102" on="0"/>
        <pt x="295" y="49" on="0"/>
        <pt x="293" y="-44" on="0"/>
        <pt x="285" y="-91" on="0"/>
        <pt x="273" y="-160" on="0"/>
        <pt x="253" y="-196" on="0"/>
        <pt x="225" y="-235" on="0"/>
        <pt x="185" y="-253" on="0"/>
      </contour>
    </TTGlyph>
    <TTGlyph name="copyright" xMin="66" yMin="-2" xMax="1326" yMax="1316">
      <contour>
        <pt x="591" y="67" on="0"/>
        <pt x="801" y="67" on="0"/>
        <pt x="979" y="133" on="0"/>
        <pt x="1104" y="246" on="0"/>
        <pt x="1193" y="397" on="0"/>
        <pt x="1236" y="567" on="0"/>
        <pt x="1236" y="747" on="0"/>
        <pt x="1193" y="917" on="0"/>
        <pt x="1104" y="1068" on="0"/>
        <pt x="979" y="1181" on="0"/>
        <pt x="801" y="1247" on="0"/>
        <pt x="591" y="1247" on="0"/>
        <pt x="413" y="1181" on="0"/>
        <pt x="288" y="1068" on="0"/>
        <pt x="199" y="917" on="0"/>
        <pt x="156" y="747" on="0"/>
        <pt x="156" y="567" on="0"/>
        <pt x="199" y="397" on="0"/>
        <pt x="288" y="246" on="0"/>
        <pt x="413" y="133" on="0"/>
      </contour>
      <contour>
        <pt x="818" y="-2" on="0"/>
        <pt x="574" y="-2" on="0"/>
        <pt x="367" y="72" on="0"/>
        <pt x="220" y="198" on="0"/>
        <pt x="116" y="367" on="0"/>
        <pt x="66" y="557" on="0"/>
        <pt x="66" y="757" on="0"/>
        <pt x="116" y="947" on="0"/>
        <pt x="220" y="1116" on="0"/>
        <pt x="367" y="1242" on="0"/>
        <pt x="574" y="1316" on="0"/>
        <pt x="818" y="1316" on="0"/>
        <pt x="1025" y="1242" on="0"/>
        <pt x="1172" y="1116" on="0"/>
        <pt x="1276" y="947" on="0"/>
        <pt x="1326" y="757" on="0"/>
        <pt x="1326" y="557" on="0"/>
        <pt x="1276" y="367" on="0"/>
        <pt x="1172" y="198" on="0"/>
        <pt x="1025" y="72" on="0"/>
      </contour>
      <contour>
        <pt x="830" y="505" on="1"/>
        <pt x="917" y="505" on="1"/>
        <pt x="917" y="499" on="0"/>
        <pt x="916" y="478" on="0"/>
        <pt x="908" y="419" on="0"/>
        <pt x="893" y="366" on="0"/>
        <pt x="861" y="301" on="0"/>
        <pt x="817" y="254" on="0"/>
        <pt x="746" y="222" on="0"/>
        <pt x="702" y="222" on="1"/>
        <pt x="663" y="222" on="0"/>
        <pt x="599" y="240" on="0"/>
        <pt x="553" y="267" on="0"/>
        <pt x="516" y="315" on="0"/>
        <pt x="492" y="360" on="0"/>
        <pt x="476" y="431" on="0"/>
        <pt x="467" y="484" on="0"/>
        <pt x="463" y="569" on="0"/>
        <pt x="462" y="622" on="0"/>
        <pt x="462" y="712" on="0"/>
        <pt x="463" y="765" on="0"/>
        <pt x="467" y="850" on="0"/>
        <pt x="476" y="903" on="0"/>
        <pt x="492" y="974" on="0"/>
        <pt x="516" y="1019" on="0"/>
        <pt x="553" y="1067" on="0"/>
        <pt x="599" y="1094" on="0"/>
        <pt x="663" y="1112" on="0"/>
        <pt x="702" y="1112" on="1"/>
        <pt x="748" y="1112" on="0"/>
        <pt x="821" y="1079" on="0"/>
        <pt x="865" y="1035" on="0"/>
        <pt x="896" y="966" on="0"/>
        <pt x="910" y="919" on="0"/>
        <pt x="917" y="852" on="0"/>
        <pt x="917" y="841" on="0"/>
        <pt x="917" y="829" on="1"/>
        <pt x="830" y="829" on="1"/>
        <pt x="829" y="876" on="0"/>
        <pt x="818" y="943" on="0"/>
        <pt x="792" y="1007" on="0"/>
        <pt x="740" y="1040" on="0"/>
        <pt x="701" y="1040" on="1"/>
        <pt x="667" y="1040" on="0"/>
        <pt x="620" y="1024" on="0"/>
        <pt x="587" y="982" on="0"/>
        <pt x="568" y="931" on="0"/>
        <pt x="558" y="837" on="0"/>
        <pt x="555" y="743" on="0"/>
        <pt x="555" y="591" on="0"/>
        <pt x="558" y="497" on="0"/>
        <pt x="568" y="403" on="0"/>
        <pt x="587" y="352" on="0"/>
        <pt x="620" y="310" on="0"/>
        <pt x="667" y="294" on="0"/>
        <pt x="701" y="294" on="1"/>
        <pt x="740" y="294" on="0"/>
        <pt x="792" y="327" on="0"/>
        <pt x="818" y="391" on="0"/>
        <pt x="829" y="458" on="0"/>
      </contour>
    </TTGlyph>
    <TTGlyph name="currency" xMin="106" yMin="151" xMax="926" yMax="1108">
      <contour>
        <pt x="516" y="311" on="1"/>
        <pt x="613" y="313" on="0"/>
        <pt x="755" y="409" on="0"/>
        <pt x="821" y="552" on="0"/>
        <pt x="821" y="635" on="1"/>
        <pt x="821" y="764" on="0"/>
        <pt x="660" y="955" on="0"/>
        <pt x="516" y="959" on="1"/>
        <pt x="371" y="955" on="0"/>
        <pt x="211" y="765" on="0"/>
        <pt x="211" y="635" on="1"/>
        <pt x="211" y="552" on="0"/>
        <pt x="276" y="410" on="0"/>
        <pt x="418" y="313" on="0"/>
      </contour>
      <contour>
        <pt x="168" y="189" on="1"/>
        <pt x="246" y="313" on="1"/>
        <pt x="178" y="372" on="0"/>
        <pt x="106" y="542" on="0"/>
        <pt x="106" y="635" on="1"/>
        <pt x="106" y="726" on="0"/>
        <pt x="175" y="895" on="0"/>
        <pt x="241" y="953" on="1"/>
        <pt x="168" y="1070" on="1"/>
        <pt x="222" y="1108" on="1"/>
        <pt x="294" y="992" on="1"/>
        <pt x="390" y="1051" on="0"/>
        <pt x="516" y="1051" on="1"/>
        <pt x="653" y="1051" on="0"/>
        <pt x="752" y="982" on="1"/>
        <pt x="831" y="1108" on="1"/>
        <pt x="885" y="1070" on="1"/>
        <pt x="803" y="941" on="1"/>
        <pt x="863" y="882" on="0"/>
        <pt x="926" y="721" on="0"/>
        <pt x="926" y="635" on="1"/>
        <pt x="926" y="547" on="0"/>
        <pt x="861" y="384" on="0"/>
        <pt x="799" y="325" on="1"/>
        <pt x="885" y="189" on="1"/>
        <pt x="831" y="151" on="1"/>
        <pt x="747" y="284" on="1"/>
        <pt x="648" y="219" on="0"/>
        <pt x="516" y="219" on="1"/>
        <pt x="393" y="219" on="0"/>
        <pt x="299" y="275" on="1"/>
        <pt x="222" y="151" on="1"/>
      </contour>
    </TTGlyph>
    <TTGlyph name="d" xMin="101" yMin="-27" xMax="746" yMax="1721">
      <contour>
        <pt x="596" y="205" on="1"/>
        <pt x="596" y="995" on="1"/>
        <pt x="489" y="1114" on="0"/>
        <pt x="395" y="1114" on="1"/>
        <pt x="373" y="1114" on="0"/>
        <pt x="344" y="1106" on="0"/>
        <pt x="307" y="1078" on="0"/>
        <pt x="284" y="1015" on="0"/>
        <pt x="261" y="914" on="0"/>
        <pt x="251" y="750" on="0"/>
        <pt x="251" y="640" on="1"/>
        <pt x="251" y="545" on="1"/>
        <pt x="251" y="451" on="0"/>
        <pt x="260" y="305" on="0"/>
        <pt x="274" y="209" on="0"/>
        <pt x="298" y="142" on="0"/>
        <pt x="320" y="106" on="0"/>
        <pt x="355" y="88" on="0"/>
        <pt x="380" y="84" on="0"/>
        <pt x="400" y="84" on="1"/>
        <pt x="445" y="84" on="0"/>
        <pt x="551" y="151" on="0"/>
      </contour>
      <contour>
        <pt x="596" y="0" on="1"/>
        <pt x="596" y="113" on="1"/>
        <pt x="506" y="-27" on="0"/>
        <pt x="354" y="-27" on="1"/>
        <pt x="327" y="-27" on="0"/>
        <pt x="283" y="-18" on="0"/>
        <pt x="229" y="11" on="0"/>
        <pt x="187" y="60" on="0"/>
        <pt x="145" y="147" on="0"/>
        <pt x="118" y="264" on="0"/>
        <pt x="101" y="438" on="0"/>
        <pt x="101" y="546" on="1"/>
        <pt x="101" y="641" on="1"/>
        <pt x="101" y="796" on="0"/>
        <pt x="134" y="1019" on="0"/>
        <pt x="182" y="1139" on="0"/>
        <pt x="258" y="1208" on="0"/>
        <pt x="322" y="1225" on="0"/>
        <pt x="365" y="1225" on="1"/>
        <pt x="428" y="1225" on="0"/>
        <pt x="549" y="1154" on="0"/>
        <pt x="596" y="1085" on="1"/>
        <pt x="596" y="1721" on="1"/>
        <pt x="746" y="1721" on="1"/>
        <pt x="746" y="0" on="1"/>
      </contour>
    </TTGlyph>
    <TTGlyph name="dagger" xMin="18" yMin="0" xMax="586" yMax="1459">
      <contour>
        <pt x="244" y="0" on="1"/>
        <pt x="244" y="1034" on="1"/>
        <pt x="18" y="1034" on="1"/>
        <pt x="18" y="1117" on="1"/>
        <pt x="244" y="1117" on="1"/>
        <pt x="244" y="1459" on="1"/>
        <pt x="362" y="1459" on="1"/>
        <pt x="362" y="1117" on="1"/>
        <pt x="586" y="1117" on="1"/>
        <pt x="586" y="1034" on="1"/>
        <pt x="362" y="1034" on="1"/>
        <pt x="362" y="0" on="1"/>
      </contour>
    </TTGlyph>
    <TTGlyph name="daggerdbl" xMin="18" yMin="0" xMax="586" yMax="1459">
      <contour>
        <pt x="244" y="0" on="1"/>
        <pt x="244" y="448" on="1"/>
        <pt x="18" y="448" on="1"/>
        <pt x="18" y="537" on="1"/>
        <pt x="244" y="537" on="1"/>
        <pt x="244" y="1114" on="1"/>
        <pt x="18" y="1114" on="1"/>
        <pt x="18" y="1197" on="1"/>
        <pt x="244" y="1197" on="1"/>
        <pt x="244" y="1459" on="1"/>
        <pt x="362" y="1459" on="1"/>
        <pt x="362" y="1197" on="1"/>
        <pt x="586" y="1197" on="1"/>
        <pt x="586" y="1114" on="1"/>
        <pt x="362" y="1114" on="1"/>
        <pt x="362" y="537" on="1"/>
        <pt x="586" y="537" on="1"/>
        <pt x="586" y="448" on="1"/>
        <pt x="362" y="448" on="1"/>
        <pt x="362" y="0" on="1"/>
      </contour>
    </TTGlyph>
    <TTGlyph name="dcaron" xMin="101" yMin="-27" xMax="1176" yMax="1721">
      <component glyphName="comma" x="880" y="1542" flags="0x1004"/>
      <component glyphName="d" x="0" y="0" flags="0x1004"/>
    </TTGlyph>
    <TTGlyph name="dcroat" xMin="101" yMin="-27" xMax="860" yMax="1721">
      <contour>
        <pt x="418" y="1399" on="1"/>
        <pt x="418" y="1484" on="1"/>
        <pt x="596" y="1484" on="1"/>
        <pt x="596" y="1721" on="1"/>
        <pt x="746" y="1721" on="1"/>
        <pt x="746" y="1484" on="1"/>
        <pt x="860" y="1484" on="1"/>
        <pt x="860" y="1399" on="1"/>
        <pt x="746" y="1399" on="1"/>
        <pt x="746" y="0" on="1"/>
        <pt x="596" y="0" on="1"/>
        <pt x="596" y="113" on="1"/>
        <pt x="506" y="-27" on="0"/>
        <pt x="354" y="-27" on="1"/>
        <pt x="327" y="-27" on="0"/>
        <pt x="283" y="-18" on="0"/>
        <pt x="229" y="11" on="0"/>
        <pt x="187" y="60" on="0"/>
        <pt x="145" y="147" on="0"/>
        <pt x="118" y="264" on="0"/>
        <pt x="101" y="438" on="0"/>
        <pt x="101" y="546" on="1"/>
        <pt x="101" y="641" on="1"/>
        <pt x="101" y="796" on="0"/>
        <pt x="134" y="1019" on="0"/>
        <pt x="182" y="1139" on="0"/>
        <pt x="258" y="1208" on="0"/>
        <pt x="322" y="1225" on="0"/>
        <pt x="365" y="1225" on="1"/>
        <pt x="428" y="1225" on="0"/>
        <pt x="549" y="1154" on="0"/>
        <pt x="596" y="1085" on="1"/>
        <pt x="596" y="1399" on="1"/>
      </contour>
      <contour>
        <pt x="596" y="205" on="1"/>
        <pt x="596" y="995" on="1"/>
        <pt x="489" y="1114" on="0"/>
        <pt x="395" y="1114" on="1"/>
        <pt x="373" y="1114" on="0"/>
        <pt x="344" y="1106" on="0"/>
        <pt x="307" y="1078" on="0"/>
        <pt x="284" y="1015" on="0"/>
        <pt x="261" y="914" on="0"/>
        <pt x="251" y="750" on="0"/>
        <pt x="251" y="640" on="1"/>
        <pt x="251" y="545" on="1"/>
        <pt x="251" y="451" on="0"/>
        <pt x="260" y="305" on="0"/>
        <pt x="274" y="209" on="0"/>
        <pt x="298" y="142" on="0"/>
        <pt x="320" y="106" on="0"/>
        <pt x="355" y="88" on="0"/>
        <pt x="380" y="84" on="0"/>
        <pt x="400" y="84" on="1"/>
        <pt x="445" y="84" on="0"/>
        <pt x="551" y="151" on="0"/>
      </contour>
    </TTGlyph>
    <TTGlyph name="degree" xMin="98" yMin="1286" xMax="536" yMax="1722">
      <contour>
        <pt x="210" y="1722" on="0"/>
        <pt x="424" y="1722" on="0"/>
        <pt x="536" y="1592" on="0"/>
        <pt x="536" y="1416" on="0"/>
        <pt x="424" y="1286" on="0"/>
        <pt x="210" y="1286" on="0"/>
        <pt x="98" y="1416" on="0"/>
        <pt x="98" y="1592" on="0"/>
      </contour>
      <contour>
        <pt x="176" y="1563" on="0"/>
        <pt x="176" y="1445" on="0"/>
        <pt x="244" y="1357" on="0"/>
        <pt x="390" y="1357" on="0"/>
        <pt x="458" y="1445" on="0"/>
        <pt x="458" y="1563" on="0"/>
        <pt x="390" y="1651" on="0"/>
        <pt x="244" y="1651" on="0"/>
      </contour>
    </TTGlyph>
    <TTGlyph name="dieresis" xMin="113" yMin="1386" xMax="681" yMax="1565">
      <contour>
        <pt x="497" y="1386" on="1"/>
        <pt x="497" y="1565" on="1"/>
        <pt x="681" y="1565" on="1"/>
        <pt x="681" y="1386" on="1"/>
      </contour>
      <contour>
        <pt x="113" y="1386" on="1"/>
        <pt x="113" y="1565" on="1"/>
        <pt x="297" y="1565" on="1"/>
        <pt x="297" y="1386" on="1"/>
      </contour>
    </TTGlyph>
    <TTGlyph name="divide" xMin="35" yMin="233" xMax="603" yMax="1058">
      <contour>
        <pt x="227" y="233" on="1"/>
        <pt x="227" y="412" on="1"/>
        <pt x="411" y="412" on="1"/>
        <pt x="411" y="233" on="1"/>
      </contour>
      <contour>
        <pt x="227" y="879" on="1"/>
        <pt x="227" y="1058" on="1"/>
        <pt x="411" y="1058" on="1"/>
        <pt x="411" y="879" on="1"/>
      </contour>
      <contour>
        <pt x="35" y="576" on="1"/>
        <pt x="35" y="691" on="1"/>
        <pt x="603" y="691" on="1"/>
        <pt x="603" y="576" on="1"/>
      </contour>
    </TTGlyph>
    <TTGlyph name="dollar" xMin="57" yMin="-138" xMax="914" yMax="1747">
      <contour>
        <pt x="197" y="484" on="1"/>
        <pt x="212" y="330" on="0"/>
        <pt x="366" y="129" on="0"/>
        <pt x="500" y="125" on="1"/>
        <pt x="578" y="125" on="0"/>
        <pt x="694" y="169" on="0"/>
        <pt x="769" y="279" on="0"/>
        <pt x="769" y="364" on="1"/>
        <pt x="769" y="517" on="0"/>
        <pt x="534" y="700" on="1"/>
        <pt x="239" y="930" on="1"/>
        <pt x="57" y="1078" on="0"/>
        <pt x="57" y="1234" on="1"/>
        <pt x="57" y="1394" on="0"/>
        <pt x="274" y="1589" on="0"/>
        <pt x="446" y="1594" on="1"/>
        <pt x="446" y="1747" on="1"/>
        <pt x="534" y="1747" on="1"/>
        <pt x="534" y="1591" on="1"/>
        <pt x="681" y="1573" on="0"/>
        <pt x="874" y="1371" on="0"/>
        <pt x="895" y="1206" on="1"/>
        <pt x="769" y="1167" on="1"/>
        <pt x="749" y="1292" on="0"/>
        <pt x="592" y="1470" on="0"/>
        <pt x="482" y="1470" on="1"/>
        <pt x="204" y="1470" on="0"/>
        <pt x="204" y="1254" on="1"/>
        <pt x="204" y="1137" on="0"/>
        <pt x="345" y="1020" on="1"/>
        <pt x="628" y="795" on="1"/>
        <pt x="693" y="742" on="0"/>
        <pt x="778" y="662" on="0"/>
        <pt x="869" y="553" on="0"/>
        <pt x="914" y="438" on="0"/>
        <pt x="914" y="377" on="1"/>
        <pt x="914" y="207" on="0"/>
        <pt x="704" y="13" on="0"/>
        <pt x="534" y="4" on="1"/>
        <pt x="534" y="-138" on="1"/>
        <pt x="446" y="-138" on="1"/>
        <pt x="446" y="6" on="1"/>
        <pt x="337" y="18" on="0"/>
        <pt x="172" y="146" on="0"/>
        <pt x="81" y="330" on="0"/>
        <pt x="63" y="445" on="1"/>
      </contour>
    </TTGlyph>
    <TTGlyph name="dotaccent" xMin="113" yMin="1380" xMax="297" yMax="1559">
      <contour>
        <pt x="113" y="1380" on="1"/>
        <pt x="113" y="1559" on="1"/>
        <pt x="297" y="1559" on="1"/>
        <pt x="297" y="1380" on="1"/>
      </contour>
    </TTGlyph>
    <TTGlyph name="dotlessi" xMin="132" yMin="0" xMax="282" yMax="1198">
      <contour>
        <pt x="132" y="0" on="1"/>
        <pt x="132" y="1198" on="1"/>
        <pt x="282" y="1198" on="1"/>
        <pt x="282" y="0" on="1"/>
      </contour>
    </TTGlyph>
    <TTGlyph name="e" xMin="104" yMin="-27" xMax="739" yMax="1225">
      <contour>
        <pt x="258" y="702" on="1"/>
        <pt x="590" y="702" on="1"/>
        <pt x="589" y="742" on="0"/>
        <pt x="591" y="824" on="0"/>
        <pt x="587" y="907" on="0"/>
        <pt x="580" y="983" on="0"/>
        <pt x="560" y="1048" on="0"/>
        <pt x="530" y="1096" on="0"/>
        <pt x="478" y="1124" on="0"/>
        <pt x="444" y="1124" on="1"/>
        <pt x="389" y="1124" on="0"/>
        <pt x="318" y="1084" on="0"/>
        <pt x="279" y="1030" on="0"/>
        <pt x="261" y="902" on="0"/>
        <pt x="258" y="805" on="0"/>
      </contour>
      <contour>
        <pt x="106" y="552" on="1"/>
        <pt x="106" y="719" on="1"/>
        <pt x="107" y="844" on="0"/>
        <pt x="141" y="1027" on="0"/>
        <pt x="196" y="1137" on="0"/>
        <pt x="283" y="1202" on="0"/>
        <pt x="375" y="1225" on="0"/>
        <pt x="437" y="1225" on="1"/>
        <pt x="598" y="1225" on="0"/>
        <pt x="739" y="997" on="0"/>
        <pt x="739" y="751" on="1"/>
        <pt x="739" y="676" on="0"/>
        <pt x="737" y="628" on="1"/>
        <pt x="257" y="628" on="1"/>
        <pt x="257" y="445" on="1"/>
        <pt x="257" y="327" on="0"/>
        <pt x="280" y="176" on="0"/>
        <pt x="330" y="100" on="0"/>
        <pt x="390" y="74" on="0"/>
        <pt x="436" y="74" on="1"/>
        <pt x="503" y="74" on="0"/>
        <pt x="594" y="209" on="0"/>
        <pt x="595" y="367" on="1"/>
        <pt x="735" y="367" on="1"/>
        <pt x="729" y="299" on="0"/>
        <pt x="709" y="193" on="0"/>
        <pt x="666" y="87" on="0"/>
        <pt x="603" y="17" on="0"/>
        <pt x="503" y="-27" on="0"/>
        <pt x="438" y="-27" on="1"/>
        <pt x="311" y="-27" on="0"/>
        <pt x="170" y="74" on="0"/>
        <pt x="104" y="325" on="0"/>
      </contour>
    </TTGlyph>
    <TTGlyph name="eacute" xMin="104" yMin="-27" xMax="739" yMax="1786">
      <component glyphName="acute" x="298" y="64" flags="0x1004"/>
      <component glyphName="e" x="0" y="0" flags="0x1204"/>
    </TTGlyph>
    <TTGlyph name="ecaron" xMin="104" yMin="-27" xMax="739" yMax="1735">
      <component glyphName="caron" x="111" y="64" flags="0x1004"/>
      <component glyphName="e" x="0" y="0" flags="0x1204"/>
    </TTGlyph>
    <TTGlyph name="ecircumflex" xMin="104" yMin="-27" xMax="739" yMax="1695">
      <component glyphName="circumflex" x="67" y="-20" flags="0x1004"/>
      <component glyphName="e" x="0" y="0" flags="0x1204"/>
    </TTGlyph>
    <TTGlyph name="edieresis" xMin="104" yMin="-27" xMax="739" yMax="1567">
      <component glyphName="dieresis" x="25" y="2" flags="0x1004"/>
      <component glyphName="e" x="0" y="0" flags="0x1204"/>
    </TTGlyph>
    <TTGlyph name="edotaccent" xMin="104" yMin="-27" xMax="739" yMax="1526">
      <component glyphName="dotaccent" x="217" y="-33" flags="0x1004"/>
      <component glyphName="e" x="0" y="0" flags="0x1204"/>
    </TTGlyph>
    <TTGlyph name="egrave" xMin="104" yMin="-27" xMax="739" yMax="1786">
      <component glyphName="grave" x="95" y="64" flags="0x1004"/>
      <component glyphName="e" x="0" y="0" flags="0x1204"/>
    </TTGlyph>
    <TTGlyph name="eight" xMin="79" yMin="-27" xMax="875" yMax="1745">
      <contour>
        <pt x="477" y="977" on="1"/>
        <pt x="615" y="985" on="0"/>
        <pt x="723" y="1137" on="0"/>
        <pt x="723" y="1317" on="1"/>
        <pt x="723" y="1485" on="0"/>
        <pt x="605" y="1623" on="0"/>
        <pt x="349" y="1623" on="0"/>
        <pt x="231" y="1485" on="0"/>
        <pt x="231" y="1317" on="1"/>
        <pt x="231" y="1137" on="0"/>
        <pt x="339" y="985" on="0"/>
      </contour>
      <contour>
        <pt x="477" y="847" on="1"/>
        <pt x="343" y="832" on="0"/>
        <pt x="231" y="632" on="0"/>
        <pt x="231" y="459" on="1"/>
        <pt x="231" y="350" on="0"/>
        <pt x="262" y="206" on="0"/>
        <pt x="327" y="127" on="0"/>
        <pt x="414" y="95" on="0"/>
        <pt x="540" y="95" on="0"/>
        <pt x="627" y="127" on="0"/>
        <pt x="692" y="206" on="0"/>
        <pt x="723" y="350" on="0"/>
        <pt x="723" y="459" on="1"/>
        <pt x="723" y="632" on="0"/>
        <pt x="611" y="832" on="0"/>
      </contour>
      <contour>
        <pt x="314" y="910" on="1"/>
        <pt x="211" y="940" on="0"/>
        <pt x="79" y="1150" on="0"/>
        <pt x="79" y="1316" on="1"/>
        <pt x="79" y="1409" on="0"/>
        <pt x="124" y="1561" on="0"/>
        <pt x="216" y="1679" on="0"/>
        <pt x="372" y="1745" on="0"/>
        <pt x="582" y="1745" on="0"/>
        <pt x="738" y="1679" on="0"/>
        <pt x="830" y="1561" on="0"/>
        <pt x="875" y="1409" on="0"/>
        <pt x="875" y="1316" on="1"/>
        <pt x="875" y="1150" on="0"/>
        <pt x="743" y="940" on="0"/>
        <pt x="640" y="910" on="1"/>
        <pt x="875" y="816" on="0"/>
        <pt x="875" y="462" on="1"/>
        <pt x="875" y="-27" on="0"/>
        <pt x="79" y="-27" on="0"/>
        <pt x="79" y="462" on="1"/>
        <pt x="79" y="816" on="0"/>
      </contour>
    </TTGlyph>
    <TTGlyph name="emacron" xMin="104" yMin="-27" xMax="739" yMax="1503">
      <component glyphName="macron" x="71" y="5" flags="0x1004"/>
      <component glyphName="e" x="0" y="0" flags="0x1204"/>
    </TTGlyph>
    <TTGlyph name="emdash" xMin="117" yMin="448" xMax="1091" yMax="563">
      <contour>
        <pt x="117" y="448" on="1"/>
        <pt x="117" y="563" on="1"/>
        <pt x="1091" y="563" on="1"/>
        <pt x="1091" y="448" on="1"/>
      </contour>
    </TTGlyph>
    <TTGlyph name="endash" xMin="117" yMin="448" xMax="691" yMax="563">
      <contour>
        <pt x="117" y="448" on="1"/>
        <pt x="117" y="563" on="1"/>
        <pt x="691" y="563" on="1"/>
        <pt x="691" y="448" on="1"/>
      </contour>
    </TTGlyph>
    <TTGlyph name="eogonek" xMin="104" yMin="-373" xMax="739" yMax="1225">
      <component glyphName="ogonek" x="135" y="-15" flags="0x1004"/>
      <component glyphName="e" x="0" y="0" flags="0x1204"/>
    </TTGlyph>
    <TTGlyph name="equal" xMin="127" yMin="255" xMax="632" yMax="691">
      <contour>
        <pt x="127" y="255" on="1"/>
        <pt x="127" y="370" on="1"/>
        <pt x="632" y="370" on="1"/>
        <pt x="632" y="255" on="1"/>
      </contour>
      <contour>
        <pt x="127" y="576" on="1"/>
        <pt x="127" y="691" on="1"/>
        <pt x="632" y="691" on="1"/>
        <pt x="632" y="576" on="1"/>
      </contour>
    </TTGlyph>
    <TTGlyph name="eth" xMin="84" yMin="-27" xMax="793" yMax="1745">
      <contour>
        <pt x="234" y="545" on="1"/>
        <pt x="234" y="531" on="1"/>
        <pt x="234" y="367" on="0"/>
        <pt x="276" y="172" on="0"/>
        <pt x="352" y="95" on="0"/>
        <pt x="412" y="95" on="1"/>
        <pt x="453" y="95" on="0"/>
        <pt x="508" y="112" on="0"/>
        <pt x="560" y="167" on="0"/>
        <pt x="591" y="265" on="0"/>
        <pt x="609" y="432" on="0"/>
        <pt x="609" y="551" on="1"/>
        <pt x="609" y="702" on="0"/>
        <pt x="594" y="931" on="1"/>
        <pt x="571" y="952" on="0"/>
        <pt x="456" y="977" on="0"/>
        <pt x="402" y="977" on="1"/>
        <pt x="346" y="977" on="0"/>
        <pt x="275" y="901" on="0"/>
        <pt x="235" y="707" on="0"/>
      </contour>
      <contour>
        <pt x="84" y="532" on="1"/>
        <pt x="84" y="537" on="1"/>
        <pt x="84" y="661" on="0"/>
        <pt x="120" y="860" on="0"/>
        <pt x="194" y="1014" on="0"/>
        <pt x="318" y="1099" on="0"/>
        <pt x="402" y="1099" on="1"/>
        <pt x="517" y="1099" on="0"/>
        <pt x="585" y="1054" on="1"/>
        <pt x="559" y="1238" on="0"/>
        <pt x="517" y="1358" on="1"/>
        <pt x="352" y="1321" on="1"/>
        <pt x="352" y="1416" on="1"/>
        <pt x="480" y="1445" on="1"/>
        <pt x="430" y="1538" on="0"/>
        <pt x="283" y="1613" on="0"/>
        <pt x="166" y="1623" on="1"/>
        <pt x="152" y="1745" on="1"/>
        <pt x="319" y="1733" on="0"/>
        <pt x="544" y="1607" on="0"/>
        <pt x="614" y="1475" on="1"/>
        <pt x="793" y="1516" on="1"/>
        <pt x="793" y="1421" on="1"/>
        <pt x="653" y="1389" on="1"/>
        <pt x="757" y="1118" on="0"/>
        <pt x="758" y="535" on="1"/>
        <pt x="758" y="510" on="1"/>
        <pt x="758" y="246" on="0"/>
        <pt x="594" y="-27" on="0"/>
        <pt x="412" y="-27" on="1"/>
        <pt x="325" y="-27" on="0"/>
        <pt x="196" y="57" on="0"/>
        <pt x="120" y="211" on="0"/>
        <pt x="84" y="409" on="0"/>
      </contour>
    </TTGlyph>
    <TTGlyph name="exclam" xMin="117" yMin="0" xMax="323" yMax="1719">
      <contour>
        <pt x="138" y="0" on="1"/>
        <pt x="138" y="179" on="1"/>
        <pt x="323" y="179" on="1"/>
        <pt x="323" y="0" on="1"/>
      </contour>
      <contour>
        <pt x="197" y="388" on="1"/>
        <pt x="117" y="1719" on="1"/>
        <pt x="311" y="1719" on="1"/>
        <pt x="251" y="388" on="1"/>
      </contour>
    </TTGlyph>
    <TTGlyph name="exclamdown" xMin="119" yMin="-343" xMax="325" yMax="1377">
      <contour>
        <pt x="304" y="1377" on="1"/>
        <pt x="304" y="1198" on="1"/>
        <pt x="119" y="1198" on="1"/>
        <pt x="119" y="1377" on="1"/>
      </contour>
      <contour>
        <pt x="245" y="989" on="1"/>
        <pt x="325" y="-343" on="1"/>
        <pt x="131" y="-343" on="1"/>
        <pt x="191" y="989" on="1"/>
      </contour>
    </TTGlyph>
    <TTGlyph name="f" xMin="10" yMin="0" xMax="519" yMax="1652">
      <contour>
        <pt x="177" y="0" on="1"/>
        <pt x="177" y="1114" on="1"/>
        <pt x="10" y="1114" on="1"/>
        <pt x="10" y="1198" on="1"/>
        <pt x="177" y="1198" on="1"/>
        <pt x="177" y="1327" on="1"/>
        <pt x="177" y="1333" on="0"/>
        <pt x="177" y="1345" on="1"/>
        <pt x="177" y="1377" on="0"/>
        <pt x="177" y="1415" on="0"/>
        <pt x="185" y="1487" on="0"/>
        <pt x="200" y="1534" on="0"/>
        <pt x="232" y="1593" on="0"/>
        <pt x="277" y="1628" on="0"/>
        <pt x="349" y="1652" on="0"/>
        <pt x="394" y="1652" on="1"/>
        <pt x="463" y="1652" on="0"/>
        <pt x="516" y="1639" on="1"/>
        <pt x="516" y="1530" on="1"/>
        <pt x="492" y="1536" on="0"/>
        <pt x="442" y="1536" on="1"/>
        <pt x="409" y="1536" on="0"/>
        <pt x="363" y="1516" on="0"/>
        <pt x="340" y="1492" on="0"/>
        <pt x="328" y="1444" on="0"/>
        <pt x="327" y="1414" on="0"/>
        <pt x="327" y="1386" on="1"/>
        <pt x="327" y="1381" on="0"/>
        <pt x="327" y="1378" on="1"/>
        <pt x="327" y="1198" on="1"/>
        <pt x="519" y="1198" on="1"/>
        <pt x="519" y="1114" on="1"/>
        <pt x="327" y="1114" on="1"/>
        <pt x="327" y="0" on="1"/>
      </contour>
    </TTGlyph>
    <TTGlyph name="five" xMin="123" yMin="-27" xMax="889" yMax="1721">
      <contour>
        <pt x="123" y="430" on="1"/>
        <pt x="275" y="441" on="1"/>
        <pt x="275" y="335" on="0"/>
        <pt x="302" y="198" on="0"/>
        <pt x="362" y="123" on="0"/>
        <pt x="441" y="95" on="0"/>
        <pt x="501" y="95" on="1"/>
        <pt x="623" y="95" on="0"/>
        <pt x="737" y="296" on="0"/>
        <pt x="737" y="535" on="1"/>
        <pt x="737" y="764" on="0"/>
        <pt x="630" y="954" on="0"/>
        <pt x="510" y="954" on="1"/>
        <pt x="445" y="954" on="0"/>
        <pt x="310" y="884" on="0"/>
        <pt x="264" y="814" on="1"/>
        <pt x="142" y="814" on="1"/>
        <pt x="142" y="1721" on="1"/>
        <pt x="801" y="1721" on="1"/>
        <pt x="787" y="1599" on="1"/>
        <pt x="294" y="1599" on="1"/>
        <pt x="273" y="966" on="1"/>
        <pt x="320" y="1016" on="0"/>
        <pt x="463" y="1076" on="0"/>
        <pt x="540" y="1076" on="1"/>
        <pt x="634" y="1076" on="0"/>
        <pt x="772" y="993" on="0"/>
        <pt x="852" y="841" on="0"/>
        <pt x="889" y="652" on="0"/>
        <pt x="889" y="536" on="1"/>
        <pt x="889" y="415" on="0"/>
        <pt x="845" y="216" on="0"/>
        <pt x="756" y="60" on="0"/>
        <pt x="603" y="-27" on="0"/>
        <pt x="501" y="-27" on="1"/>
        <pt x="303" y="-27" on="0"/>
        <pt x="123" y="205" on="0"/>
      </contour>
    </TTGlyph>
    <TTGlyph name="florin" xMin="-41" yMin="-394" xMax="487" yMax="1652">
      <contour>
        <pt x="-41" y="-381" on="1"/>
        <pt x="-41" y="-272" on="1"/>
        <pt x="-17" y="-278" on="0"/>
        <pt x="33" y="-278" on="1"/>
        <pt x="66" y="-278" on="0"/>
        <pt x="112" y="-258" on="0"/>
        <pt x="135" y="-234" on="0"/>
        <pt x="147" y="-186" on="0"/>
        <pt x="148" y="-156" on="0"/>
        <pt x="148" y="-128" on="1"/>
        <pt x="148" y="-123" on="0"/>
        <pt x="148" y="-120" on="1"/>
        <pt x="148" y="1367" on="1"/>
        <pt x="148" y="1408" on="0"/>
        <pt x="153" y="1471" on="0"/>
        <pt x="178" y="1556" on="0"/>
        <pt x="222" y="1612" on="0"/>
        <pt x="306" y="1652" on="0"/>
        <pt x="365" y="1652" on="1"/>
        <pt x="434" y="1652" on="0"/>
        <pt x="487" y="1639" on="1"/>
        <pt x="487" y="1530" on="1"/>
        <pt x="463" y="1536" on="0"/>
        <pt x="413" y="1536" on="1"/>
        <pt x="380" y="1536" on="0"/>
        <pt x="334" y="1516" on="0"/>
        <pt x="311" y="1492" on="0"/>
        <pt x="299" y="1444" on="0"/>
        <pt x="298" y="1414" on="0"/>
        <pt x="298" y="1386" on="1"/>
        <pt x="298" y="1381" on="0"/>
        <pt x="298" y="1378" on="1"/>
        <pt x="298" y="-110" on="1"/>
        <pt x="298" y="-151" on="0"/>
        <pt x="293" y="-213" on="0"/>
        <pt x="268" y="-299" on="0"/>
        <pt x="224" y="-354" on="0"/>
        <pt x="140" y="-394" on="0"/>
        <pt x="81" y="-394" on="1"/>
        <pt x="12" y="-394" on="0"/>
      </contour>
    </TTGlyph>
    <TTGlyph name="four" xMin="27" yMin="0" xMax="828" yMax="1723">
      <contour>
        <pt x="186" y="622" on="1"/>
        <pt x="505" y="622" on="1"/>
        <pt x="504" y="1596" on="1"/>
      </contour>
      <contour>
        <pt x="505" y="0" on="1"/>
        <pt x="505" y="509" on="1"/>
        <pt x="27" y="509" on="1"/>
        <pt x="27" y="614" on="1"/>
        <pt x="424" y="1723" on="1"/>
        <pt x="657" y="1723" on="1"/>
        <pt x="657" y="622" on="1"/>
        <pt x="828" y="622" on="1"/>
        <pt x="828" y="509" on="1"/>
        <pt x="657" y="509" on="1"/>
        <pt x="657" y="0" on="1"/>
      </contour>
    </TTGlyph>
    <TTGlyph name="fraction" xMin="-29" yMin="0" xMax="668" yMax="1721">
      <contour>
        <pt x="-29" y="0" on="1"/>
        <pt x="523" y="1721" on="1"/>
        <pt x="668" y="1721" on="1"/>
        <pt x="115" y="0" on="1"/>
      </contour>
    </TTGlyph>
    <TTGlyph name="g" xMin="17" yMin="-393" xMax="888" yMax="1224">
      <contour>
        <pt x="378" y="468" on="0"/>
        <pt x="478" y="468" on="0"/>
        <pt x="552" y="514" on="0"/>
        <pt x="592" y="580" on="0"/>
        <pt x="616" y="670" on="0"/>
        <pt x="623" y="740" on="0"/>
        <pt x="623" y="776" on="1"/>
        <pt x="623" y="811" on="0"/>
        <pt x="617" y="882" on="0"/>
        <pt x="592" y="979" on="0"/>
        <pt x="553" y="1051" on="0"/>
        <pt x="478" y="1103" on="0"/>
        <pt x="428" y="1103" on="1"/>
        <pt x="386" y="1103" on="0"/>
        <pt x="319" y="1068" on="0"/>
        <pt x="278" y="1008" on="0"/>
        <pt x="250" y="941" on="0"/>
        <pt x="237" y="862" on="0"/>
        <pt x="232" y="804" on="0"/>
        <pt x="232" y="776" on="1"/>
        <pt x="232" y="739" on="0"/>
        <pt x="238" y="670" on="0"/>
        <pt x="263" y="579" on="0"/>
        <pt x="303" y="514" on="0"/>
      </contour>
      <contour>
        <pt x="524" y="3" on="1"/>
        <pt x="310" y="49" on="1"/>
        <pt x="260" y="12" on="0"/>
        <pt x="159" y="-138" on="0"/>
        <pt x="159" y="-191" on="1"/>
        <pt x="159" y="-214" on="0"/>
        <pt x="180" y="-248" on="0"/>
        <pt x="225" y="-268" on="0"/>
        <pt x="264" y="-280" on="0"/>
        <pt x="334" y="-285" on="0"/>
        <pt x="370" y="-286" on="0"/>
        <pt x="405" y="-286" on="1"/>
        <pt x="414" y="-286" on="0"/>
        <pt x="418" y="-286" on="1"/>
        <pt x="683" y="-286" on="0"/>
        <pt x="683" y="-157" on="1"/>
        <pt x="683" y="-86" on="0"/>
        <pt x="609" y="-13" on="0"/>
      </contour>
      <contour>
        <pt x="214" y="210" on="1"/>
        <pt x="209" y="187" on="0"/>
        <pt x="273" y="165" on="0"/>
        <pt x="405" y="138" on="1"/>
        <pt x="446" y="130" on="0"/>
        <pt x="469" y="125" on="1"/>
        <pt x="551" y="108" on="0"/>
        <pt x="669" y="69" on="0"/>
        <pt x="772" y="10" on="0"/>
        <pt x="824" y="-75" on="0"/>
        <pt x="824" y="-130" on="1"/>
        <pt x="824" y="-180" on="0"/>
        <pt x="791" y="-261" on="0"/>
        <pt x="739" y="-315" on="0"/>
        <pt x="664" y="-355" on="0"/>
        <pt x="592" y="-377" on="0"/>
        <pt x="507" y="-390" on="0"/>
        <pt x="447" y="-393" on="0"/>
        <pt x="416" y="-393" on="1"/>
        <pt x="17" y="-393" on="0"/>
        <pt x="17" y="-236" on="1"/>
        <pt x="17" y="-135" on="0"/>
        <pt x="147" y="21" on="0"/>
        <pt x="241" y="69" on="1"/>
        <pt x="226" y="72" on="0"/>
        <pt x="159" y="91" on="0"/>
        <pt x="76" y="131" on="0"/>
        <pt x="76" y="150" on="1"/>
        <pt x="76" y="163" on="0"/>
        <pt x="83" y="194" on="0"/>
        <pt x="98" y="229" on="0"/>
        <pt x="114" y="262" on="0"/>
        <pt x="138" y="301" on="0"/>
        <pt x="156" y="330" on="0"/>
        <pt x="182" y="368" on="0"/>
        <pt x="196" y="386" on="0"/>
        <pt x="218" y="416" on="0"/>
        <pt x="219" y="418" on="1"/>
        <pt x="148" y="482" on="0"/>
        <pt x="79" y="684" on="0"/>
        <pt x="79" y="793" on="1"/>
        <pt x="79" y="851" on="0"/>
        <pt x="101" y="967" on="0"/>
        <pt x="154" y="1082" on="0"/>
        <pt x="231" y="1170" on="0"/>
        <pt x="350" y="1224" on="0"/>
        <pt x="423" y="1224" on="1"/>
        <pt x="519" y="1224" on="0"/>
        <pt x="646" y="1131" on="0"/>
        <pt x="706" y="1038" on="1"/>
        <pt x="725" y="1071" on="0"/>
        <pt x="754" y="1115" on="0"/>
        <pt x="802" y="1175" on="0"/>
        <pt x="858" y="1214" on="0"/>
        <pt x="888" y="1221" on="1"/>
        <pt x="888" y="1076" on="1"/>
        <pt x="850" y="1069" on="0"/>
        <pt x="768" y="1016" on="0"/>
        <pt x="737" y="981" on="1"/>
        <pt x="775" y="875" on="0"/>
        <pt x="775" y="800" on="1"/>
        <pt x="775" y="728" on="0"/>
        <pt x="751" y="600" on="0"/>
        <pt x="698" y="487" on="0"/>
        <pt x="618" y="405" on="0"/>
        <pt x="500" y="358" on="0"/>
        <pt x="427" y="358" on="1"/>
        <pt x="341" y="358" on="0"/>
        <pt x="283" y="382" on="1"/>
        <pt x="228" y="278" on="0"/>
      </contour>
    </TTGlyph>
    <TTGlyph name="gbreve" xMin="17" yMin="-393" xMax="888" yMax="1656">
      <component glyphName="breve" x="84" y="75" flags="0x1004"/>
      <component glyphName="g" x="0" y="0" flags="0x1204"/>
    </TTGlyph>
    <TTGlyph name="gcircumflex" xMin="17" yMin="-393" xMax="888" yMax="1695">
      <component glyphName="circumflex" x="98" y="-20" flags="0x1004"/>
      <component glyphName="g" x="0" y="0" flags="0x1204"/>
    </TTGlyph>
    <TTGlyph name="gcommaaccent" xMin="17" yMin="-393" xMax="888" yMax="1727">
      <contour>
        <pt x="501" y="1727" on="1"/>
        <pt x="528" y="1672" on="1"/>
        <pt x="496" y="1660" on="0"/>
        <pt x="450" y="1608" on="0"/>
        <pt x="430" y="1544" on="0"/>
        <pt x="422" y="1493" on="0"/>
        <pt x="422" y="1471" on="1"/>
        <pt x="550" y="1471" on="1"/>
        <pt x="550" y="1292" on="1"/>
        <pt x="365" y="1292" on="1"/>
        <pt x="365" y="1300" on="0"/>
        <pt x="365" y="1315" on="1"/>
        <pt x="365" y="1369" on="0"/>
        <pt x="366" y="1422" on="0"/>
        <pt x="368" y="1515" on="0"/>
        <pt x="376" y="1562" on="0"/>
        <pt x="388" y="1631" on="0"/>
        <pt x="408" y="1667" on="0"/>
        <pt x="436" y="1706" on="0"/>
        <pt x="476" y="1724" on="0"/>
      </contour>
      <contour>
        <pt x="378" y="468" on="0"/>
        <pt x="478" y="468" on="0"/>
        <pt x="552" y="514" on="0"/>
        <pt x="592" y="580" on="0"/>
        <pt x="616" y="670" on="0"/>
        <pt x="623" y="740" on="0"/>
        <pt x="623" y="776" on="1"/>
        <pt x="623" y="811" on="0"/>
        <pt x="617" y="882" on="0"/>
        <pt x="592" y="979" on="0"/>
        <pt x="553" y="1051" on="0"/>
        <pt x="478" y="1103" on="0"/>
        <pt x="428" y="1103" on="1"/>
        <pt x="386" y="1103" on="0"/>
        <pt x="319" y="1068" on="0"/>
        <pt x="278" y="1008" on="0"/>
        <pt x="250" y="941" on="0"/>
        <pt x="237" y="862" on="0"/>
        <pt x="232" y="804" on="0"/>
        <pt x="232" y="776" on="1"/>
        <pt x="232" y="739" on="0"/>
        <pt x="238" y="670" on="0"/>
        <pt x="263" y="579" on="0"/>
        <pt x="303" y="514" on="0"/>
      </contour>
      <contour>
        <pt x="524" y="3" on="1"/>
        <pt x="310" y="49" on="1"/>
        <pt x="260" y="12" on="0"/>
        <pt x="159" y="-138" on="0"/>
        <pt x="159" y="-191" on="1"/>
        <pt x="159" y="-214" on="0"/>
        <pt x="180" y="-248" on="0"/>
        <pt x="225" y="-268" on="0"/>
        <pt x="264" y="-280" on="0"/>
        <pt x="334" y="-285" on="0"/>
        <pt x="370" y="-286" on="0"/>
        <pt x="405" y="-286" on="1"/>
        <pt x="414" y="-286" on="0"/>
        <pt x="418" y="-286" on="1"/>
        <pt x="683" y="-286" on="0"/>
        <pt x="683" y="-157" on="1"/>
        <pt x="683" y="-86" on="0"/>
        <pt x="609" y="-13" on="0"/>
      </contour>
      <contour>
        <pt x="214" y="210" on="1"/>
        <pt x="209" y="187" on="0"/>
        <pt x="273" y="165" on="0"/>
        <pt x="405" y="138" on="1"/>
        <pt x="446" y="130" on="0"/>
        <pt x="469" y="125" on="1"/>
        <pt x="551" y="108" on="0"/>
        <pt x="669" y="69" on="0"/>
        <pt x="772" y="10" on="0"/>
        <pt x="824" y="-75" on="0"/>
        <pt x="824" y="-130" on="1"/>
        <pt x="824" y="-180" on="0"/>
        <pt x="791" y="-261" on="0"/>
        <pt x="739" y="-315" on="0"/>
        <pt x="664" y="-355" on="0"/>
        <pt x="592" y="-377" on="0"/>
        <pt x="507" y="-390" on="0"/>
        <pt x="447" y="-393" on="0"/>
        <pt x="416" y="-393" on="1"/>
        <pt x="17" y="-393" on="0"/>
        <pt x="17" y="-236" on="1"/>
        <pt x="17" y="-135" on="0"/>
        <pt x="147" y="21" on="0"/>
        <pt x="241" y="69" on="1"/>
        <pt x="226" y="72" on="0"/>
        <pt x="159" y="91" on="0"/>
        <pt x="76" y="131" on="0"/>
        <pt x="76" y="150" on="1"/>
        <pt x="76" y="163" on="0"/>
        <pt x="83" y="194" on="0"/>
        <pt x="98" y="229" on="0"/>
        <pt x="114" y="262" on="0"/>
        <pt x="138" y="301" on="0"/>
        <pt x="156" y="330" on="0"/>
        <pt x="182" y="368" on="0"/>
        <pt x="196" y="386" on="0"/>
        <pt x="218" y="416" on="0"/>
        <pt x="219" y="418" on="1"/>
        <pt x="148" y="482" on="0"/>
        <pt x="79" y="684" on="0"/>
        <pt x="79" y="793" on="1"/>
        <pt x="79" y="851" on="0"/>
        <pt x="101" y="967" on="0"/>
        <pt x="154" y="1082" on="0"/>
        <pt x="231" y="1170" on="0"/>
        <pt x="350" y="1224" on="0"/>
        <pt x="423" y="1224" on="1"/>
        <pt x="519" y="1224" on="0"/>
        <pt x="646" y="1131" on="0"/>
        <pt x="706" y="1038" on="1"/>
        <pt x="725" y="1071" on="0"/>
        <pt x="754" y="1115" on="0"/>
        <pt x="802" y="1175" on="0"/>
        <pt x="858" y="1214" on="0"/>
        <pt x="888" y="1221" on="1"/>
        <pt x="888" y="1076" on="1"/>
        <pt x="850" y="1069" on="0"/>
        <pt x="768" y="1016" on="0"/>
        <pt x="737" y="981" on="1"/>
        <pt x="775" y="875" on="0"/>
        <pt x="775" y="800" on="1"/>
        <pt x="775" y="728" on="0"/>
        <pt x="751" y="600" on="0"/>
        <pt x="698" y="487" on="0"/>
        <pt x="618" y="405" on="0"/>
        <pt x="500" y="358" on="0"/>
        <pt x="427" y="358" on="1"/>
        <pt x="341" y="358" on="0"/>
        <pt x="283" y="382" on="1"/>
        <pt x="228" y="278" on="0"/>
      </contour>
    </TTGlyph>
    <TTGlyph name="gdotaccent" xMin="17" yMin="-393" xMax="888" yMax="1567">
      <component glyphName="dotaccent" x="248" y="8" flags="0x1004"/>
      <component glyphName="g" x="0" y="0" flags="0x1204"/>
    </TTGlyph>
    <TTGlyph name="germandbls" xMin="137" yMin="-27" xMax="961" yMax="1746">
      <contour>
        <pt x="137" y="0" on="1"/>
        <pt x="137" y="1338" on="1"/>
        <pt x="137" y="1436" on="0"/>
        <pt x="200" y="1595" on="0"/>
        <pt x="305" y="1694" on="0"/>
        <pt x="436" y="1746" on="0"/>
        <pt x="506" y="1746" on="1"/>
        <pt x="575" y="1746" on="0"/>
        <pt x="702" y="1692" on="0"/>
        <pt x="805" y="1591" on="0"/>
        <pt x="866" y="1429" on="0"/>
        <pt x="866" y="1328" on="1"/>
        <pt x="866" y="1258" on="0"/>
        <pt x="820" y="1117" on="0"/>
        <pt x="719" y="995" on="0"/>
        <pt x="650" y="967" on="1"/>
        <pt x="724" y="950" on="0"/>
        <pt x="839" y="865" on="0"/>
        <pt x="905" y="759" on="0"/>
        <pt x="947" y="626" on="0"/>
        <pt x="961" y="512" on="0"/>
        <pt x="961" y="453" on="1"/>
        <pt x="961" y="-27" on="0"/>
        <pt x="384" y="-27" on="1"/>
        <pt x="384" y="89" on="1"/>
        <pt x="491" y="89" on="0"/>
        <pt x="648" y="131" on="0"/>
        <pt x="738" y="197" on="0"/>
        <pt x="792" y="297" on="0"/>
        <pt x="809" y="392" on="0"/>
        <pt x="809" y="453" on="1"/>
        <pt x="809" y="528" on="0"/>
        <pt x="793" y="648" on="0"/>
        <pt x="749" y="764" on="0"/>
        <pt x="678" y="842" on="0"/>
        <pt x="560" y="889" on="0"/>
        <pt x="481" y="889" on="1"/>
        <pt x="376" y="889" on="1"/>
        <pt x="376" y="1006" on="1"/>
        <pt x="483" y="1006" on="1"/>
        <pt x="544" y="1006" on="0"/>
        <pt x="633" y="1058" on="0"/>
        <pt x="681" y="1151" on="0"/>
        <pt x="703" y="1260" on="0"/>
        <pt x="703" y="1325" on="1"/>
        <pt x="703" y="1473" on="0"/>
        <pt x="582" y="1638" on="0"/>
        <pt x="499" y="1638" on="1"/>
        <pt x="414" y="1638" on="0"/>
        <pt x="289" y="1478" on="0"/>
        <pt x="289" y="1335" on="1"/>
        <pt x="289" y="0" on="1"/>
      </contour>
    </TTGlyph>
    <TTGlyph name="glyph00415" xMin="-70" yMin="277" xMax="1440" yMax="1710">
      <contour>
        <pt x="221" y="277" on="1"/>
        <pt x="389" y="819" on="1"/>
        <pt x="-70" y="1157" on="1"/>
        <pt x="502" y="1168" on="1"/>
        <pt x="680" y="1710" on="1"/>
        <pt x="868" y="1168" on="1"/>
        <pt x="1440" y="1168" on="1"/>
        <pt x="979" y="819" on="1"/>
        <pt x="1149" y="277" on="1"/>
        <pt x="680" y="604" on="1"/>
      </contour>
    </TTGlyph>
    <TTGlyph name="glyph00416" xMin="16" yMin="-18" xMax="1009" yMax="1623">
      <contour>
        <pt x="179" y="283" on="1"/>
        <pt x="179" y="1114" on="1"/>
        <pt x="16" y="1114" on="1"/>
        <pt x="16" y="1198" on="1"/>
        <pt x="179" y="1198" on="1"/>
        <pt x="179" y="1623" on="1"/>
        <pt x="329" y="1623" on="1"/>
        <pt x="329" y="1198" on="1"/>
        <pt x="667" y="1198" on="1"/>
        <pt x="667" y="1623" on="1"/>
        <pt x="817" y="1623" on="1"/>
        <pt x="817" y="1198" on="1"/>
        <pt x="1009" y="1198" on="1"/>
        <pt x="1009" y="1114" on="1"/>
        <pt x="817" y="1114" on="1"/>
        <pt x="817" y="290" on="1"/>
        <pt x="817" y="247" on="0"/>
        <pt x="819" y="198" on="0"/>
        <pt x="830" y="141" on="0"/>
        <pt x="851" y="113" on="0"/>
        <pt x="890" y="94" on="0"/>
        <pt x="919" y="94" on="1"/>
        <pt x="968" y="94" on="0"/>
        <pt x="1007" y="102" on="1"/>
        <pt x="1007" y="-1" on="1"/>
        <pt x="940" y="-18" on="0"/>
        <pt x="877" y="-18" on="1"/>
        <pt x="821" y="-18" on="0"/>
        <pt x="741" y="17" on="0"/>
        <pt x="698" y="69" on="0"/>
        <pt x="673" y="155" on="0"/>
        <pt x="667" y="230" on="0"/>
        <pt x="667" y="283" on="1"/>
        <pt x="667" y="1114" on="1"/>
        <pt x="329" y="1114" on="1"/>
        <pt x="329" y="290" on="1"/>
        <pt x="329" y="247" on="0"/>
        <pt x="331" y="198" on="0"/>
        <pt x="342" y="141" on="0"/>
        <pt x="363" y="113" on="0"/>
        <pt x="402" y="94" on="0"/>
        <pt x="431" y="94" on="1"/>
        <pt x="480" y="94" on="0"/>
        <pt x="519" y="102" on="1"/>
        <pt x="519" y="-1" on="1"/>
        <pt x="452" y="-18" on="0"/>
        <pt x="389" y="-18" on="1"/>
        <pt x="333" y="-18" on="0"/>
        <pt x="253" y="17" on="0"/>
        <pt x="210" y="69" on="0"/>
        <pt x="185" y="155" on="0"/>
        <pt x="179" y="230" on="0"/>
      </contour>
    </TTGlyph>
    <TTGlyph name="grave" xMin="70" yMin="1324" xMax="355" yMax="1722">
      <contour>
        <pt x="299" y="1324" on="1"/>
        <pt x="70" y="1722" on="1"/>
        <pt x="232" y="1722" on="1"/>
        <pt x="355" y="1324" on="1"/>
      </contour>
    </TTGlyph>
    <TTGlyph name="greater" xMin="102" yMin="94" xMax="671" yMax="1109">
      <contour>
        <pt x="102" y="94" on="1"/>
        <pt x="102" y="261" on="1"/>
        <pt x="579" y="603" on="1"/>
        <pt x="474" y="677" on="0"/>
        <pt x="102" y="942" on="1"/>
        <pt x="102" y="1109" on="1"/>
        <pt x="526" y="809" on="0"/>
        <pt x="671" y="709" on="1"/>
        <pt x="671" y="494" on="1"/>
      </contour>
    </TTGlyph>
    <TTGlyph name="guillemotleft" xMin="78" yMin="124" xMax="778" yMax="1156">
      <contour>
        <pt x="778" y="124" on="1"/>
        <pt x="390" y="576" on="1"/>
        <pt x="390" y="704" on="1"/>
        <pt x="778" y="1156" on="1"/>
        <pt x="778" y="956" on="1"/>
        <pt x="502" y="641" on="1"/>
        <pt x="778" y="324" on="1"/>
      </contour>
      <contour>
        <pt x="466" y="124" on="1"/>
        <pt x="78" y="576" on="1"/>
        <pt x="78" y="704" on="1"/>
        <pt x="466" y="1156" on="1"/>
        <pt x="466" y="956" on="1"/>
        <pt x="190" y="641" on="1"/>
        <pt x="466" y="324" on="1"/>
      </contour>
    </TTGlyph>
    <TTGlyph name="guillemotright" xMin="111" yMin="124" xMax="811" yMax="1156">
      <contour>
        <pt x="423" y="124" on="1"/>
        <pt x="423" y="324" on="1"/>
        <pt x="699" y="641" on="1"/>
        <pt x="423" y="956" on="1"/>
        <pt x="423" y="1156" on="1"/>
        <pt x="811" y="704" on="1"/>
        <pt x="811" y="576" on="1"/>
      </contour>
      <contour>
        <pt x="111" y="124" on="1"/>
        <pt x="111" y="324" on="1"/>
        <pt x="387" y="641" on="1"/>
        <pt x="111" y="956" on="1"/>
        <pt x="111" y="1156" on="1"/>
        <pt x="499" y="704" on="1"/>
        <pt x="499" y="576" on="1"/>
      </contour>
    </TTGlyph>
    <TTGlyph name="guilsinglleft" xMin="78" yMin="124" xMax="466" yMax="1156">
      <contour>
        <pt x="466" y="124" on="1"/>
        <pt x="78" y="576" on="1"/>
        <pt x="78" y="704" on="1"/>
        <pt x="466" y="1156" on="1"/>
        <pt x="466" y="956" on="1"/>
        <pt x="190" y="641" on="1"/>
        <pt x="466" y="324" on="1"/>
      </contour>
    </TTGlyph>
    <TTGlyph name="guilsinglright" xMin="78" yMin="124" xMax="466" yMax="1156">
      <contour>
        <pt x="78" y="124" on="1"/>
        <pt x="78" y="324" on="1"/>
        <pt x="354" y="641" on="1"/>
        <pt x="78" y="956" on="1"/>
        <pt x="78" y="1156" on="1"/>
        <pt x="466" y="704" on="1"/>
        <pt x="466" y="576" on="1"/>
      </contour>
    </TTGlyph>
    <TTGlyph name="h" xMin="120" yMin="0" xMax="748" yMax="1721">
      <contour>
        <pt x="120" y="0" on="1"/>
        <pt x="120" y="1721" on="1"/>
        <pt x="270" y="1721" on="1"/>
        <pt x="270" y="1085" on="1"/>
        <pt x="315" y="1155" on="0"/>
        <pt x="451" y="1225" on="0"/>
        <pt x="522" y="1225" on="1"/>
        <pt x="614" y="1225" on="0"/>
        <pt x="748" y="1077" on="0"/>
        <pt x="748" y="942" on="1"/>
        <pt x="748" y="0" on="1"/>
        <pt x="596" y="0" on="1"/>
        <pt x="596" y="934" on="1"/>
        <pt x="596" y="1114" on="0"/>
        <pt x="470" y="1114" on="1"/>
        <pt x="421" y="1114" on="0"/>
        <pt x="309" y="1045" on="0"/>
        <pt x="270" y="992" on="1"/>
        <pt x="270" y="0" on="1"/>
      </contour>
    </TTGlyph>
    <TTGlyph name="hbar" xMin="31" yMin="0" xMax="782" yMax="1721">
      <contour>
        <pt x="154" y="0" on="1"/>
        <pt x="154" y="1403" on="1"/>
        <pt x="31" y="1403" on="1"/>
        <pt x="31" y="1498" on="1"/>
        <pt x="154" y="1498" on="1"/>
        <pt x="154" y="1721" on="1"/>
        <pt x="304" y="1721" on="1"/>
        <pt x="304" y="1498" on="1"/>
        <pt x="472" y="1498" on="1"/>
        <pt x="472" y="1403" on="1"/>
        <pt x="304" y="1403" on="1"/>
        <pt x="304" y="1085" on="1"/>
        <pt x="350" y="1156" on="0"/>
        <pt x="479" y="1225" on="0"/>
        <pt x="548" y="1225" on="1"/>
        <pt x="641" y="1225" on="0"/>
        <pt x="782" y="1077" on="0"/>
        <pt x="782" y="942" on="1"/>
        <pt x="782" y="0" on="1"/>
        <pt x="630" y="0" on="1"/>
        <pt x="630" y="934" on="1"/>
        <pt x="630" y="1012" on="0"/>
        <pt x="557" y="1088" on="0"/>
        <pt x="461" y="1088" on="0"/>
        <pt x="351" y="1035" on="0"/>
        <pt x="305" y="992" on="1"/>
        <pt x="305" y="0" on="1"/>
      </contour>
    </TTGlyph>
    <TTGlyph name="hcircumflex" xMin="120" yMin="0" xMax="748" yMax="2191">
      <component glyphName="circumflex" x="79" y="476" flags="0x1004"/>
      <component glyphName="h" x="0" y="0" flags="0x1204"/>
    </TTGlyph>
    <TTGlyph name="hungarumlaut" xMin="100" yMin="1408" xMax="597" yMax="1721">
      <contour>
        <pt x="331" y="1408" on="1"/>
        <pt x="437" y="1721" on="1"/>
        <pt x="597" y="1721" on="1"/>
        <pt x="390" y="1408" on="1"/>
      </contour>
      <contour>
        <pt x="100" y="1408" on="1"/>
        <pt x="206" y="1721" on="1"/>
        <pt x="366" y="1721" on="1"/>
        <pt x="159" y="1408" on="1"/>
      </contour>
    </TTGlyph>
    <TTGlyph name="hyphen" xMin="117" yMin="448" xMax="430" yMax="563">
      <contour>
        <pt x="117" y="448" on="1"/>
        <pt x="117" y="563" on="1"/>
        <pt x="430" y="563" on="1"/>
        <pt x="430" y="448" on="1"/>
      </contour>
    </TTGlyph>
    <TTGlyph name="i" xMin="132" yMin="0" xMax="282" yMax="1651">
      <contour>
        <pt x="132" y="1472" on="1"/>
        <pt x="132" y="1651" on="1"/>
        <pt x="282" y="1651" on="1"/>
        <pt x="282" y="1472" on="1"/>
      </contour>
      <contour>
        <pt x="132" y="0" on="1"/>
        <pt x="132" y="1198" on="1"/>
        <pt x="282" y="1198" on="1"/>
        <pt x="282" y="0" on="1"/>
      </contour>
    </TTGlyph>
    <TTGlyph name="iacute" xMin="132" yMin="0" xMax="464" yMax="1786">
      <component glyphName="acute" x="83" y="64" flags="0x1004"/>
      <component glyphName="dotlessi" x="0" y="0" flags="0x1204"/>
    </TTGlyph>
    <TTGlyph name="ibreve" xMin="-69" yMin="0" xMax="483" yMax="1656">
      <component glyphName="breve" x="-161" y="75" flags="0x1004"/>
      <component glyphName="dotlessi" x="0" y="0" flags="0x1204"/>
    </TTGlyph>
    <TTGlyph name="icircumflex" xMin="-54" yMin="0" xMax="468" yMax="1695">
      <component glyphName="circumflex" x="-148" y="-20" flags="0x1004"/>
      <component glyphName="dotlessi" x="0" y="0" flags="0x1204"/>
    </TTGlyph>
    <TTGlyph name="idieresis" xMin="-77" yMin="0" xMax="491" yMax="1567">
      <component glyphName="dieresis" x="-190" y="2" flags="0x1004"/>
      <component glyphName="dotlessi" x="0" y="0" flags="0x1204"/>
    </TTGlyph>
    <TTGlyph name="igrave" xMin="-50" yMin="0" xMax="282" yMax="1786">
      <component glyphName="grave" x="-120" y="64" flags="0x1004"/>
      <component glyphName="dotlessi" x="0" y="0" flags="0x1204"/>
    </TTGlyph>
    <TTGlyph name="ij" xMin="132" yMin="-320" xMax="703" yMax="1652">
      <component glyphName="j" x="405" y="0" flags="0x1004"/>
      <component glyphName="i" x="0" y="0" flags="0x1004"/>
    </TTGlyph>
    <TTGlyph name="imacron" xMin="-13" yMin="0" xMax="428" yMax="1503">
      <component glyphName="macron" x="-144" y="5" flags="0x1004"/>
      <component glyphName="dotlessi" x="0" y="0" flags="0x1204"/>
    </TTGlyph>
    <TTGlyph name="integral" xMin="-41" yMin="-394" xMax="519" yMax="1652">
      <contour>
        <pt x="-41" y="-381" on="1"/>
        <pt x="-41" y="-272" on="1"/>
        <pt x="-17" y="-278" on="0"/>
        <pt x="33" y="-278" on="1"/>
        <pt x="66" y="-278" on="0"/>
        <pt x="112" y="-258" on="0"/>
        <pt x="135" y="-234" on="0"/>
        <pt x="147" y="-186" on="0"/>
        <pt x="148" y="-156" on="0"/>
        <pt x="148" y="-128" on="1"/>
        <pt x="148" y="-123" on="0"/>
        <pt x="148" y="-120" on="1"/>
        <pt x="148" y="1114" on="1"/>
        <pt x="10" y="1114" on="1"/>
        <pt x="10" y="1198" on="1"/>
        <pt x="148" y="1198" on="1"/>
        <pt x="148" y="1367" on="1"/>
        <pt x="148" y="1408" on="0"/>
        <pt x="153" y="1471" on="0"/>
        <pt x="178" y="1556" on="0"/>
        <pt x="222" y="1612" on="0"/>
        <pt x="306" y="1652" on="0"/>
        <pt x="365" y="1652" on="1"/>
        <pt x="434" y="1652" on="0"/>
        <pt x="487" y="1639" on="1"/>
        <pt x="487" y="1530" on="1"/>
        <pt x="463" y="1536" on="0"/>
        <pt x="413" y="1536" on="1"/>
        <pt x="380" y="1536" on="0"/>
        <pt x="334" y="1516" on="0"/>
        <pt x="311" y="1492" on="0"/>
        <pt x="299" y="1444" on="0"/>
        <pt x="298" y="1414" on="0"/>
        <pt x="298" y="1386" on="1"/>
        <pt x="298" y="1381" on="0"/>
        <pt x="298" y="1378" on="1"/>
        <pt x="298" y="1198" on="1"/>
        <pt x="519" y="1198" on="1"/>
        <pt x="519" y="1114" on="1"/>
        <pt x="298" y="1114" on="1"/>
        <pt x="298" y="-110" on="1"/>
        <pt x="298" y="-151" on="0"/>
        <pt x="293" y="-213" on="0"/>
        <pt x="268" y="-299" on="0"/>
        <pt x="224" y="-354" on="0"/>
        <pt x="140" y="-394" on="0"/>
        <pt x="81" y="-394" on="1"/>
        <pt x="12" y="-394" on="0"/>
      </contour>
    </TTGlyph>
    <TTGlyph name="iogonek" xMin="18" yMin="-346" xMax="298" yMax="1651">
      <component glyphName="ogonek" x="-80" y="12" flags="0x1004"/>
      <component glyphName="i" x="0" y="0" flags="0x1204"/>
    </TTGlyph>
    <TTGlyph name="itilde" xMin="-70" yMin="0" xMax="484" yMax="1587">
      <component glyphName="tilde" x="-172" y="24" flags="0x1004"/>
      <component glyphName="dotlessi" x="0" y="0" flags="0x1204"/>
    </TTGlyph>
    <TTGlyph name="j" xMin="-44" yMin="-320" xMax="298" yMax="1652">
      <contour>
        <pt x="148" y="1473" on="1"/>
        <pt x="148" y="1652" on="1"/>
        <pt x="298" y="1652" on="1"/>
        <pt x="298" y="1473" on="1"/>
      </contour>
      <contour>
        <pt x="-44" y="-312" on="1"/>
        <pt x="-44" y="-204" on="1"/>
        <pt x="2" y="-206" on="0"/>
        <pt x="12" y="-206" on="1"/>
        <pt x="45" y="-206" on="0"/>
        <pt x="94" y="-188" on="0"/>
        <pt x="122" y="-153" on="0"/>
        <pt x="140" y="-119" on="0"/>
        <pt x="146" y="-68" on="0"/>
        <pt x="148" y="-40" on="0"/>
        <pt x="148" y="-18" on="1"/>
        <pt x="148" y="1198" on="1"/>
        <pt x="298" y="1198" on="1"/>
        <pt x="298" y="-46" on="1"/>
        <pt x="298" y="-320" on="0"/>
        <pt x="37" y="-320" on="1"/>
        <pt x="-3" y="-320" on="0"/>
      </contour>
    </TTGlyph>
    <TTGlyph name="jcircumflex" xMin="-92" yMin="-320" xMax="430" yMax="1695">
      <component glyphName="circumflex" x="-186" y="-20" flags="0x1004"/>
      <component glyphName="uni0237" x="0" y="0" flags="0x1204"/>
    </TTGlyph>
    <TTGlyph name="k" xMin="120" yMin="0" xMax="813" yMax="1721">
      <contour>
        <pt x="120" y="0" on="1"/>
        <pt x="120" y="1721" on="1"/>
        <pt x="270" y="1721" on="1"/>
        <pt x="270" y="630" on="1"/>
        <pt x="644" y="1198" on="1"/>
        <pt x="813" y="1198" on="1"/>
        <pt x="526" y="744" on="1"/>
        <pt x="811" y="0" on="1"/>
        <pt x="654" y="0" on="1"/>
        <pt x="419" y="653" on="1"/>
        <pt x="270" y="470" on="1"/>
        <pt x="270" y="0" on="1"/>
      </contour>
    </TTGlyph>
    <TTGlyph name="kcommaaccent" xMin="120" yMin="-598" xMax="813" yMax="1721">
      <component glyphName="uni0326" x="218" y="-76" flags="0x1004"/>
      <component glyphName="k" x="0" y="0" flags="0x1204"/>
    </TTGlyph>
    <TTGlyph name="kgreenlandic" xMin="120" yMin="0" xMax="816" yMax="1198">
      <contour>
        <pt x="120" y="0" on="1"/>
        <pt x="120" y="1198" on="1"/>
        <pt x="270" y="1198" on="1"/>
        <pt x="270" y="600" on="1"/>
        <pt x="644" y="1198" on="1"/>
        <pt x="815" y="1198" on="1"/>
        <pt x="520" y="717" on="1"/>
        <pt x="816" y="0" on="1"/>
        <pt x="654" y="0" on="1"/>
        <pt x="411" y="619" on="1"/>
        <pt x="270" y="420" on="1"/>
        <pt x="270" y="0" on="1"/>
      </contour>
    </TTGlyph>
    <TTGlyph name="l" xMin="146" yMin="0" xMax="296" yMax="1721">
      <contour>
        <pt x="146" y="0" on="1"/>
        <pt x="146" y="1721" on="1"/>
        <pt x="296" y="1721" on="1"/>
        <pt x="296" y="0" on="1"/>
      </contour>
    </TTGlyph>
    <TTGlyph name="lacute" xMin="146" yMin="0" xMax="478" yMax="2282">
      <component glyphName="acute" x="97" y="560" flags="0x1004"/>
      <component glyphName="l" x="0" y="0" flags="0x1204"/>
    </TTGlyph>
    <TTGlyph name="lcaron" xMin="146" yMin="0" xMax="726" yMax="1721">
      <component glyphName="comma" x="430" y="1542" flags="0x1004"/>
      <component glyphName="l" x="0" y="0" flags="0x1004"/>
    </TTGlyph>
    <TTGlyph name="lcommaaccent" xMin="128" yMin="-598" xMax="313" yMax="1721">
      <component glyphName="uni0326" x="-28" y="-76" flags="0x1004"/>
      <component glyphName="l" x="0" y="0" flags="0x1204"/>
    </TTGlyph>
    <TTGlyph name="ldot" xMin="146" yMin="0" xMax="758" yMax="1721">
      <component glyphName="periodcentered" x="442" y="0" flags="0x1004"/>
      <component glyphName="l" x="0" y="0" flags="0x1004"/>
    </TTGlyph>
    <TTGlyph name="less" xMin="76" yMin="94" xMax="645" yMax="1107">
      <contour>
        <pt x="76" y="494" on="1"/>
        <pt x="76" y="709" on="1"/>
        <pt x="645" y="1107" on="1"/>
        <pt x="645" y="942" on="1"/>
        <pt x="168" y="603" on="1"/>
        <pt x="264" y="534" on="0"/>
        <pt x="540" y="337" on="0"/>
        <pt x="645" y="261" on="1"/>
        <pt x="645" y="94" on="1"/>
        <pt x="219" y="392" on="0"/>
      </contour>
    </TTGlyph>
    <TTGlyph name="logicalnot" xMin="100" yMin="256" xMax="540" yMax="563">
      <contour>
        <pt x="100" y="448" on="1"/>
        <pt x="100" y="563" on="1"/>
        <pt x="540" y="563" on="1"/>
        <pt x="540" y="256" on="1"/>
        <pt x="484" y="256" on="1"/>
        <pt x="484" y="448" on="1"/>
      </contour>
    </TTGlyph>
    <TTGlyph name="lslash" xMin="43" yMin="0" xMax="469" yMax="1721">
      <contour>
        <pt x="183" y="0" on="1"/>
        <pt x="183" y="873" on="1"/>
        <pt x="43" y="806" on="1"/>
        <pt x="43" y="921" on="1"/>
        <pt x="183" y="988" on="1"/>
        <pt x="183" y="1721" on="1"/>
        <pt x="333" y="1721" on="1"/>
        <pt x="333" y="1061" on="1"/>
        <pt x="469" y="1127" on="1"/>
        <pt x="469" y="1012" on="1"/>
        <pt x="333" y="946" on="1"/>
        <pt x="333" y="0" on="1"/>
      </contour>
    </TTGlyph>
    <TTGlyph name="m" xMin="120" yMin="0" xMax="1223" yMax="1225">
      <contour>
        <pt x="120" y="0" on="1"/>
        <pt x="120" y="1198" on="1"/>
        <pt x="271" y="1198" on="1"/>
        <pt x="271" y="1087" on="1"/>
        <pt x="388" y="1225" on="0"/>
        <pt x="537" y="1225" on="1"/>
        <pt x="598" y="1225" on="0"/>
        <pt x="712" y="1149" on="0"/>
        <pt x="737" y="1089" on="1"/>
        <pt x="796" y="1156" on="0"/>
        <pt x="936" y="1225" on="0"/>
        <pt x="994" y="1225" on="1"/>
        <pt x="1086" y="1225" on="0"/>
        <pt x="1223" y="1097" on="0"/>
        <pt x="1223" y="1001" on="1"/>
        <pt x="1223" y="0" on="1"/>
        <pt x="1073" y="0" on="1"/>
        <pt x="1073" y="970" on="1"/>
        <pt x="1073" y="1045" on="0"/>
        <pt x="1006" y="1114" on="0"/>
        <pt x="950" y="1114" on="1"/>
        <pt x="857" y="1114" on="0"/>
        <pt x="760" y="1017" on="1"/>
        <pt x="760" y="0" on="1"/>
        <pt x="610" y="0" on="1"/>
        <pt x="610" y="971" on="1"/>
        <pt x="610" y="1114" on="0"/>
        <pt x="483" y="1114" on="1"/>
        <pt x="432" y="1114" on="0"/>
        <pt x="319" y="1050" on="0"/>
        <pt x="270" y="995" on="1"/>
        <pt x="270" y="0" on="1"/>
      </contour>
    </TTGlyph>
    <TTGlyph name="macron" xMin="131" yMin="1383" xMax="572" yMax="1498">
      <contour>
        <pt x="131" y="1383" on="1"/>
        <pt x="131" y="1498" on="1"/>
        <pt x="572" y="1498" on="1"/>
        <pt x="572" y="1383" on="1"/>
      </contour>
    </TTGlyph>
    <TTGlyph name="minus" xMin="106" yMin="461" xMax="610" yMax="576">
      <contour>
        <pt x="106" y="461" on="1"/>
        <pt x="106" y="576" on="1"/>
        <pt x="610" y="576" on="1"/>
        <pt x="610" y="461" on="1"/>
      </contour>
    </TTGlyph>
    <TTGlyph name="multiply" xMin="51" yMin="334" xMax="587" yMax="869">
      <contour>
        <pt x="51" y="410" on="1"/>
        <pt x="243" y="602" on="1"/>
        <pt x="51" y="794" on="1"/>
        <pt x="127" y="869" on="1"/>
        <pt x="319" y="677" on="1"/>
        <pt x="511" y="869" on="1"/>
        <pt x="587" y="794" on="1"/>
        <pt x="395" y="602" on="1"/>
        <pt x="562" y="434" on="0"/>
        <pt x="587" y="410" on="1"/>
        <pt x="511" y="334" on="1"/>
        <pt x="319" y="526" on="1"/>
        <pt x="127" y="334" on="1"/>
      </contour>
    </TTGlyph>
    <TTGlyph name="n" xMin="120" yMin="0" xMax="748" yMax="1225">
      <contour>
        <pt x="120" y="0" on="1"/>
        <pt x="120" y="1198" on="1"/>
        <pt x="270" y="1198" on="1"/>
        <pt x="270" y="1085" on="1"/>
        <pt x="318" y="1155" on="0"/>
        <pt x="452" y="1225" on="0"/>
        <pt x="524" y="1225" on="1"/>
        <pt x="613" y="1225" on="0"/>
        <pt x="748" y="1076" on="0"/>
        <pt x="748" y="941" on="1"/>
        <pt x="748" y="0" on="1"/>
        <pt x="596" y="0" on="1"/>
        <pt x="596" y="944" on="1"/>
        <pt x="596" y="1033" on="0"/>
        <pt x="526" y="1114" on="0"/>
        <pt x="469" y="1114" on="1"/>
        <pt x="422" y="1114" on="0"/>
        <pt x="315" y="1049" on="0"/>
        <pt x="270" y="993" on="1"/>
        <pt x="270" y="0" on="1"/>
      </contour>
    </TTGlyph>
    <TTGlyph name="nacute" xMin="120" yMin="0" xMax="748" yMax="1786">
      <component glyphName="acute" x="310" y="64" flags="0x1004"/>
      <component glyphName="n" x="0" y="0" flags="0x1204"/>
    </TTGlyph>
    <TTGlyph name="ncaron" xMin="120" yMin="0" xMax="748" yMax="1735">
      <component glyphName="caron" x="123" y="64" flags="0x1004"/>
      <component glyphName="n" x="0" y="0" flags="0x1204"/>
    </TTGlyph>
    <TTGlyph name="ncommaaccent" xMin="120" yMin="-598" xMax="748" yMax="1225">
      <component glyphName="uni0326" x="185" y="-76" flags="0x1004"/>
      <component glyphName="n" x="0" y="0" flags="0x1204"/>
    </TTGlyph>
    <TTGlyph name="nine" xMin="80" yMin="-27" xMax="876" yMax="1745">
      <contour>
        <pt x="724" y="907" on="1"/>
        <pt x="724" y="1217" on="1"/>
        <pt x="724" y="1316" on="0"/>
        <pt x="705" y="1458" on="0"/>
        <pt x="669" y="1550" on="0"/>
        <pt x="609" y="1602" on="0"/>
        <pt x="538" y="1623" on="0"/>
        <pt x="488" y="1623" on="1"/>
        <pt x="354" y="1623" on="0"/>
        <pt x="232" y="1451" on="0"/>
        <pt x="232" y="1237" on="1"/>
        <pt x="232" y="1029" on="0"/>
        <pt x="350" y="861" on="0"/>
        <pt x="478" y="861" on="1"/>
        <pt x="548" y="861" on="0"/>
        <pt x="693" y="886" on="0"/>
      </contour>
      <contour>
        <pt x="118" y="395" on="1"/>
        <pt x="118" y="421" on="1"/>
        <pt x="260" y="421" on="1"/>
        <pt x="262" y="320" on="0"/>
        <pt x="294" y="190" on="0"/>
        <pt x="359" y="120" on="0"/>
        <pt x="440" y="95" on="0"/>
        <pt x="502" y="95" on="1"/>
        <pt x="558" y="95" on="0"/>
        <pt x="635" y="127" on="0"/>
        <pt x="695" y="206" on="0"/>
        <pt x="724" y="351" on="0"/>
        <pt x="724" y="459" on="1"/>
        <pt x="724" y="784" on="1"/>
        <pt x="629" y="739" on="0"/>
        <pt x="478" y="739" on="1"/>
        <pt x="373" y="739" on="0"/>
        <pt x="217" y="814" on="0"/>
        <pt x="125" y="952" on="0"/>
        <pt x="80" y="1128" on="0"/>
        <pt x="80" y="1236" on="1"/>
        <pt x="80" y="1347" on="0"/>
        <pt x="126" y="1528" on="0"/>
        <pt x="221" y="1668" on="0"/>
        <pt x="381" y="1745" on="0"/>
        <pt x="488" y="1745" on="1"/>
        <pt x="691" y="1745" on="0"/>
        <pt x="876" y="1481" on="0"/>
        <pt x="876" y="1228" on="1"/>
        <pt x="876" y="462" on="1"/>
        <pt x="876" y="-27" on="0"/>
        <pt x="488" y="-27" on="1"/>
        <pt x="389" y="-27" on="0"/>
        <pt x="241" y="43" on="0"/>
        <pt x="158" y="166" on="0"/>
        <pt x="118" y="311" on="0"/>
      </contour>
    </TTGlyph>
    <TTGlyph name="ntilde" xMin="120" yMin="0" xMax="748" yMax="1587">
      <component glyphName="tilde" x="55" y="24" flags="0x1004"/>
      <component glyphName="n" x="0" y="0" flags="0x1204"/>
    </TTGlyph>
    <TTGlyph name="numbersign" xMin="18" yMin="0" xMax="966" yMax="1721">
      <contour>
        <pt x="382" y="785" on="1"/>
        <pt x="559" y="785" on="1"/>
        <pt x="626" y="1024" on="1"/>
        <pt x="449" y="1024" on="1"/>
      </contour>
      <contour>
        <pt x="18" y="0" on="1"/>
        <pt x="203" y="660" on="1"/>
        <pt x="48" y="660" on="1"/>
        <pt x="48" y="785" on="1"/>
        <pt x="238" y="785" on="1"/>
        <pt x="305" y="1024" on="1"/>
        <pt x="98" y="1024" on="1"/>
        <pt x="98" y="1139" on="1"/>
        <pt x="337" y="1139" on="1"/>
        <pt x="500" y="1721" on="1"/>
        <pt x="645" y="1721" on="1"/>
        <pt x="482" y="1139" on="1"/>
        <pt x="658" y="1139" on="1"/>
        <pt x="821" y="1721" on="1"/>
        <pt x="966" y="1721" on="1"/>
        <pt x="803" y="1139" on="1"/>
        <pt x="957" y="1139" on="1"/>
        <pt x="957" y="1024" on="1"/>
        <pt x="770" y="1024" on="1"/>
        <pt x="703" y="785" on="1"/>
        <pt x="907" y="785" on="1"/>
        <pt x="907" y="660" on="1"/>
        <pt x="668" y="660" on="1"/>
        <pt x="483" y="0" on="1"/>
        <pt x="339" y="0" on="1"/>
        <pt x="524" y="660" on="1"/>
        <pt x="347" y="660" on="1"/>
        <pt x="162" y="0" on="1"/>
      </contour>
    </TTGlyph>
    <TTGlyph name="o" xMin="106" yMin="-27" xMax="740" yMax="1225">
      <contour>
        <pt x="106" y="568" on="1"/>
        <pt x="106" y="630" on="1"/>
        <pt x="106" y="710" on="0"/>
        <pt x="108" y="795" on="0"/>
        <pt x="119" y="942" on="0"/>
        <pt x="142" y="1024" on="0"/>
        <pt x="188" y="1130" on="0"/>
        <pt x="255" y="1185" on="0"/>
        <pt x="357" y="1225" on="0"/>
        <pt x="489" y="1225" on="0"/>
        <pt x="591" y="1185" on="0"/>
        <pt x="658" y="1130" on="0"/>
        <pt x="704" y="1024" on="0"/>
        <pt x="727" y="942" on="0"/>
        <pt x="738" y="795" on="0"/>
        <pt x="740" y="710" on="0"/>
        <pt x="740" y="630" on="1"/>
        <pt x="740" y="568" on="1"/>
        <pt x="740" y="501" on="0"/>
        <pt x="739" y="433" on="0"/>
        <pt x="734" y="312" on="0"/>
        <pt x="723" y="246" on="0"/>
        <pt x="701" y="148" on="0"/>
        <pt x="670" y="94" on="0"/>
        <pt x="622" y="29" on="0"/>
        <pt x="560" y="-4" on="0"/>
        <pt x="475" y="-27" on="0"/>
        <pt x="371" y="-27" on="0"/>
        <pt x="286" y="-4" on="0"/>
        <pt x="224" y="29" on="0"/>
        <pt x="176" y="94" on="0"/>
        <pt x="145" y="148" on="0"/>
        <pt x="123" y="246" on="0"/>
        <pt x="112" y="312" on="0"/>
        <pt x="107" y="433" on="0"/>
        <pt x="106" y="501" on="0"/>
      </contour>
      <contour>
        <pt x="256" y="630" on="1"/>
        <pt x="256" y="568" on="1"/>
        <pt x="256" y="286" on="0"/>
        <pt x="322" y="74" on="0"/>
        <pt x="524" y="74" on="0"/>
        <pt x="590" y="286" on="0"/>
        <pt x="590" y="568" on="1"/>
        <pt x="590" y="630" on="1"/>
        <pt x="590" y="725" on="0"/>
        <pt x="586" y="855" on="0"/>
        <pt x="573" y="974" on="0"/>
        <pt x="550" y="1046" on="0"/>
        <pt x="513" y="1101" on="0"/>
        <pt x="460" y="1124" on="0"/>
        <pt x="386" y="1124" on="0"/>
        <pt x="333" y="1101" on="0"/>
        <pt x="295" y="1046" on="0"/>
        <pt x="273" y="975" on="0"/>
        <pt x="260" y="854" on="0"/>
        <pt x="256" y="726" on="0"/>
      </contour>
    </TTGlyph>
    <TTGlyph name="oacute" xMin="106" yMin="-27" xMax="740" yMax="1786">
      <component glyphName="acute" x="299" y="64" flags="0x1004"/>
      <component glyphName="o" x="0" y="0" flags="0x1204"/>
    </TTGlyph>
    <TTGlyph name="obreve" xMin="106" yMin="-27" xMax="740" yMax="1656">
      <component glyphName="breve" x="55" y="75" flags="0x1004"/>
      <component glyphName="o" x="0" y="0" flags="0x1204"/>
    </TTGlyph>
    <TTGlyph name="ocircumflex" xMin="106" yMin="-27" xMax="740" yMax="1695">
      <component glyphName="circumflex" x="68" y="-20" flags="0x1004"/>
      <component glyphName="o" x="0" y="0" flags="0x1204"/>
    </TTGlyph>
    <TTGlyph name="odieresis" xMin="106" yMin="-27" xMax="740" yMax="1567">
      <component glyphName="dieresis" x="26" y="2" flags="0x1004"/>
      <component glyphName="o" x="0" y="0" flags="0x1204"/>
    </TTGlyph>
    <TTGlyph name="oe" xMin="108" yMin="-27" xMax="1225" yMax="1225">
      <contour>
        <pt x="744" y="702" on="1"/>
        <pt x="1076" y="702" on="1"/>
        <pt x="1076" y="720" on="0"/>
        <pt x="1076" y="758" on="1"/>
        <pt x="1076" y="792" on="0"/>
        <pt x="1075" y="828" on="0"/>
        <pt x="1074" y="894" on="0"/>
        <pt x="1070" y="931" on="0"/>
        <pt x="1063" y="989" on="0"/>
        <pt x="1052" y="1022" on="0"/>
        <pt x="1037" y="1065" on="0"/>
        <pt x="1015" y="1090" on="0"/>
        <pt x="988" y="1114" on="0"/>
        <pt x="951" y="1124" on="0"/>
        <pt x="930" y="1124" on="1"/>
        <pt x="900" y="1124" on="0"/>
        <pt x="851" y="1111" on="0"/>
        <pt x="815" y="1092" on="0"/>
        <pt x="787" y="1053" on="0"/>
        <pt x="768" y="1018" on="0"/>
        <pt x="755" y="955" on="0"/>
        <pt x="748" y="905" on="0"/>
        <pt x="745" y="818" on="0"/>
        <pt x="744" y="756" on="0"/>
      </contour>
      <contour>
        <pt x="258" y="630" on="1"/>
        <pt x="258" y="568" on="1"/>
        <pt x="258" y="286" on="0"/>
        <pt x="324" y="74" on="0"/>
        <pt x="526" y="74" on="0"/>
        <pt x="592" y="286" on="0"/>
        <pt x="592" y="568" on="1"/>
        <pt x="592" y="630" on="1"/>
        <pt x="592" y="725" on="0"/>
        <pt x="588" y="855" on="0"/>
        <pt x="575" y="974" on="0"/>
        <pt x="552" y="1046" on="0"/>
        <pt x="515" y="1101" on="0"/>
        <pt x="462" y="1124" on="0"/>
        <pt x="388" y="1124" on="0"/>
        <pt x="335" y="1101" on="0"/>
        <pt x="297" y="1046" on="0"/>
        <pt x="275" y="975" on="0"/>
        <pt x="262" y="854" on="0"/>
        <pt x="258" y="726" on="0"/>
      </contour>
      <contour>
        <pt x="108" y="568" on="1"/>
        <pt x="108" y="630" on="1"/>
        <pt x="108" y="710" on="0"/>
        <pt x="110" y="795" on="0"/>
        <pt x="121" y="942" on="0"/>
        <pt x="144" y="1024" on="0"/>
        <pt x="190" y="1130" on="0"/>
        <pt x="257" y="1185" on="0"/>
        <pt x="359" y="1225" on="0"/>
        <pt x="425" y="1225" on="1"/>
        <pt x="593" y="1225" on="0"/>
        <pt x="668" y="1104" on="1"/>
        <pt x="710" y="1172" on="0"/>
        <pt x="836" y="1225" on="0"/>
        <pt x="923" y="1225" on="1"/>
        <pt x="1084" y="1225" on="0"/>
        <pt x="1225" y="997" on="0"/>
        <pt x="1225" y="751" on="1"/>
        <pt x="1225" y="676" on="0"/>
        <pt x="1223" y="628" on="1"/>
        <pt x="743" y="628" on="1"/>
        <pt x="743" y="445" on="1"/>
        <pt x="743" y="327" on="0"/>
        <pt x="766" y="176" on="0"/>
        <pt x="816" y="100" on="0"/>
        <pt x="876" y="74" on="0"/>
        <pt x="922" y="74" on="1"/>
        <pt x="988" y="74" on="0"/>
        <pt x="1079" y="211" on="0"/>
        <pt x="1081" y="367" on="1"/>
        <pt x="1220" y="367" on="1"/>
        <pt x="1214" y="300" on="0"/>
        <pt x="1194" y="194" on="0"/>
        <pt x="1151" y="87" on="0"/>
        <pt x="1088" y="17" on="0"/>
        <pt x="989" y="-27" on="0"/>
        <pt x="924" y="-27" on="1"/>
        <pt x="831" y="-27" on="0"/>
        <pt x="707" y="26" on="0"/>
        <pt x="668" y="87" on="1"/>
        <pt x="593" y="-27" on="0"/>
        <pt x="425" y="-27" on="1"/>
        <pt x="373" y="-27" on="0"/>
        <pt x="288" y="-4" on="0"/>
        <pt x="226" y="29" on="0"/>
        <pt x="178" y="94" on="0"/>
        <pt x="147" y="148" on="0"/>
        <pt x="125" y="246" on="0"/>
        <pt x="114" y="312" on="0"/>
        <pt x="109" y="433" on="0"/>
        <pt x="108" y="501" on="0"/>
      </contour>
    </TTGlyph>
    <TTGlyph name="ogonek" xMin="98" yMin="-358" xMax="378" yMax="0">
      <contour>
        <pt x="378" y="-288" on="1"/>
        <pt x="378" y="-358" on="1"/>
        <pt x="317" y="-358" on="0"/>
        <pt x="239" y="-353" on="0"/>
        <pt x="164" y="-337" on="0"/>
        <pt x="123" y="-307" on="0"/>
        <pt x="98" y="-256" on="0"/>
        <pt x="98" y="-219" on="1"/>
        <pt x="98" y="-150" on="0"/>
        <pt x="207" y="-23" on="0"/>
        <pt x="253" y="0" on="1"/>
        <pt x="322" y="0" on="1"/>
        <pt x="261" y="-55" on="0"/>
        <pt x="191" y="-156" on="0"/>
        <pt x="191" y="-210" on="1"/>
        <pt x="191" y="-222" on="0"/>
        <pt x="194" y="-241" on="0"/>
        <pt x="204" y="-256" on="0"/>
        <pt x="212" y="-267" on="0"/>
        <pt x="231" y="-275" on="0"/>
        <pt x="244" y="-281" on="0"/>
        <pt x="274" y="-285" on="0"/>
        <pt x="292" y="-287" on="0"/>
        <pt x="331" y="-288" on="0"/>
        <pt x="354" y="-288" on="0"/>
      </contour>
    </TTGlyph>
    <TTGlyph name="ograve" xMin="106" yMin="-27" xMax="740" yMax="1786">
      <component glyphName="grave" x="96" y="64" flags="0x1004"/>
      <component glyphName="o" x="0" y="0" flags="0x1204"/>
    </TTGlyph>
    <TTGlyph name="ohungarumlaut" xMin="106" yMin="-27" xMax="775" yMax="1701">
      <component glyphName="hungarumlaut" x="178" y="-20" flags="0x1004"/>
      <component glyphName="o" x="0" y="0" flags="0x1204"/>
    </TTGlyph>
    <TTGlyph name="omacron" xMin="106" yMin="-27" xMax="740" yMax="1503">
      <component glyphName="macron" x="72" y="5" flags="0x1004"/>
      <component glyphName="o" x="0" y="0" flags="0x1204"/>
    </TTGlyph>
    <TTGlyph name="one" xMin="41" yMin="0" xMax="385" yMax="1721">
      <contour>
        <pt x="233" y="0" on="1"/>
        <pt x="233" y="1478" on="1"/>
        <pt x="190" y="1449" on="0"/>
        <pt x="76" y="1397" on="0"/>
        <pt x="41" y="1389" on="1"/>
        <pt x="41" y="1533" on="1"/>
        <pt x="101" y="1555" on="0"/>
        <pt x="241" y="1652" on="0"/>
        <pt x="282" y="1721" on="1"/>
        <pt x="385" y="1721" on="1"/>
        <pt x="385" y="0" on="1"/>
      </contour>
    </TTGlyph>
    <TTGlyph name="onehalf" xMin="0" yMin="-1" xMax="1690" yMax="1721">
      <contour>
        <pt x="1126" y="-1" on="1"/>
        <pt x="1126" y="99" on="1"/>
        <pt x="1431" y="558" on="1"/>
        <pt x="1548" y="746" on="0"/>
        <pt x="1548" y="836" on="1"/>
        <pt x="1548" y="1048" on="0"/>
        <pt x="1424" y="1048" on="1"/>
        <pt x="1376" y="1048" on="0"/>
        <pt x="1311" y="1006" on="0"/>
        <pt x="1281" y="926" on="0"/>
        <pt x="1270" y="842" on="0"/>
        <pt x="1270" y="784" on="1"/>
        <pt x="1128" y="784" on="1"/>
        <pt x="1128" y="962" on="0"/>
        <pt x="1272" y="1156" on="0"/>
        <pt x="1423" y="1156" on="1"/>
        <pt x="1556" y="1156" on="0"/>
        <pt x="1690" y="986" on="0"/>
        <pt x="1690" y="837" on="1"/>
        <pt x="1690" y="721" on="0"/>
        <pt x="1560" y="519" on="1"/>
        <pt x="1295" y="110" on="1"/>
        <pt x="1676" y="110" on="1"/>
        <pt x="1676" y="-1" on="1"/>
      </contour>
      <contour>
        <pt x="468" y="0" on="1"/>
        <pt x="1020" y="1721" on="1"/>
        <pt x="1165" y="1721" on="1"/>
        <pt x="612" y="0" on="1"/>
      </contour>
      <contour>
        <pt x="192" y="588" on="1"/>
        <pt x="192" y="1497" on="1"/>
        <pt x="150" y="1468" on="0"/>
        <pt x="36" y="1416" on="0"/>
        <pt x="0" y="1408" on="1"/>
        <pt x="0" y="1533" on="1"/>
        <pt x="60" y="1555" on="0"/>
        <pt x="200" y="1652" on="0"/>
        <pt x="241" y="1721" on="1"/>
        <pt x="328" y="1721" on="1"/>
        <pt x="328" y="588" on="1"/>
      </contour>
    </TTGlyph>
    <TTGlyph name="onequarter" xMin="0" yMin="-1" xMax="1528" yMax="1721">
      <contour>
        <pt x="192" y="588" on="1"/>
        <pt x="192" y="1497" on="1"/>
        <pt x="150" y="1468" on="0"/>
        <pt x="36" y="1416" on="0"/>
        <pt x="0" y="1408" on="1"/>
        <pt x="0" y="1533" on="1"/>
        <pt x="60" y="1555" on="0"/>
        <pt x="200" y="1652" on="0"/>
        <pt x="241" y="1721" on="1"/>
        <pt x="328" y="1721" on="1"/>
        <pt x="328" y="588" on="1"/>
      </contour>
      <contour>
        <pt x="348" y="0" on="1"/>
        <pt x="900" y="1721" on="1"/>
        <pt x="1045" y="1721" on="1"/>
        <pt x="492" y="0" on="1"/>
      </contour>
      <contour>
        <pt x="1028" y="378" on="1"/>
        <pt x="1258" y="378" on="1"/>
        <pt x="1257" y="1016" on="1"/>
      </contour>
      <contour>
        <pt x="883" y="276" on="1"/>
        <pt x="883" y="371" on="1"/>
        <pt x="1184" y="1132" on="1"/>
        <pt x="1394" y="1132" on="1"/>
        <pt x="1394" y="378" on="1"/>
        <pt x="1528" y="378" on="1"/>
        <pt x="1528" y="276" on="1"/>
        <pt x="1394" y="276" on="1"/>
        <pt x="1394" y="-1" on="1"/>
        <pt x="1258" y="-1" on="1"/>
        <pt x="1258" y="276" on="1"/>
      </contour>
    </TTGlyph>
    <TTGlyph name="ordfeminine" xMin="94" yMin="-23" xMax="635" yMax="950">
      <contour>
        <pt x="493" y="193" on="1"/>
        <pt x="493" y="524" on="1"/>
        <pt x="417" y="475" on="0"/>
        <pt x="335" y="415" on="0"/>
        <pt x="253" y="337" on="0"/>
        <pt x="220" y="259" on="0"/>
        <pt x="220" y="212" on="1"/>
        <pt x="220" y="145" on="0"/>
        <pt x="280" y="81" on="0"/>
        <pt x="321" y="81" on="1"/>
        <pt x="368" y="81" on="0"/>
        <pt x="465" y="144" on="0"/>
      </contour>
      <contour>
        <pt x="518" y="0" on="1"/>
        <pt x="502" y="120" on="1"/>
        <pt x="462" y="50" on="0"/>
        <pt x="344" y="-23" on="0"/>
        <pt x="291" y="-23" on="1"/>
        <pt x="214" y="-23" on="0"/>
        <pt x="94" y="94" on="0"/>
        <pt x="94" y="189" on="1"/>
        <pt x="94" y="222" on="0"/>
        <pt x="97" y="261" on="0"/>
        <pt x="112" y="325" on="0"/>
        <pt x="142" y="369" on="0"/>
        <pt x="200" y="431" on="0"/>
        <pt x="284" y="484" on="0"/>
        <pt x="411" y="548" on="0"/>
        <pt x="493" y="580" on="1"/>
        <pt x="493" y="675" on="0"/>
        <pt x="474" y="797" on="0"/>
        <pt x="435" y="850" on="0"/>
        <pt x="398" y="866" on="0"/>
        <pt x="371" y="866" on="1"/>
        <pt x="348" y="866" on="0"/>
        <pt x="313" y="853" on="0"/>
        <pt x="272" y="816" on="0"/>
        <pt x="246" y="732" on="0"/>
        <pt x="243" y="670" on="1"/>
        <pt x="113" y="670" on="1"/>
        <pt x="123" y="801" on="0"/>
        <pt x="257" y="950" on="0"/>
        <pt x="366" y="950" on="1"/>
        <pt x="427" y="950" on="0"/>
        <pt x="520" y="911" on="0"/>
        <pt x="574" y="850" on="0"/>
        <pt x="608" y="765" on="0"/>
        <pt x="620" y="685" on="0"/>
        <pt x="620" y="639" on="1"/>
        <pt x="620" y="220" on="1"/>
        <pt x="620" y="170" on="0"/>
        <pt x="628" y="60" on="0"/>
        <pt x="632" y="30" on="1"/>
        <pt x="635" y="0" on="1"/>
      </contour>
    </TTGlyph>
    <TTGlyph name="ordmasculine" xMin="111" yMin="770" xMax="606" yMax="1747">
      <contour>
        <pt x="111" y="1234" on="1"/>
        <pt x="111" y="1283" on="1"/>
        <pt x="111" y="1332" on="0"/>
        <pt x="112" y="1382" on="0"/>
        <pt x="116" y="1475" on="0"/>
        <pt x="124" y="1526" on="0"/>
        <pt x="141" y="1604" on="0"/>
        <pt x="165" y="1648" on="0"/>
        <pt x="203" y="1700" on="0"/>
        <pt x="251" y="1728" on="0"/>
        <pt x="318" y="1747" on="0"/>
        <pt x="398" y="1747" on="0"/>
        <pt x="465" y="1728" on="0"/>
        <pt x="514" y="1700" on="0"/>
        <pt x="551" y="1648" on="0"/>
        <pt x="576" y="1604" on="0"/>
        <pt x="593" y="1526" on="0"/>
        <pt x="601" y="1475" on="0"/>
        <pt x="605" y="1382" on="0"/>
        <pt x="606" y="1332" on="0"/>
        <pt x="606" y="1283" on="1"/>
        <pt x="606" y="1234" on="1"/>
        <pt x="606" y="1167" on="0"/>
        <pt x="605" y="1099" on="0"/>
        <pt x="596" y="982" on="0"/>
        <pt x="578" y="920" on="0"/>
        <pt x="542" y="840" on="0"/>
        <pt x="490" y="799" on="0"/>
        <pt x="410" y="770" on="0"/>
        <pt x="358" y="770" on="1"/>
        <pt x="298" y="770" on="0"/>
        <pt x="210" y="802" on="0"/>
        <pt x="158" y="878" on="0"/>
        <pt x="126" y="946" on="0"/>
        <pt x="114" y="1076" on="0"/>
        <pt x="111" y="1156" on="0"/>
      </contour>
      <contour>
        <pt x="228" y="1283" on="1"/>
        <pt x="228" y="1234" on="1"/>
        <pt x="228" y="1014" on="0"/>
        <pt x="279" y="849" on="0"/>
        <pt x="358" y="849" on="1"/>
        <pt x="438" y="849" on="0"/>
        <pt x="489" y="1014" on="0"/>
        <pt x="489" y="1234" on="1"/>
        <pt x="489" y="1283" on="1"/>
        <pt x="489" y="1372" on="0"/>
        <pt x="484" y="1487" on="0"/>
        <pt x="468" y="1586" on="0"/>
        <pt x="439" y="1639" on="0"/>
        <pt x="392" y="1668" on="0"/>
        <pt x="358" y="1668" on="1"/>
        <pt x="276" y="1668" on="0"/>
        <pt x="228" y="1504" on="0"/>
      </contour>
    </TTGlyph>
    <TTGlyph name="oslash" xMin="106" yMin="-256" xMax="744" yMax="1481">
      <contour>
        <pt x="740" y="568" on="1"/>
        <pt x="740" y="501" on="0"/>
        <pt x="739" y="433" on="0"/>
        <pt x="734" y="312" on="0"/>
        <pt x="723" y="246" on="0"/>
        <pt x="701" y="148" on="0"/>
        <pt x="670" y="94" on="0"/>
        <pt x="622" y="29" on="0"/>
        <pt x="560" y="-4" on="0"/>
        <pt x="475" y="-27" on="0"/>
        <pt x="423" y="-27" on="1"/>
        <pt x="337" y="-27" on="0"/>
        <pt x="274" y="3" on="1"/>
        <pt x="191" y="-256" on="1"/>
        <pt x="143" y="-240" on="1"/>
        <pt x="230" y="31" on="1"/>
        <pt x="200" y="55" on="0"/>
        <pt x="156" y="122" on="0"/>
        <pt x="130" y="214" on="0"/>
        <pt x="114" y="292" on="0"/>
        <pt x="107" y="419" on="0"/>
        <pt x="106" y="495" on="0"/>
        <pt x="106" y="568" on="1"/>
        <pt x="106" y="630" on="1"/>
        <pt x="106" y="710" on="0"/>
        <pt x="108" y="795" on="0"/>
        <pt x="119" y="942" on="0"/>
        <pt x="142" y="1024" on="0"/>
        <pt x="188" y="1130" on="0"/>
        <pt x="255" y="1185" on="0"/>
        <pt x="357" y="1225" on="0"/>
        <pt x="423" y="1225" on="1"/>
        <pt x="529" y="1225" on="0"/>
        <pt x="598" y="1178" on="1"/>
        <pt x="695" y="1481" on="1"/>
        <pt x="744" y="1465" on="1"/>
        <pt x="640" y="1140" on="1"/>
        <pt x="676" y="1100" on="0"/>
        <pt x="719" y="988" on="0"/>
        <pt x="736" y="831" on="0"/>
        <pt x="740" y="726" on="0"/>
        <pt x="740" y="630" on="1"/>
      </contour>
      <contour>
        <pt x="423" y="74" on="1"/>
        <pt x="524" y="74" on="0"/>
        <pt x="590" y="286" on="0"/>
        <pt x="590" y="568" on="1"/>
        <pt x="590" y="630" on="1"/>
        <pt x="590" y="844" on="0"/>
        <pt x="576" y="941" on="1"/>
        <pt x="314" y="127" on="1"/>
        <pt x="350" y="74" on="0"/>
      </contour>
      <contour>
        <pt x="256" y="630" on="1"/>
        <pt x="256" y="568" on="1"/>
        <pt x="256" y="299" on="0"/>
        <pt x="284" y="198" on="1"/>
        <pt x="552" y="1036" on="1"/>
        <pt x="517" y="1124" on="0"/>
        <pt x="423" y="1124" on="1"/>
        <pt x="386" y="1124" on="0"/>
        <pt x="333" y="1101" on="0"/>
        <pt x="295" y="1046" on="0"/>
        <pt x="273" y="975" on="0"/>
        <pt x="260" y="854" on="0"/>
        <pt x="256" y="726" on="0"/>
      </contour>
    </TTGlyph>
    <TTGlyph name="otilde" xMin="106" yMin="-27" xMax="740" yMax="1587">
      <component glyphName="tilde" x="44" y="24" flags="0x1004"/>
      <component glyphName="o" x="0" y="0" flags="0x1204"/>
    </TTGlyph>
    <TTGlyph name="p" xMin="120" yMin="-385" xMax="765" yMax="1225">
      <contour>
        <pt x="615" y="558" on="1"/>
        <pt x="615" y="653" on="1"/>
        <pt x="615" y="747" on="0"/>
        <pt x="606" y="893" on="0"/>
        <pt x="592" y="989" on="0"/>
        <pt x="568" y="1056" on="0"/>
        <pt x="546" y="1092" on="0"/>
        <pt x="511" y="1110" on="0"/>
        <pt x="486" y="1114" on="0"/>
        <pt x="466" y="1114" on="1"/>
        <pt x="421" y="1114" on="0"/>
        <pt x="315" y="1047" on="0"/>
        <pt x="270" y="993" on="1"/>
        <pt x="270" y="203" on="1"/>
        <pt x="377" y="84" on="0"/>
        <pt x="471" y="84" on="1"/>
        <pt x="493" y="84" on="0"/>
        <pt x="522" y="92" on="0"/>
        <pt x="559" y="120" on="0"/>
        <pt x="582" y="183" on="0"/>
        <pt x="605" y="284" on="0"/>
        <pt x="615" y="448" on="0"/>
      </contour>
      <contour>
        <pt x="120" y="-385" on="1"/>
        <pt x="120" y="1198" on="1"/>
        <pt x="270" y="1198" on="1"/>
        <pt x="270" y="1085" on="1"/>
        <pt x="360" y="1225" on="0"/>
        <pt x="512" y="1225" on="1"/>
        <pt x="539" y="1225" on="0"/>
        <pt x="583" y="1216" on="0"/>
        <pt x="637" y="1187" on="0"/>
        <pt x="679" y="1138" on="0"/>
        <pt x="721" y="1051" on="0"/>
        <pt x="748" y="934" on="0"/>
        <pt x="765" y="760" on="0"/>
        <pt x="765" y="652" on="1"/>
        <pt x="765" y="557" on="1"/>
        <pt x="765" y="402" on="0"/>
        <pt x="732" y="179" on="0"/>
        <pt x="684" y="59" on="0"/>
        <pt x="608" y="-10" on="0"/>
        <pt x="544" y="-27" on="0"/>
        <pt x="501" y="-27" on="1"/>
        <pt x="438" y="-27" on="0"/>
        <pt x="317" y="44" on="0"/>
        <pt x="270" y="113" on="1"/>
        <pt x="270" y="-385" on="1"/>
      </contour>
    </TTGlyph>
    <TTGlyph name="paragraph" xMin="23" yMin="0" xMax="831" yMax="1459">
      <contour>
        <pt x="389" y="0" on="1"/>
        <pt x="389" y="876" on="1"/>
        <pt x="219" y="876" on="0"/>
        <pt x="23" y="1027" on="0"/>
        <pt x="23" y="1165" on="1"/>
        <pt x="23" y="1304" on="0"/>
        <pt x="209" y="1459" on="0"/>
        <pt x="394" y="1459" on="1"/>
        <pt x="831" y="1459" on="1"/>
        <pt x="831" y="0" on="1"/>
        <pt x="725" y="0" on="1"/>
        <pt x="725" y="876" on="1"/>
        <pt x="514" y="876" on="1"/>
        <pt x="514" y="0" on="1"/>
      </contour>
    </TTGlyph>
    <TTGlyph name="parenleft" xMin="115" yMin="-64" xMax="541" yMax="1787">
      <contour>
        <pt x="541" y="68" on="1"/>
        <pt x="541" y="-64" on="1"/>
        <pt x="472" y="-64" on="0"/>
        <pt x="357" y="-21" on="0"/>
        <pt x="274" y="42" on="0"/>
        <pt x="208" y="153" on="0"/>
        <pt x="167" y="251" on="0"/>
        <pt x="138" y="404" on="0"/>
        <pt x="123" y="509" on="0"/>
        <pt x="116" y="678" on="0"/>
        <pt x="115" y="764" on="0"/>
        <pt x="115" y="841" on="1"/>
        <pt x="115" y="845" on="0"/>
        <pt x="115" y="848" on="0"/>
        <pt x="115" y="854" on="0"/>
        <pt x="115" y="859" on="0"/>
        <pt x="115" y="861" on="1"/>
        <pt x="115" y="867" on="0"/>
        <pt x="115" y="881" on="1"/>
        <pt x="115" y="981" on="0"/>
        <pt x="117" y="1096" on="0"/>
        <pt x="133" y="1313" on="0"/>
        <pt x="163" y="1447" on="0"/>
        <pt x="226" y="1619" on="0"/>
        <pt x="314" y="1717" on="0"/>
        <pt x="453" y="1787" on="0"/>
        <pt x="541" y="1787" on="1"/>
        <pt x="541" y="1655" on="1"/>
        <pt x="486" y="1655" on="0"/>
        <pt x="400" y="1607" on="0"/>
        <pt x="343" y="1534" on="0"/>
        <pt x="302" y="1408" on="0"/>
        <pt x="281" y="1295" on="0"/>
        <pt x="269" y="1122" on="0"/>
        <pt x="267" y="997" on="0"/>
        <pt x="267" y="903" on="1"/>
        <pt x="267" y="891" on="0"/>
        <pt x="267" y="866" on="1"/>
        <pt x="267" y="773" on="0"/>
        <pt x="268" y="675" on="0"/>
        <pt x="274" y="500" on="0"/>
        <pt x="289" y="400" on="0"/>
        <pt x="313" y="261" on="0"/>
        <pt x="354" y="182" on="0"/>
        <pt x="410" y="103" on="0"/>
        <pt x="491" y="68" on="0"/>
      </contour>
    </TTGlyph>
    <TTGlyph name="parenright" xMin="18" yMin="-64" xMax="444" yMax="1787">
      <contour>
        <pt x="18" y="-64" on="1"/>
        <pt x="18" y="68" on="1"/>
        <pt x="68" y="68" on="0"/>
        <pt x="149" y="103" on="0"/>
        <pt x="205" y="182" on="0"/>
        <pt x="246" y="261" on="0"/>
        <pt x="270" y="400" on="0"/>
        <pt x="285" y="500" on="0"/>
        <pt x="291" y="675" on="0"/>
        <pt x="292" y="773" on="0"/>
        <pt x="292" y="866" on="1"/>
        <pt x="292" y="874" on="0"/>
        <pt x="292" y="883" on="0"/>
        <pt x="292" y="897" on="0"/>
        <pt x="292" y="903" on="1"/>
        <pt x="292" y="997" on="0"/>
        <pt x="290" y="1122" on="0"/>
        <pt x="278" y="1295" on="0"/>
        <pt x="257" y="1408" on="0"/>
        <pt x="216" y="1534" on="0"/>
        <pt x="159" y="1607" on="0"/>
        <pt x="73" y="1655" on="0"/>
        <pt x="18" y="1655" on="1"/>
        <pt x="18" y="1787" on="1"/>
        <pt x="106" y="1787" on="0"/>
        <pt x="245" y="1717" on="0"/>
        <pt x="333" y="1619" on="0"/>
        <pt x="396" y="1447" on="0"/>
        <pt x="426" y="1313" on="0"/>
        <pt x="442" y="1096" on="0"/>
        <pt x="444" y="981" on="0"/>
        <pt x="444" y="881" on="1"/>
        <pt x="444" y="877" on="0"/>
        <pt x="444" y="874" on="0"/>
        <pt x="444" y="868" on="0"/>
        <pt x="444" y="863" on="0"/>
        <pt x="444" y="861" on="1"/>
        <pt x="444" y="855" on="0"/>
        <pt x="444" y="841" on="1"/>
        <pt x="444" y="764" on="0"/>
        <pt x="443" y="678" on="0"/>
        <pt x="436" y="509" on="0"/>
        <pt x="421" y="404" on="0"/>
        <pt x="392" y="251" on="0"/>
        <pt x="351" y="153" on="0"/>
        <pt x="285" y="42" on="0"/>
        <pt x="202" y="-21" on="0"/>
        <pt x="87" y="-64" on="0"/>
      </contour>
    </TTGlyph>
    <TTGlyph name="percent" xMin="57" yMin="-27" xMax="1235" yMax="1745">
      <contour>
        <pt x="783" y="307" on="1"/>
        <pt x="783" y="541" on="1"/>
        <pt x="783" y="865" on="0"/>
        <pt x="1235" y="865" on="0"/>
        <pt x="1235" y="541" on="1"/>
        <pt x="1235" y="307" on="1"/>
        <pt x="1235" y="-27" on="0"/>
        <pt x="783" y="-27" on="0"/>
      </contour>
      <contour>
        <pt x="1118" y="310" on="1"/>
        <pt x="1118" y="538" on="1"/>
        <pt x="1118" y="764" on="0"/>
        <pt x="900" y="764" on="0"/>
        <pt x="900" y="538" on="1"/>
        <pt x="900" y="310" on="1"/>
        <pt x="900" y="74" on="0"/>
        <pt x="1118" y="74" on="0"/>
      </contour>
      <contour>
        <pt x="57" y="1187" on="1"/>
        <pt x="57" y="1421" on="1"/>
        <pt x="57" y="1745" on="0"/>
        <pt x="509" y="1745" on="0"/>
        <pt x="509" y="1421" on="1"/>
        <pt x="509" y="1187" on="1"/>
        <pt x="509" y="853" on="0"/>
        <pt x="57" y="853" on="0"/>
      </contour>
      <contour>
        <pt x="392" y="1190" on="1"/>
        <pt x="392" y="1418" on="1"/>
        <pt x="392" y="1644" on="0"/>
        <pt x="174" y="1644" on="0"/>
        <pt x="174" y="1418" on="1"/>
        <pt x="174" y="1190" on="1"/>
        <pt x="174" y="954" on="0"/>
        <pt x="392" y="954" on="0"/>
      </contour>
      <contour>
        <pt x="305" y="0" on="1"/>
        <pt x="857" y="1721" on="1"/>
        <pt x="981" y="1721" on="1"/>
        <pt x="428" y="0" on="1"/>
      </contour>
    </TTGlyph>
    <TTGlyph name="period" xMin="115" yMin="0" xMax="299" yMax="179">
      <contour>
        <pt x="115" y="0" on="1"/>
        <pt x="115" y="179" on="1"/>
        <pt x="299" y="179" on="1"/>
        <pt x="299" y="0" on="1"/>
      </contour>
    </TTGlyph>
    <TTGlyph name="periodcentered" xMin="131" yMin="704" xMax="316" yMax="883">
      <contour>
        <pt x="131" y="704" on="1"/>
        <pt x="131" y="883" on="1"/>
        <pt x="316" y="883" on="1"/>
        <pt x="316" y="704" on="1"/>
      </contour>
    </TTGlyph>
    <TTGlyph name="plus" xMin="82" yMin="384" xMax="587" yMax="883">
      <contour>
        <pt x="274" y="384" on="1"/>
        <pt x="274" y="576" on="1"/>
        <pt x="82" y="576" on="1"/>
        <pt x="82" y="691" on="1"/>
        <pt x="274" y="691" on="1"/>
        <pt x="274" y="883" on="1"/>
        <pt x="395" y="883" on="1"/>
        <pt x="395" y="691" on="1"/>
        <pt x="587" y="691" on="1"/>
        <pt x="587" y="576" on="1"/>
        <pt x="395" y="576" on="1"/>
        <pt x="395" y="384" on="1"/>
      </contour>
    </TTGlyph>
    <TTGlyph name="plusminus" xMin="106" yMin="0" xMax="610" yMax="883">
      <contour>
        <pt x="298" y="384" on="1"/>
        <pt x="298" y="576" on="1"/>
        <pt x="106" y="576" on="1"/>
        <pt x="106" y="691" on="1"/>
        <pt x="298" y="691" on="1"/>
        <pt x="298" y="883" on="1"/>
        <pt x="418" y="883" on="1"/>
        <pt x="418" y="691" on="1"/>
        <pt x="610" y="691" on="1"/>
        <pt x="610" y="576" on="1"/>
        <pt x="418" y="576" on="1"/>
        <pt x="418" y="384" on="1"/>
      </contour>
      <contour>
        <pt x="106" y="0" on="1"/>
        <pt x="106" y="115" on="1"/>
        <pt x="610" y="115" on="1"/>
        <pt x="610" y="0" on="1"/>
      </contour>
    </TTGlyph>
    <TTGlyph name="product" xMin="152" yMin="0" xMax="1040" yMax="1715">
      <contour>
        <pt x="152" y="0" on="1"/>
        <pt x="152" y="1715" on="1"/>
        <pt x="1040" y="1715" on="1"/>
        <pt x="1040" y="0" on="1"/>
        <pt x="856" y="0" on="1"/>
        <pt x="856" y="1600" on="1"/>
        <pt x="336" y="1600" on="1"/>
        <pt x="336" y="0" on="1"/>
      </contour>
    </TTGlyph>
    <TTGlyph name="q" xMin="106" yMin="-385" xMax="751" yMax="1225">
      <contour>
        <pt x="601" y="203" on="1"/>
        <pt x="601" y="993" on="1"/>
        <pt x="556" y="1047" on="0"/>
        <pt x="450" y="1114" on="0"/>
        <pt x="405" y="1114" on="1"/>
        <pt x="385" y="1114" on="0"/>
        <pt x="360" y="1110" on="0"/>
        <pt x="325" y="1092" on="0"/>
        <pt x="303" y="1056" on="0"/>
        <pt x="279" y="989" on="0"/>
        <pt x="265" y="893" on="0"/>
        <pt x="256" y="747" on="0"/>
        <pt x="256" y="653" on="1"/>
        <pt x="256" y="558" on="1"/>
        <pt x="256" y="448" on="0"/>
        <pt x="266" y="284" on="0"/>
        <pt x="289" y="183" on="0"/>
        <pt x="312" y="120" on="0"/>
        <pt x="349" y="92" on="0"/>
        <pt x="378" y="84" on="0"/>
        <pt x="400" y="84" on="1"/>
        <pt x="494" y="84" on="0"/>
      </contour>
      <contour>
        <pt x="601" y="-385" on="1"/>
        <pt x="601" y="113" on="1"/>
        <pt x="554" y="44" on="0"/>
        <pt x="433" y="-27" on="0"/>
        <pt x="370" y="-27" on="1"/>
        <pt x="327" y="-27" on="0"/>
        <pt x="263" y="-10" on="0"/>
        <pt x="187" y="59" on="0"/>
        <pt x="139" y="179" on="0"/>
        <pt x="106" y="402" on="0"/>
        <pt x="106" y="557" on="1"/>
        <pt x="106" y="652" on="1"/>
        <pt x="106" y="760" on="0"/>
        <pt x="123" y="934" on="0"/>
        <pt x="150" y="1051" on="0"/>
        <pt x="192" y="1138" on="0"/>
        <pt x="234" y="1187" on="0"/>
        <pt x="288" y="1216" on="0"/>
        <pt x="332" y="1225" on="0"/>
        <pt x="359" y="1225" on="1"/>
        <pt x="511" y="1225" on="0"/>
        <pt x="601" y="1085" on="1"/>
        <pt x="601" y="1198" on="1"/>
        <pt x="751" y="1198" on="1"/>
        <pt x="751" y="-385" on="1"/>
      </contour>
    </TTGlyph>
    <TTGlyph name="question" xMin="33" yMin="1" xMax="829" yMax="1746">
      <contour>
        <pt x="275" y="1" on="1"/>
        <pt x="275" y="180" on="1"/>
        <pt x="459" y="180" on="1"/>
        <pt x="459" y="1" on="1"/>
      </contour>
      <contour>
        <pt x="300" y="452" on="1"/>
        <pt x="300" y="793" on="1"/>
        <pt x="401" y="851" on="0"/>
        <pt x="551" y="981" on="0"/>
        <pt x="631" y="1089" on="0"/>
        <pt x="679" y="1203" on="0"/>
        <pt x="692" y="1279" on="0"/>
        <pt x="692" y="1317" on="1"/>
        <pt x="692" y="1398" on="0"/>
        <pt x="650" y="1520" on="0"/>
        <pt x="577" y="1590" on="0"/>
        <pt x="489" y="1624" on="0"/>
        <pt x="439" y="1624" on="1"/>
        <pt x="321" y="1624" on="0"/>
        <pt x="169" y="1465" on="0"/>
        <pt x="168" y="1321" on="1"/>
        <pt x="167" y="1179" on="1"/>
        <pt x="33" y="1179" on="1"/>
        <pt x="33" y="1325" on="1"/>
        <pt x="33" y="1424" on="0"/>
        <pt x="103" y="1588" on="0"/>
        <pt x="218" y="1691" on="0"/>
        <pt x="362" y="1746" on="0"/>
        <pt x="439" y="1746" on="1"/>
        <pt x="514" y="1746" on="0"/>
        <pt x="652" y="1693" on="0"/>
        <pt x="763" y="1591" on="0"/>
        <pt x="829" y="1424" on="0"/>
        <pt x="829" y="1319" on="1"/>
        <pt x="829" y="1139" on="0"/>
        <pt x="632" y="859" on="0"/>
        <pt x="434" y="736" on="1"/>
        <pt x="434" y="452" on="1"/>
      </contour>
    </TTGlyph>
    <TTGlyph name="questiondown" xMin="12" yMin="-368" xMax="808" yMax="1378">
      <contour>
        <pt x="566" y="1378" on="1"/>
        <pt x="566" y="1198" on="1"/>
        <pt x="382" y="1198" on="1"/>
        <pt x="382" y="1378" on="1"/>
      </contour>
      <contour>
        <pt x="541" y="926" on="1"/>
        <pt x="541" y="586" on="1"/>
        <pt x="468" y="543" on="0"/>
        <pt x="349" y="452" on="0"/>
        <pt x="269" y="370" on="0"/>
        <pt x="209" y="284" on="0"/>
        <pt x="175" y="213" on="0"/>
        <pt x="155" y="139" on="0"/>
        <pt x="149" y="88" on="0"/>
        <pt x="149" y="62" on="1"/>
        <pt x="149" y="-19" on="0"/>
        <pt x="191" y="-141" on="0"/>
        <pt x="264" y="-211" on="0"/>
        <pt x="352" y="-246" on="0"/>
        <pt x="402" y="-246" on="1"/>
        <pt x="520" y="-246" on="0"/>
        <pt x="672" y="-86" on="0"/>
        <pt x="673" y="58" on="1"/>
        <pt x="674" y="200" on="1"/>
        <pt x="808" y="200" on="1"/>
        <pt x="808" y="54" on="1"/>
        <pt x="808" y="-46" on="0"/>
        <pt x="738" y="-209" on="0"/>
        <pt x="623" y="-312" on="0"/>
        <pt x="479" y="-368" on="0"/>
        <pt x="402" y="-368" on="1"/>
        <pt x="342" y="-368" on="0"/>
        <pt x="230" y="-335" on="0"/>
        <pt x="130" y="-266" on="0"/>
        <pt x="56" y="-167" on="0"/>
        <pt x="12" y="-25" on="0"/>
        <pt x="12" y="60" on="1"/>
        <pt x="12" y="240" on="0"/>
        <pt x="209" y="519" on="0"/>
        <pt x="407" y="642" on="1"/>
        <pt x="407" y="926" on="1"/>
      </contour>
    </TTGlyph>
    <TTGlyph name="quotedbl" xMin="102" yMin="1408" xMax="593" yMax="1715">
      <contour>
        <pt x="475" y="1408" on="1"/>
        <pt x="425" y="1715" on="1"/>
        <pt x="593" y="1715" on="1"/>
        <pt x="581" y="1644" on="0"/>
        <pt x="556" y="1489" on="0"/>
        <pt x="542" y="1408" on="1"/>
      </contour>
      <contour>
        <pt x="152" y="1408" on="1"/>
        <pt x="102" y="1715" on="1"/>
        <pt x="270" y="1715" on="1"/>
        <pt x="258" y="1644" on="0"/>
        <pt x="233" y="1489" on="0"/>
        <pt x="219" y="1408" on="1"/>
      </contour>
    </TTGlyph>
    <TTGlyph name="quotedblbase" xMin="123" yMin="-320" xMax="614" yMax="-13">
      <contour>
        <pt x="497" y="-320" on="1"/>
        <pt x="446" y="-13" on="1"/>
        <pt x="614" y="-13" on="1"/>
        <pt x="602" y="-87" on="0"/>
        <pt x="577" y="-241" on="0"/>
        <pt x="564" y="-320" on="1"/>
      </contour>
      <contour>
        <pt x="174" y="-320" on="1"/>
        <pt x="123" y="-13" on="1"/>
        <pt x="291" y="-13" on="1"/>
        <pt x="279" y="-87" on="0"/>
        <pt x="254" y="-241" on="0"/>
        <pt x="241" y="-320" on="1"/>
      </contour>
    </TTGlyph>
    <TTGlyph name="quotedblleft" xMin="111" yMin="1311" xMax="590" yMax="1746">
      <contour>
        <pt x="590" y="1311" on="1"/>
        <pt x="405" y="1311" on="1"/>
        <pt x="405" y="1554" on="0"/>
        <pt x="455" y="1735" on="0"/>
        <pt x="541" y="1746" on="1"/>
        <pt x="568" y="1691" on="1"/>
        <pt x="533" y="1680" on="0"/>
        <pt x="486" y="1625" on="0"/>
        <pt x="468" y="1556" on="0"/>
        <pt x="462" y="1512" on="0"/>
        <pt x="462" y="1490" on="1"/>
        <pt x="590" y="1490" on="1"/>
      </contour>
      <contour>
        <pt x="296" y="1311" on="1"/>
        <pt x="111" y="1311" on="1"/>
        <pt x="111" y="1554" on="0"/>
        <pt x="161" y="1735" on="0"/>
        <pt x="247" y="1746" on="1"/>
        <pt x="274" y="1691" on="1"/>
        <pt x="239" y="1680" on="0"/>
        <pt x="192" y="1625" on="0"/>
        <pt x="174" y="1556" on="0"/>
        <pt x="168" y="1512" on="0"/>
        <pt x="168" y="1490" on="1"/>
        <pt x="296" y="1490" on="1"/>
      </contour>
    </TTGlyph>
    <TTGlyph name="quotedblright" xMin="100" yMin="1286" xMax="579" yMax="1721">
      <contour>
        <pt x="443" y="1286" on="1"/>
        <pt x="416" y="1341" on="1"/>
        <pt x="451" y="1352" on="0"/>
        <pt x="498" y="1407" on="0"/>
        <pt x="516" y="1476" on="0"/>
        <pt x="522" y="1520" on="0"/>
        <pt x="522" y="1542" on="1"/>
        <pt x="394" y="1542" on="1"/>
        <pt x="394" y="1721" on="1"/>
        <pt x="579" y="1721" on="1"/>
        <pt x="579" y="1478" on="0"/>
        <pt x="529" y="1297" on="0"/>
      </contour>
      <contour>
        <pt x="149" y="1286" on="1"/>
        <pt x="122" y="1341" on="1"/>
        <pt x="157" y="1352" on="0"/>
        <pt x="204" y="1407" on="0"/>
        <pt x="222" y="1476" on="0"/>
        <pt x="228" y="1520" on="0"/>
        <pt x="228" y="1542" on="1"/>
        <pt x="100" y="1542" on="1"/>
        <pt x="100" y="1721" on="1"/>
        <pt x="285" y="1721" on="1"/>
        <pt x="285" y="1478" on="0"/>
        <pt x="235" y="1297" on="0"/>
      </contour>
    </TTGlyph>
    <TTGlyph name="quoteleft" xMin="111" yMin="1311" xMax="296" yMax="1746">
      <contour>
        <pt x="296" y="1311" on="1"/>
        <pt x="111" y="1311" on="1"/>
        <pt x="111" y="1554" on="0"/>
        <pt x="161" y="1735" on="0"/>
        <pt x="247" y="1746" on="1"/>
        <pt x="274" y="1691" on="1"/>
        <pt x="239" y="1680" on="0"/>
        <pt x="192" y="1625" on="0"/>
        <pt x="174" y="1556" on="0"/>
        <pt x="168" y="1512" on="0"/>
        <pt x="168" y="1490" on="1"/>
        <pt x="296" y="1490" on="1"/>
      </contour>
    </TTGlyph>
    <TTGlyph name="quoteright" xMin="100" yMin="1286" xMax="285" yMax="1721">
      <contour>
        <pt x="149" y="1286" on="1"/>
        <pt x="122" y="1341" on="1"/>
        <pt x="157" y="1352" on="0"/>
        <pt x="204" y="1407" on="0"/>
        <pt x="222" y="1476" on="0"/>
        <pt x="228" y="1520" on="0"/>
        <pt x="228" y="1542" on="1"/>
        <pt x="100" y="1542" on="1"/>
        <pt x="100" y="1721" on="1"/>
        <pt x="285" y="1721" on="1"/>
        <pt x="285" y="1478" on="0"/>
        <pt x="235" y="1297" on="0"/>
      </contour>
    </TTGlyph>
    <TTGlyph name="quotesinglbase" xMin="123" yMin="-321" xMax="291" yMax="-14">
      <contour>
        <pt x="173" y="-321" on="1"/>
        <pt x="123" y="-14" on="1"/>
        <pt x="291" y="-14" on="1"/>
        <pt x="279" y="-88" on="0"/>
        <pt x="254" y="-242" on="0"/>
        <pt x="241" y="-321" on="1"/>
      </contour>
    </TTGlyph>
    <TTGlyph name="quotesingle" xMin="102" yMin="1408" xMax="271" yMax="1715">
      <contour>
        <pt x="153" y="1408" on="1"/>
        <pt x="102" y="1715" on="1"/>
        <pt x="271" y="1715" on="1"/>
        <pt x="257" y="1633" on="0"/>
        <pt x="232" y="1477" on="0"/>
        <pt x="220" y="1408" on="1"/>
      </contour>
    </TTGlyph>
    <TTGlyph name="r" xMin="120" yMin="0" xMax="522" yMax="1217">
      <contour>
        <pt x="120" y="0" on="1"/>
        <pt x="120" y="1198" on="1"/>
        <pt x="270" y="1198" on="1"/>
        <pt x="270" y="1029" on="1"/>
        <pt x="298" y="1122" on="0"/>
        <pt x="444" y="1215" on="0"/>
        <pt x="522" y="1217" on="1"/>
        <pt x="522" y="1066" on="1"/>
        <pt x="511" y="1070" on="0"/>
        <pt x="499" y="1070" on="1"/>
        <pt x="270" y="1070" on="0"/>
        <pt x="270" y="894" on="1"/>
        <pt x="270" y="0" on="1"/>
      </contour>
    </TTGlyph>
    <TTGlyph name="racute" xMin="120" yMin="0" xMax="578" yMax="1786">
      <component glyphName="acute" x="197" y="64" flags="0x1004"/>
      <component glyphName="r" x="0" y="0" flags="0x1204"/>
    </TTGlyph>
    <TTGlyph name="rcaron" xMin="84" yMin="0" xMax="558" yMax="1735">
      <component glyphName="caron" x="10" y="64" flags="0x1004"/>
      <component glyphName="r" x="0" y="0" flags="0x1204"/>
    </TTGlyph>
    <TTGlyph name="rcommaaccent" xMin="120" yMin="-598" xMax="522" yMax="1217">
      <component glyphName="uni0326" x="72" y="-76" flags="0x1004"/>
      <component glyphName="r" x="0" y="0" flags="0x1204"/>
    </TTGlyph>
</ttFont>
